<?xml version="1.0" encoding="UTF-8" standalone="no"?>
<!-- Created with Inkscape (http://www.inkscape.org/) -->

<svg
   xmlns:dc="http://purl.org/dc/elements/1.1/"
   xmlns:cc="http://creativecommons.org/ns#"
   xmlns:rdf="http://www.w3.org/1999/02/22-rdf-syntax-ns#"
   xmlns:svg="http://www.w3.org/2000/svg"
   xmlns="http://www.w3.org/2000/svg"
   xmlns:sodipodi="http://sodipodi.sourceforge.net/DTD/sodipodi-0.dtd"
   xmlns:inkscape="http://www.inkscape.org/namespaces/inkscape"
   width="744.09448819"
   height="1052.3622047"
   id="svg4939"
   version="1.1"
   inkscape:version="0.47+devel r9376"
   sodipodi:docname="title_page_a4_right-to-left_en.svg"
   inkscape:export-filename="/media/sda4/software_artwork/ubuntu_manual/export/title_page_a4_right-to-left_2010-03-17.png"
   inkscape:export-xdpi="48.380951"
   inkscape:export-ydpi="48.380951">
  <defs
     id="defs4941" />
  <sodipodi:namedview
     id="base"
     pagecolor="#ffffff"
     bordercolor="#666666"
     borderopacity="1.0"
     inkscape:pageopacity="0.0"
     inkscape:pageshadow="2"
     inkscape:zoom="0.70710678"
     inkscape:cx="431.50778"
     inkscape:cy="511.69868"
     inkscape:document-units="px"
     inkscape:current-layer="layer1"
     showgrid="false"
     inkscape:showpageshadow="false"
     borderlayer="true"
     inkscape:window-width="1280"
     inkscape:window-height="975"
     inkscape:window-x="0"
     inkscape:window-y="25"
     inkscape:window-maximized="1"
     showguides="true"
     inkscape:snap-page="true"
     inkscape:snap-bbox="true"
     inkscape:guide-bbox="true"
     inkscape:bbox-paths="true"
     inkscape:bbox-nodes="true"
     inkscape:snap-bbox-edge-midpoints="true"
     inkscape:snap-bbox-midpoints="true"
     inkscape:object-paths="true"
     inkscape:object-nodes="true"
     inkscape:snap-intersection-paths="true"
     inkscape:snap-smooth-nodes="true"
     inkscape:snap-midpoints="true">
    <inkscape:grid
       type="xygrid"
       id="grid4517" />
  </sodipodi:namedview>
  <metadata
     id="metadata4944">
    <rdf:RDF>
      <cc:Work
         rdf:about="">
        <dc:format>image/svg+xml</dc:format>
        <dc:type
           rdf:resource="http://purl.org/dc/dcmitype/StillImage" />
        <dc:title />
      </cc:Work>
    </rdf:RDF>
  </metadata>
  <g
     inkscape:label="main"
     inkscape:groupmode="layer"
     id="layer1"
     style="display:inline">
    <g
       style="display:inline"
       id="g4598"
       transform="matrix(1.2393761,0,0,1.2393761,-1176.6343,-581.81879)"
       inkscape:transform-center-x="300.56332"
       inkscape:transform-center-y="0.00010199477">
      <path
         id="path17836"
         d="m 1422.7738,1072.256 c -1.7105,1.0394 -2.8614,2.8954 -2.8614,5.044 10e-5,3.2724 2.6571,5.9585 5.9299,5.9583 3.2739,5e-4 5.9427,-2.6845 5.9427,-5.957 -2e-4,-3.2738 -2.6673,-5.9154 -5.9413,-5.9156 -1.1252,10e-5 -2.1739,0.3259 -3.0699,0.8703 z"
         style="fill:#ffdec6;fill-opacity:1;stroke:none;display:inline"
         inkscape:connector-curvature="0" />
      <path
         id="path9307"
         d="m 1412.9667,1085.2072 c -3.5502,2.0497 -6.4225,4.8078 -8.55,8.0035 l 7.2755,4.3515 c 1.4042,-2.0019 3.2358,-3.7446 5.4933,-5.048 7.834,-4.523 17.7341,-2.2283 22.8295,5.042 l 7.2447,-4.327 c -3.6249,-5.4469 -9.0388,-9.11 -14.99,-10.6507 -1.5259,1.8642 -3.8264,3.0597 -6.4246,3.0597 -2.6019,0 -4.9297,-1.1886 -6.4557,-3.0566 -2.1999,0.5702 -4.3582,1.4336 -6.4227,2.6256 z"
         style="fill:#ffecd9;fill-opacity:1;stroke:none;display:inline"
         inkscape:connector-curvature="0" />
      <path
         id="path17826"
         d="m 1441.6401,1100.4448 c 3.4659,5.1874 8.7627,9.0537 14.9687,10.6563 1.5262,-1.8723 3.8634,-3.0938 6.4688,-3.0938 2.6051,0 4.9428,1.2212 6.4687,3.0938 6.2064,-1.6026 11.5028,-5.4689 14.9688,-10.6563 l -7.2813,-4.3437 c -3.1329,4.4515 -8.297,7.375 -14.1562,7.375 -5.8583,0 -11.023,-2.9235 -14.1563,-7.375 l -7.2812,4.3437 z"
         style="fill:#fff4e5;fill-opacity:1;stroke:none;display:inline"
         inkscape:connector-curvature="0" />
      <path
         id="path9320"
         d="m 1457.1401,1116.3511 c 0,3.2745 2.6629,5.9375 5.9375,5.9375 3.2735,0 5.9375,-2.663 5.9375,-5.9375 0,-3.2735 -2.664,-5.9375 -5.9375,-5.9375 -3.2746,0 -5.9375,2.664 -5.9375,5.9375 z"
         style="fill:#ffecd9;fill-opacity:1;stroke:none;display:inline"
         inkscape:connector-curvature="0" />
      <path
         id="path17822"
         d="m 1497.2525,1072.2745 c -1.7104,1.0394 -2.8613,2.8954 -2.8613,5.044 0,3.2725 2.6571,5.9586 5.9298,5.9583 3.2739,6e-4 5.9428,-2.6844 5.9427,-5.9569 -10e-5,-3.2739 -2.6673,-5.9155 -5.9413,-5.9157 -1.1251,10e-5 -2.1738,0.3259 -3.0699,0.8703 z"
         style="fill:#fff4e5;fill-opacity:1;stroke:none;display:inline"
         inkscape:connector-curvature="0" />
      <path
         id="path9322"
         d="m 1487.4455,1085.2257 c -3.5502,2.0497 -6.4225,4.8078 -8.55,8.0035 l 7.2755,4.3515 c 1.4042,-2.0018 3.2358,-3.7446 5.4932,-5.0479 7.8341,-4.523 17.7342,-2.2284 22.8296,5.042 l 7.2446,-4.327 c -3.6248,-5.447 -9.0388,-9.1101 -14.9899,-10.6508 -1.526,1.8642 -3.8264,3.0597 -6.4246,3.0597 -2.6019,0 -4.9298,-1.1885 -6.4557,-3.0566 -2.2,0.5702 -4.3582,1.4336 -6.4227,2.6256 z"
         style="fill:#ffdec6;fill-opacity:1;stroke:none;display:inline"
         inkscape:connector-curvature="0" />
      <path
         id="path17818"
         d="m 1516.1188,1100.4634 c 3.4659,5.1874 8.7627,9.0536 14.9687,10.6562 1.5262,-1.8723 3.8634,-3.0937 6.4688,-3.0937 2.6051,0 4.9428,1.2211 6.4687,3.0937 6.2064,-1.6025 11.5028,-5.4688 14.9688,-10.6562 l -7.2813,-4.3438 c -3.1329,4.4515 -8.297,7.375 -14.1562,7.375 -5.8583,0 -11.023,-2.9235 -14.1563,-7.375 l -7.2812,4.3438 z"
         style="fill:#ffecd9;fill-opacity:1;stroke:none;display:inline"
         inkscape:connector-curvature="0" />
      <path
         id="path9328"
         d="m 1531.6188,1116.3696 c 0,3.2746 2.6629,5.9375 5.9375,5.9375 3.2735,0 5.9375,-2.6629 5.9375,-5.9375 0,-3.2735 -2.664,-5.9375 -5.9375,-5.9375 -3.2746,0 -5.9375,2.664 -5.9375,5.9375 z"
         style="fill:#ffdec6;fill-opacity:1;stroke:none;display:inline"
         inkscape:connector-curvature="0" />
      <path
         id="path17814"
         d="m 1571.7312,1072.2931 c -1.7104,1.0394 -2.8613,2.8954 -2.8613,5.0439 0,3.2725 2.6571,5.9586 5.9298,5.9584 3.2739,5e-4 5.9428,-2.6845 5.9428,-5.957 -10e-5,-3.2738 -2.6674,-5.9155 -5.9413,-5.9156 -1.1251,0 -2.1738,0.3258 -3.0699,0.8703 z"
         style="fill:#ffecd9;fill-opacity:1;stroke:none;display:inline"
         inkscape:connector-curvature="0" />
      <path
         id="path9330"
         d="m 1561.9242,1085.2442 c -3.5502,2.0497 -6.4225,4.8079 -8.55,8.0036 l 7.2755,4.3515 c 1.4042,-2.0019 3.2358,-3.7446 5.4932,-5.048 7.8341,-4.523 17.7342,-2.2283 22.8296,5.042 l 7.2446,-4.327 c -3.6248,-5.447 -9.0388,-9.11 -14.9899,-10.6507 -1.526,1.8642 -3.8264,3.0597 -6.4246,3.0597 -2.6019,0 -4.9298,-1.1886 -6.4557,-3.0567 -2.2,0.5702 -4.3582,1.4337 -6.4227,2.6256 z"
         style="fill:#fff4e5;fill-opacity:1;stroke:none;display:inline"
         inkscape:connector-curvature="0" />
      <path
         inkscape:connector-curvature="0"
         style="fill:#ffdec6;fill-opacity:1;stroke:none;display:inline"
         d="m 1497.2576,1093.4603 c -1.7105,1.0394 -2.8614,2.8954 -2.8614,5.044 0,3.2724 2.6571,5.9585 5.9299,5.9583 3.2738,5e-4 5.9427,-2.6845 5.9427,-5.9569 -2e-4,-3.2739 -2.6673,-5.9155 -5.9413,-5.9157 -1.1252,0 -2.1739,0.3259 -3.0699,0.8703 z"
         id="path17918" />
      <path
         inkscape:connector-curvature="0"
         style="fill:#ffecd9;fill-opacity:1;stroke:none;display:inline"
         d="m 1487.4505,1106.4115 c -3.5502,2.0497 -6.4225,4.8078 -8.55,8.0035 l 7.2755,4.3515 c 1.4042,-2.0019 3.2358,-3.7446 5.4932,-5.0479 7.8341,-4.523 17.7342,-2.2284 22.8296,5.0419 l 7.2446,-4.327 c -3.6248,-5.4469 -9.0387,-9.11 -14.9899,-10.6507 -1.526,1.8642 -3.8264,3.0597 -6.4246,3.0597 -2.6019,0 -4.9298,-1.1886 -6.4557,-3.0566 -2.2,0.5702 -4.3582,1.4336 -6.4227,2.6256 z"
         id="path17920" />
      <path
         inkscape:connector-curvature="0"
         style="fill:#fff4e5;fill-opacity:1;stroke:none;display:inline"
         d="m 1516.1238,1121.6491 c 3.4659,5.1874 8.7627,9.0537 14.9687,10.6563 1.5262,-1.8723 3.8634,-3.0938 6.4688,-3.0938 2.6051,0 4.9428,1.2212 6.4687,3.0938 6.2064,-1.6025 11.5028,-5.4689 14.9688,-10.6563 l -7.2813,-4.3437 c -3.1329,4.4515 -8.297,7.375 -14.1562,7.375 -5.8583,0 -11.023,-2.9235 -14.1563,-7.375 l -7.2812,4.3437 z"
         id="path17924" />
      <path
         inkscape:connector-curvature="0"
         style="fill:#ffecd9;fill-opacity:1;stroke:none;display:inline"
         d="m 1531.6238,1137.5554 c 0,3.2745 2.6629,5.9375 5.9375,5.9375 3.2735,0 5.9375,-2.663 5.9375,-5.9375 0,-3.2735 -2.664,-5.9375 -5.9375,-5.9375 -3.2746,0 -5.9375,2.664 -5.9375,5.9375 z"
         id="path17926" />
      <path
         inkscape:connector-curvature="0"
         style="fill:#fff4e5;fill-opacity:1;stroke:none;display:inline"
         d="m 1571.7362,1093.4788 c -1.7104,1.0394 -2.8613,2.8954 -2.8613,5.044 0,3.2725 2.6571,5.9586 5.9298,5.9583 3.2739,6e-4 5.9428,-2.6844 5.9427,-5.9569 -10e-5,-3.2739 -2.6673,-5.9155 -5.9413,-5.9156 -1.1251,0 -2.1738,0.3258 -3.0699,0.8702 z"
         id="path17928" />
      <path
         inkscape:connector-curvature="0"
         style="fill:#ffdec6;fill-opacity:1;stroke:none;display:inline"
         d="m 1561.9292,1106.43 c -3.5502,2.0497 -6.4225,4.8078 -8.55,8.0035 l 7.2755,4.3515 c 1.4042,-2.0018 3.2358,-3.7446 5.4932,-5.0479 7.8341,-4.523 17.7342,-2.2284 22.8296,5.042 l 7.2446,-4.327 c -3.6248,-5.447 -9.0388,-9.1101 -14.9899,-10.6508 -1.526,1.8642 -3.8264,3.0597 -6.4246,3.0598 -2.6019,-10e-5 -4.9298,-1.1886 -6.4557,-3.0567 -2.2,0.5702 -4.3582,1.4337 -6.4227,2.6256 z"
         id="path17930" />
      <path
         id="path17964"
         d="m 1571.7413,1114.6646 c -1.7105,1.0394 -2.8614,2.8954 -2.8614,5.044 1e-4,3.2725 2.6571,5.9585 5.9299,5.9583 3.2739,5e-4 5.9427,-2.6844 5.9427,-5.9569 -2e-4,-3.2739 -2.6673,-5.9155 -5.9413,-5.9157 -1.1252,10e-5 -2.1739,0.3259 -3.0699,0.8703 z"
         style="fill:#ffdec6;fill-opacity:1;stroke:none;display:inline"
         inkscape:connector-curvature="0" />
      <path
         id="path17966"
         d="m 1561.9342,1127.6158 c -3.5502,2.0497 -6.4225,4.8078 -8.55,8.0035 l 7.2755,4.3515 c 1.4042,-2.0019 3.2358,-3.7446 5.4933,-5.0479 7.834,-4.523 17.7341,-2.2284 22.8295,5.0419 l 7.2446,-4.327 c -3.6248,-5.4469 -9.0387,-9.11 -14.9899,-10.6507 -1.5259,1.8642 -3.8264,3.0597 -6.4246,3.0597 -2.6019,0 -4.9297,-1.1885 -6.4557,-3.0566 -2.1999,0.5702 -4.3582,1.4336 -6.4227,2.6256 z"
         style="fill:#ffecd9;fill-opacity:1;stroke:none;display:inline"
         inkscape:connector-curvature="0" />
      <path
         inkscape:connector-curvature="0"
         style="fill:#ffdec6;fill-opacity:1;stroke:none;display:inline"
         d="m 1199.3377,1072.2931 c -1.7104,1.0393 -2.8613,2.8954 -2.8614,5.044 10e-5,3.2724 2.6572,5.9585 5.9299,5.9583 3.2739,5e-4 5.9428,-2.6845 5.9427,-5.957 -10e-5,-3.2738 -2.6673,-5.9154 -5.9413,-5.9156 -1.1251,10e-5 -2.1739,0.3259 -3.0699,0.8703 z"
         id="path3490" />
      <path
         inkscape:connector-curvature="0"
         style="fill:#ffecd9;fill-opacity:1;stroke:none;display:inline"
         d="m 1189.5307,1085.2443 c -3.5502,2.0497 -6.4225,4.8078 -8.55,8.0035 l 7.2755,4.3515 c 1.4042,-2.0019 3.2357,-3.7446 5.4932,-5.048 7.8341,-4.523 17.7342,-2.2283 22.8296,5.042 l 7.2446,-4.327 c -3.6249,-5.4469 -9.0388,-9.11 -14.9899,-10.6507 -1.526,1.8642 -3.8265,3.0597 -6.4246,3.0597 -2.6019,0 -4.9298,-1.1886 -6.4558,-3.0566 -2.1999,0.5702 -4.3581,1.4336 -6.4226,2.6256 z"
         id="path3492" />
      <path
         inkscape:connector-curvature="0"
         style="fill:#fff4e5;fill-opacity:1;stroke:none;display:inline"
         d="m 1218.204,1100.4819 c 3.4659,5.1874 8.7627,9.0537 14.9687,10.6563 1.5262,-1.8723 3.8634,-3.0938 6.4688,-3.0938 2.6051,0 4.9428,1.2212 6.4687,3.0938 6.2064,-1.6026 11.5028,-5.4689 14.9688,-10.6563 l -7.2813,-4.3437 c -3.1329,4.4515 -8.297,7.375 -14.1562,7.375 -5.8583,0 -11.023,-2.9235 -14.1563,-7.375 l -7.2812,4.3437 z"
         id="path3494" />
      <path
         inkscape:connector-curvature="0"
         style="fill:#ffecd9;fill-opacity:1;stroke:none;display:inline"
         d="m 1233.704,1116.3882 c 0,3.2745 2.6629,5.9375 5.9375,5.9375 3.2735,0 5.9375,-2.663 5.9375,-5.9375 0,-3.2735 -2.664,-5.9375 -5.9375,-5.9375 -3.2746,0 -5.9375,2.664 -5.9375,5.9375 z"
         id="path3496" />
      <path
         inkscape:connector-curvature="0"
         style="fill:#fff4e5;fill-opacity:1;stroke:none;display:inline"
         d="m 1273.8164,1072.3116 c -1.7104,1.0394 -2.8613,2.8954 -2.8613,5.044 0,3.2725 2.6571,5.9586 5.9298,5.9583 3.2739,6e-4 5.9428,-2.6844 5.9427,-5.9569 -10e-5,-3.2739 -2.6673,-5.9155 -5.9413,-5.9157 -1.1251,10e-5 -2.1738,0.3259 -3.0699,0.8703 z"
         id="path3498" />
      <path
         inkscape:connector-curvature="0"
         style="fill:#ffdec6;fill-opacity:1;stroke:none;display:inline"
         d="m 1264.0094,1085.2628 c -3.5502,2.0497 -6.4225,4.8078 -8.55,8.0035 l 7.2755,4.3515 c 1.4042,-2.0018 3.2358,-3.7446 5.4932,-5.0479 7.8341,-4.523 17.7342,-2.2284 22.8296,5.042 l 7.2446,-4.327 c -3.6248,-5.447 -9.0388,-9.1101 -14.9899,-10.6508 -1.526,1.8642 -3.8264,3.0597 -6.4246,3.0597 -2.6019,0 -4.9298,-1.1885 -6.4557,-3.0566 -2.2,0.5702 -4.3582,1.4336 -6.4227,2.6256 z"
         id="path3500" />
      <path
         inkscape:connector-curvature="0"
         style="fill:#ffecd9;fill-opacity:1;stroke:none;display:inline"
         d="m 1292.6827,1100.5005 c 3.4659,5.1874 8.7627,9.0536 14.9687,10.6562 1.5262,-1.8723 3.8634,-3.0937 6.4688,-3.0937 2.6051,0 4.9428,1.2211 6.4687,3.0937 6.2064,-1.6025 11.5028,-5.4689 14.9688,-10.6562 l -7.2813,-4.3438 c -3.1329,4.4514 -8.297,7.375 -14.1562,7.375 -5.8583,0 -11.023,-2.9236 -14.1563,-7.375 l -7.2812,4.3438 z"
         id="path3502" />
      <path
         inkscape:connector-curvature="0"
         style="fill:#ffdec6;fill-opacity:1;stroke:none;display:inline"
         d="m 1308.1827,1116.4067 c 0,3.2746 2.6629,5.9375 5.9375,5.9375 3.2735,0 5.9375,-2.6629 5.9375,-5.9375 0,-3.2735 -2.664,-5.9375 -5.9375,-5.9375 -3.2746,0 -5.9375,2.664 -5.9375,5.9375 z"
         id="path3504" />
      <path
         inkscape:connector-curvature="0"
         style="fill:#ffecd9;fill-opacity:1;stroke:none;display:inline"
         d="m 1348.2951,1072.3302 c -1.7104,1.0394 -2.8613,2.8954 -2.8613,5.0439 0,3.2725 2.6571,5.9585 5.9298,5.9583 3.2739,6e-4 5.9428,-2.6845 5.9428,-5.957 -10e-5,-3.2738 -2.6674,-5.9155 -5.9413,-5.9156 -1.1251,0 -2.1738,0.3258 -3.0699,0.8703 z"
         id="path3506" />
      <path
         inkscape:connector-curvature="0"
         style="fill:#fff4e5;fill-opacity:1;stroke:none;display:inline"
         d="m 1338.4881,1085.2813 c -3.5502,2.0497 -6.4225,4.8079 -8.55,8.0036 l 7.2755,4.3515 c 1.4042,-2.0019 3.2358,-3.7446 5.4932,-5.048 7.8341,-4.523 17.7342,-2.2283 22.8296,5.042 l 7.2446,-4.327 c -3.6248,-5.447 -9.0388,-9.11 -14.9899,-10.6507 -1.526,1.8642 -3.8264,3.0597 -6.4246,3.0597 -2.6019,0 -4.9298,-1.1886 -6.4557,-3.0567 -2.2,0.5702 -4.3582,1.4337 -6.4227,2.6256 z"
         id="path3508" />
      <path
         inkscape:connector-curvature="0"
         style="fill:#ffdec6;fill-opacity:1;stroke:none;display:inline"
         d="m 1367.1614,1100.519 c 3.4659,5.1874 8.7627,9.0536 14.9687,10.6563 1.5262,-1.8723 3.8634,-3.0938 6.4688,-3.0938 2.6051,0 4.9428,1.2212 6.4687,3.0938 6.2064,-1.6026 11.5028,-5.4689 14.9688,-10.6563 l -7.2813,-4.3438 c -3.1329,4.4515 -8.297,7.375 -14.1562,7.3751 -5.8583,-1e-4 -11.023,-2.9236 -14.1563,-7.3751 l -7.2812,4.3438 z"
         id="path3510" />
      <path
         inkscape:connector-curvature="0"
         style="fill:#fff4e5;fill-opacity:1;stroke:none;display:inline"
         d="m 1382.6614,1116.4252 c 0,3.2746 2.6629,5.9375 5.9375,5.9375 3.2735,0 5.9375,-2.6629 5.9375,-5.9375 0,-3.2735 -2.664,-5.9375 -5.9375,-5.9375 -3.2746,0 -5.9375,2.664 -5.9375,5.9375 z"
         id="path3512" />
      <path
         id="path3514"
         d="m 1273.8215,1093.4974 c -1.7105,1.0394 -2.8614,2.8954 -2.8614,5.044 0,3.2724 2.6571,5.9585 5.9299,5.9583 3.2738,5e-4 5.9427,-2.6845 5.9427,-5.9569 -2e-4,-3.2739 -2.6673,-5.9155 -5.9413,-5.9157 -1.1252,0 -2.1739,0.3259 -3.0699,0.8703 z"
         style="fill:#ffdec6;fill-opacity:1;stroke:none;display:inline"
         inkscape:connector-curvature="0" />
      <path
         id="path3516"
         d="m 1264.0144,1106.4486 c -3.5502,2.0497 -6.4225,4.8078 -8.55,8.0035 l 7.2755,4.3515 c 1.4042,-2.0019 3.2358,-3.7446 5.4932,-5.0479 7.8341,-4.523 17.7342,-2.2284 22.8296,5.0419 l 7.2446,-4.327 c -3.6248,-5.4469 -9.0387,-9.11 -14.9899,-10.6507 -1.526,1.8642 -3.8264,3.0597 -6.4246,3.0597 -2.6019,0 -4.9298,-1.1886 -6.4557,-3.0566 -2.2,0.5702 -4.3582,1.4336 -6.4227,2.6256 z"
         style="fill:#ffecd9;fill-opacity:1;stroke:none;display:inline"
         inkscape:connector-curvature="0" />
      <path
         id="path3518"
         d="m 1292.6877,1121.6862 c 3.4659,5.1874 8.7627,9.0537 14.9687,10.6563 1.5262,-1.8723 3.8634,-3.0938 6.4688,-3.0938 2.6051,0 4.9428,1.2212 6.4687,3.0938 6.2064,-1.6025 11.5028,-5.4689 14.9688,-10.6563 l -7.2813,-4.3437 c -3.1329,4.4515 -8.297,7.375 -14.1562,7.375 -5.8583,0 -11.023,-2.9235 -14.1563,-7.375 l -7.2812,4.3437 z"
         style="fill:#fff4e5;fill-opacity:1;stroke:none;display:inline"
         inkscape:connector-curvature="0" />
      <path
         id="path3520"
         d="m 1308.1877,1137.5925 c 0,3.2745 2.6629,5.9375 5.9375,5.9375 3.2735,0 5.9375,-2.663 5.9375,-5.9375 0,-3.2735 -2.664,-5.9375 -5.9375,-5.9375 -3.2746,0 -5.9375,2.664 -5.9375,5.9375 z"
         style="fill:#ffecd9;fill-opacity:1;stroke:none;display:inline"
         inkscape:connector-curvature="0" />
      <path
         id="path3522"
         d="m 1348.3001,1093.5159 c -1.7104,1.0393 -2.8613,2.8954 -2.8613,5.044 0,3.2725 2.6571,5.9586 5.9298,5.9583 3.2739,6e-4 5.9428,-2.6844 5.9427,-5.9569 -10e-5,-3.2739 -2.6673,-5.9155 -5.9413,-5.9156 -1.1251,0 -2.1738,0.3258 -3.0699,0.8702 z"
         style="fill:#fff4e5;fill-opacity:1;stroke:none;display:inline"
         inkscape:connector-curvature="0" />
      <path
         id="path3524"
         d="m 1338.4931,1106.4671 c -3.5502,2.0497 -6.4225,4.8078 -8.55,8.0035 l 7.2755,4.3515 c 1.4042,-2.0018 3.2358,-3.7446 5.4932,-5.0479 7.8341,-4.523 17.7342,-2.2284 22.8296,5.042 l 7.2446,-4.327 c -3.6248,-5.447 -9.0388,-9.1101 -14.9899,-10.6508 -1.526,1.8642 -3.8264,3.0597 -6.4246,3.0598 -2.6019,-10e-5 -4.9298,-1.1886 -6.4557,-3.0567 -2.2,0.5702 -4.3582,1.4337 -6.4227,2.6256 z"
         style="fill:#ffdec6;fill-opacity:1;stroke:none;display:inline"
         inkscape:connector-curvature="0" />
      <path
         id="path3526"
         d="m 1367.1664,1121.7048 c 3.4659,5.1874 8.7627,9.0536 14.9687,10.6562 1.5262,-1.8723 3.8634,-3.0937 6.4688,-3.0937 2.6051,0 4.9428,1.2211 6.4687,3.0937 6.2064,-1.6025 11.5028,-5.4688 14.9688,-10.6562 l -7.2813,-4.3438 c -3.1329,4.4515 -8.297,7.375 -14.1562,7.375 -5.8583,0 -11.023,-2.9235 -14.1563,-7.375 l -7.2812,4.3438 z"
         style="fill:#ffecd9;fill-opacity:1;stroke:none;display:inline"
         inkscape:connector-curvature="0" />
      <path
         id="path3528"
         d="m 1382.6664,1137.611 c 0,3.2746 2.6629,5.9375 5.9375,5.9375 3.2735,0 5.9375,-2.6629 5.9375,-5.9375 0,-3.2735 -2.664,-5.9375 -5.9375,-5.9375 -3.2746,0 -5.9375,2.664 -5.9375,5.9375 z"
         style="fill:#ffdec6;fill-opacity:1;stroke:none;display:inline"
         inkscape:connector-curvature="0" />
      <path
         id="path3530"
         d="m 1422.7788,1093.5345 c -1.7104,1.0394 -2.8613,2.8954 -2.8613,5.0439 0,3.2725 2.6571,5.9586 5.9298,5.9584 3.2739,5e-4 5.9428,-2.6845 5.9428,-5.9571 -10e-5,-3.2737 -2.6674,-5.9155 -5.9413,-5.9156 -1.1251,0 -2.1738,0.3259 -3.0699,0.8703 z"
         style="fill:#ffecd9;fill-opacity:1;stroke:none;display:inline"
         inkscape:connector-curvature="0" />
      <path
         id="path3532"
         d="m 1412.9718,1106.4856 c -3.5502,2.0497 -6.4225,4.8079 -8.55,8.0036 l 7.2755,4.3515 c 1.4042,-2.0019 3.2358,-3.7446 5.4932,-5.048 7.8341,-4.523 17.7342,-2.2283 22.8296,5.042 l 7.2446,-4.327 c -3.6248,-5.447 -9.0388,-9.11 -14.9899,-10.6507 -1.526,1.8642 -3.8264,3.0597 -6.4246,3.0597 -2.6019,0 -4.9298,-1.1886 -6.4557,-3.0567 -2.2,0.5702 -4.3582,1.4337 -6.4227,2.6256 z"
         style="fill:#fff4e5;fill-opacity:1;stroke:none;display:inline"
         inkscape:connector-curvature="0" />
      <path
         id="path3534"
         d="m 1441.6451,1121.7233 c 3.4659,5.1874 8.7627,9.0537 14.9687,10.6563 1.5262,-1.8723 3.8634,-3.0938 6.4688,-3.0938 2.6051,0 4.9428,1.2212 6.4687,3.0938 6.2064,-1.6026 11.5028,-5.4689 14.9688,-10.6563 l -7.2813,-4.3438 c -3.1329,4.4514 -8.297,7.375 -14.1562,7.375 -5.8583,0 -11.023,-2.9236 -14.1563,-7.375 l -7.2812,4.3438 z"
         style="fill:#ffdec6;fill-opacity:1;stroke:none;display:inline"
         inkscape:connector-curvature="0" />
      <path
         id="path3536"
         d="m 1457.1451,1137.6295 c 0,3.2746 2.6629,5.9376 5.9375,5.9376 3.2735,0 5.9375,-2.663 5.9375,-5.9376 0,-3.2734 -2.664,-5.9375 -5.9375,-5.9374 -3.2746,-10e-5 -5.9375,2.664 -5.9375,5.9374 z"
         style="fill:#fff4e5;fill-opacity:1;stroke:none;display:inline"
         inkscape:connector-curvature="0" />
      <path
         inkscape:connector-curvature="0"
         style="fill:#ffdec6;fill-opacity:1;stroke:none;display:inline"
         d="m 1348.3052,1114.7017 c -1.7105,1.0394 -2.8614,2.8954 -2.8614,5.044 10e-5,3.2725 2.6571,5.9585 5.9299,5.9583 3.2739,5e-4 5.9427,-2.6844 5.9427,-5.9569 -2e-4,-3.2739 -2.6673,-5.9155 -5.9413,-5.9157 -1.1252,10e-5 -2.1739,0.3259 -3.0699,0.8703 z"
         id="path3538" />
      <path
         inkscape:connector-curvature="0"
         style="fill:#ffecd9;fill-opacity:1;stroke:none;display:inline"
         d="m 1338.4981,1127.6529 c -3.5502,2.0497 -6.4225,4.8078 -8.55,8.0035 l 7.2755,4.3515 c 1.4042,-2.0019 3.2358,-3.7446 5.4933,-5.0479 7.834,-4.523 17.7341,-2.2284 22.8295,5.0419 l 7.2446,-4.327 c -3.6248,-5.4469 -9.0387,-9.11 -14.9899,-10.6507 -1.5259,1.8642 -3.8264,3.0597 -6.4246,3.0597 -2.6019,0 -4.9297,-1.1885 -6.4557,-3.0566 -2.1999,0.5702 -4.3582,1.4336 -6.4227,2.6256 z"
         id="path3540" />
      <path
         inkscape:connector-curvature="0"
         style="fill:#fff4e5;fill-opacity:1;stroke:none;display:inline"
         d="m 1367.1714,1142.8905 c 3.4659,5.1875 8.7627,9.0537 14.9687,10.6563 1.5262,-1.8723 3.8634,-3.0938 6.4688,-3.0938 2.6051,0 4.9428,1.2212 6.4687,3.0938 6.2064,-1.6025 11.5028,-5.4688 14.9688,-10.6563 l -7.2813,-4.3437 c -3.1329,4.4515 -8.297,7.375 -14.1562,7.375 -5.8583,0 -11.023,-2.9235 -14.1563,-7.375 l -7.2812,4.3437 z"
         id="path3550" />
      <path
         inkscape:connector-curvature="0"
         style="fill:#ffecd9;fill-opacity:1;stroke:none;display:inline"
         d="m 1382.6714,1158.7968 c 0,3.2745 2.6629,5.9375 5.9375,5.9375 3.2735,0 5.9375,-2.663 5.9375,-5.9375 0,-3.2735 -2.664,-5.9375 -5.9375,-5.9375 -3.2746,0 -5.9375,2.664 -5.9375,5.9375 z"
         id="path3552" />
      <path
         inkscape:connector-curvature="0"
         style="fill:#fff4e5;fill-opacity:1;stroke:none;display:inline"
         d="m 1422.7838,1114.7203 c -1.7104,1.0393 -2.8613,2.8954 -2.8613,5.0439 0,3.2725 2.6571,5.9586 5.9298,5.9583 3.2739,6e-4 5.9428,-2.6845 5.9427,-5.9569 -10e-5,-3.2739 -2.6673,-5.9155 -5.9413,-5.9156 -1.1251,0 -2.1738,0.3258 -3.0699,0.8702 z"
         id="path3554" />
      <path
         inkscape:connector-curvature="0"
         style="fill:#ffdec6;fill-opacity:1;stroke:none;display:inline"
         d="m 1412.9768,1127.6714 c -3.5502,2.0497 -6.4225,4.8078 -8.55,8.0035 l 7.2755,4.3515 c 1.4042,-2.0018 3.2358,-3.7445 5.4932,-5.0479 7.8341,-4.523 17.7342,-2.2283 22.8296,5.042 l 7.2446,-4.327 c -3.6248,-5.447 -9.0388,-9.1102 -14.9899,-10.6508 -1.526,1.8642 -3.8264,3.0598 -6.4246,3.0598 -2.6019,-10e-5 -4.9298,-1.1886 -6.4557,-3.0567 -2.2,0.5702 -4.3582,1.4337 -6.4227,2.6256 z"
         id="path3556" />
      <path
         inkscape:connector-curvature="0"
         style="fill:#ffecd9;fill-opacity:1;stroke:none;display:inline"
         d="m 1441.6501,1142.9091 c 3.4659,5.1874 8.7627,9.0536 14.9687,10.6561 1.5262,-1.8723 3.8634,-3.0936 6.4688,-3.0936 2.6051,0 4.9428,1.2212 6.4687,3.0936 6.2064,-1.6024 11.5028,-5.4688 14.9688,-10.6561 l -7.2813,-4.3439 c -3.1329,4.4515 -8.297,7.375 -14.1562,7.375 -5.8583,0 -11.023,-2.9235 -14.1563,-7.375 l -7.2812,4.3439 z"
         id="path3558" />
      <path
         inkscape:connector-curvature="0"
         style="fill:#ffdec6;fill-opacity:1;stroke:none;display:inline"
         d="m 1457.1501,1158.8153 c 0,3.2746 2.6629,5.9375 5.9375,5.9375 3.2735,0 5.9375,-2.6629 5.9375,-5.9375 0,-3.2735 -2.664,-5.9375 -5.9375,-5.9375 -3.2746,0 -5.9375,2.664 -5.9375,5.9375 z"
         id="path3560" />
      <path
         inkscape:connector-curvature="0"
         style="fill:#ffecd9;fill-opacity:1;stroke:none;display:inline"
         d="m 1497.2625,1114.7388 c -1.7104,1.0393 -2.8613,2.8954 -2.8613,5.0438 0,3.2726 2.6571,5.9586 5.9298,5.9584 3.2739,6e-4 5.9428,-2.6845 5.9428,-5.957 -10e-5,-3.2738 -2.6674,-5.9155 -5.9413,-5.9156 -1.1251,0 -2.1738,0.3258 -3.0699,0.8703 z"
         id="path3562" />
      <path
         inkscape:connector-curvature="0"
         style="fill:#fff4e5;fill-opacity:1;stroke:none;display:inline"
         d="m 1487.4555,1127.69 c -3.5502,2.0497 -6.4225,4.8078 -8.55,8.0035 l 7.2755,4.3515 c 1.4042,-2.0019 3.2358,-3.7446 5.4932,-5.048 7.8341,-4.523 17.7342,-2.2283 22.8296,5.042 l 7.2446,-4.327 c -3.6248,-5.447 -9.0388,-9.11 -14.9899,-10.6507 -1.526,1.8642 -3.8264,3.0597 -6.4246,3.0597 -2.6019,0 -4.9298,-1.1886 -6.4557,-3.0566 -2.2,0.5702 -4.3582,1.4336 -6.4227,2.6256 z"
         id="path3564" />
      <path
         inkscape:connector-curvature="0"
         style="fill:#ffdec6;fill-opacity:1;stroke:none;display:inline"
         d="m 1516.1288,1142.9276 c 3.4659,5.1874 8.7627,9.0537 14.9687,10.6563 1.5262,-1.8723 3.8634,-3.0938 6.4688,-3.0938 2.6051,0 4.9428,1.2212 6.4687,3.0938 6.2064,-1.6026 11.5028,-5.4689 14.9688,-10.6563 l -7.2813,-4.3437 c -3.1329,4.4515 -8.297,7.375 -14.1562,7.375 -5.8583,0 -11.023,-2.9235 -14.1563,-7.375 l -7.2812,4.3437 z"
         id="path3566" />
      <path
         inkscape:connector-curvature="0"
         style="fill:#fff4e5;fill-opacity:1;stroke:none;display:inline"
         d="m 1531.6288,1158.8339 c 0,3.2745 2.6629,5.9375 5.9375,5.9375 3.2735,0 5.9375,-2.663 5.9375,-5.9375 0,-3.2735 -2.664,-5.9375 -5.9375,-5.9375 -3.2746,0 -5.9375,2.664 -5.9375,5.9375 z"
         id="path3568" />
      <path
         inkscape:connector-curvature="0"
         style="fill:#ffdec6;fill-opacity:1;stroke:none;display:inline"
         d="m 975.90163,1072.256 c -1.71047,1.0394 -2.86135,2.8954 -2.86138,5.044 5e-5,3.2724 2.65712,5.9585 5.92987,5.9583 3.27389,5e-4 5.94276,-2.6845 5.94271,-5.957 -1.6e-4,-3.2738 -2.66731,-5.9154 -5.94131,-5.9156 -1.12515,10e-5 -2.17387,0.3259 -3.06989,0.8703 z"
         id="path3652" />
      <path
         inkscape:connector-curvature="0"
         style="fill:#ffecd9;fill-opacity:1;stroke:none;display:inline"
         d="m 966.09456,1085.2072 c -3.55018,2.0497 -6.4225,4.8078 -8.54998,8.0035 l 7.27548,4.3515 c 1.40421,-2.0019 3.23578,-3.7446 5.49325,-5.048 7.83407,-4.523 17.73415,-2.2283 22.82957,5.042 l 7.24462,-4.327 c -3.62485,-5.4469 -9.03877,-9.11 -14.98992,-10.6507 -1.52597,1.8642 -3.82643,3.0597 -6.42462,3.0597 -2.6019,0 -4.92974,-1.1886 -6.45572,-3.0566 -2.19994,0.5702 -4.35816,1.4336 -6.42268,2.6256 z"
         id="path3654" />
      <path
         inkscape:connector-curvature="0"
         style="fill:#fff4e5;fill-opacity:1;stroke:none;display:inline"
         d="m 994.76789,1100.4448 c 3.4659,5.1874 8.76271,9.0537 14.96871,10.6563 1.5262,-1.8723 3.8634,-3.0938 6.4688,-3.0938 2.6051,0 4.9428,1.2212 6.4687,3.0938 6.2064,-1.6026 11.5028,-5.4689 14.9688,-10.6563 l -7.2813,-4.3437 c -3.1329,4.4515 -8.297,7.375 -14.1562,7.375 -5.8583,0 -11.023,-2.9235 -14.1563,-7.375 l -7.28121,4.3437 z"
         id="path3656" />
      <path
         inkscape:connector-curvature="0"
         style="fill:#ffecd9;fill-opacity:1;stroke:none;display:inline"
         d="m 1010.2679,1116.3511 c 0,3.2745 2.6629,5.9375 5.9375,5.9375 3.2735,0 5.9375,-2.663 5.9375,-5.9375 0,-3.2735 -2.664,-5.9375 -5.9375,-5.9375 -3.2746,0 -5.9375,2.664 -5.9375,5.9375 z"
         id="path3658" />
      <path
         inkscape:connector-curvature="0"
         style="fill:#fff4e5;fill-opacity:1;stroke:none;display:inline"
         d="m 1050.3803,1072.2745 c -1.7104,1.0394 -2.8613,2.8954 -2.8613,5.044 0,3.2725 2.6571,5.9586 5.9298,5.9583 3.2739,6e-4 5.9428,-2.6844 5.9427,-5.9569 -10e-5,-3.2739 -2.6673,-5.9155 -5.9413,-5.9157 -1.1251,10e-5 -2.1738,0.3259 -3.0699,0.8703 z"
         id="path3660" />
      <path
         inkscape:connector-curvature="0"
         style="fill:#ffdec6;fill-opacity:1;stroke:none;display:inline"
         d="m 1040.5733,1085.2257 c -3.5502,2.0497 -6.4225,4.8078 -8.55,8.0035 l 7.2755,4.3515 c 1.4042,-2.0018 3.2358,-3.7446 5.4932,-5.0479 7.8341,-4.523 17.7342,-2.2284 22.8296,5.042 l 7.2446,-4.327 c -3.6248,-5.447 -9.0388,-9.1101 -14.9899,-10.6508 -1.526,1.8642 -3.8264,3.0597 -6.4246,3.0597 -2.6019,0 -4.9298,-1.1885 -6.4557,-3.0566 -2.2,0.5702 -4.3582,1.4336 -6.4227,2.6256 z"
         id="path3662" />
      <path
         inkscape:connector-curvature="0"
         style="fill:#ffecd9;fill-opacity:1;stroke:none;display:inline"
         d="m 1069.2466,1100.4634 c 3.4659,5.1874 8.7627,9.0536 14.9687,10.6562 1.5262,-1.8723 3.8634,-3.0937 6.4688,-3.0937 2.6051,0 4.9428,1.2211 6.4687,3.0937 6.2064,-1.6025 11.5028,-5.4688 14.9688,-10.6562 l -7.2813,-4.3438 c -3.1329,4.4515 -8.297,7.375 -14.1562,7.375 -5.8583,0 -11.023,-2.9235 -14.1563,-7.375 l -7.2812,4.3438 z"
         id="path3664" />
      <path
         inkscape:connector-curvature="0"
         style="fill:#ffdec6;fill-opacity:1;stroke:none;display:inline"
         d="m 1084.7466,1116.3696 c 0,3.2746 2.6629,5.9375 5.9375,5.9375 3.2735,0 5.9375,-2.6629 5.9375,-5.9375 0,-3.2735 -2.664,-5.9375 -5.9375,-5.9375 -3.2746,0 -5.9375,2.664 -5.9375,5.9375 z"
         id="path3666" />
      <path
         inkscape:connector-curvature="0"
         style="fill:#ffecd9;fill-opacity:1;stroke:none;display:inline"
         d="m 1124.859,1072.2931 c -1.7104,1.0394 -2.8613,2.8954 -2.8613,5.0439 0,3.2725 2.6571,5.9586 5.9298,5.9584 3.2739,5e-4 5.9428,-2.6845 5.9428,-5.957 -10e-5,-3.2738 -2.6674,-5.9155 -5.9413,-5.9156 -1.1251,0 -2.1738,0.3258 -3.0699,0.8703 z"
         id="path3668" />
      <path
         inkscape:connector-curvature="0"
         style="fill:#fff4e5;fill-opacity:1;stroke:none;display:inline"
         d="m 1115.052,1085.2442 c -3.5502,2.0497 -6.4225,4.8079 -8.55,8.0036 l 7.2755,4.3515 c 1.4042,-2.0019 3.2358,-3.7446 5.4932,-5.048 7.8341,-4.523 17.7342,-2.2283 22.8296,5.042 l 7.2446,-4.327 c -3.6248,-5.447 -9.0388,-9.11 -14.9899,-10.6507 -1.526,1.8642 -3.8264,3.0597 -6.4246,3.0597 -2.6019,0 -4.9298,-1.1886 -6.4557,-3.0567 -2.2,0.5702 -4.3582,1.4337 -6.4227,2.6256 z"
         id="path3670" />
      <path
         inkscape:connector-curvature="0"
         style="fill:#ffdec6;fill-opacity:1;stroke:none;display:inline"
         d="m 1143.7253,1100.4819 c 3.4659,5.1874 8.7627,9.0536 14.9687,10.6563 1.5262,-1.8723 3.8634,-3.0938 6.4688,-3.0938 2.6051,0 4.9428,1.2212 6.4687,3.0938 6.2064,-1.6026 11.5028,-5.4689 14.9688,-10.6563 l -7.2813,-4.3438 c -3.1329,4.4515 -8.297,7.375 -14.1562,7.3751 -5.8583,-1e-4 -11.023,-2.9236 -14.1563,-7.3751 l -7.2812,4.3438 z"
         id="path3672" />
      <path
         inkscape:connector-curvature="0"
         style="fill:#fff4e5;fill-opacity:1;stroke:none;display:inline"
         d="m 1159.2253,1116.3881 c 0,3.2746 2.6629,5.9375 5.9375,5.9375 3.2735,0 5.9375,-2.6629 5.9375,-5.9375 0,-3.2735 -2.664,-5.9375 -5.9375,-5.9375 -3.2746,0 -5.9375,2.664 -5.9375,5.9375 z"
         id="path3674" />
      <path
         id="path3676"
         d="m 1050.3854,1093.4603 c -1.7105,1.0394 -2.8614,2.8954 -2.8614,5.044 0,3.2724 2.6571,5.9585 5.9299,5.9583 3.2738,5e-4 5.9427,-2.6845 5.9427,-5.9569 -2e-4,-3.2739 -2.6673,-5.9155 -5.9413,-5.9157 -1.1252,0 -2.1739,0.3259 -3.0699,0.8703 z"
         style="fill:#ffdec6;fill-opacity:1;stroke:none;display:inline"
         inkscape:connector-curvature="0" />
      <path
         id="path3678"
         d="m 1040.5783,1106.4115 c -3.5502,2.0497 -6.4225,4.8078 -8.55,8.0035 l 7.2755,4.3515 c 1.4042,-2.0019 3.2358,-3.7446 5.4932,-5.0479 7.8341,-4.523 17.7342,-2.2284 22.8296,5.0419 l 7.2446,-4.327 c -3.6248,-5.4469 -9.0387,-9.11 -14.9899,-10.6507 -1.526,1.8642 -3.8264,3.0597 -6.4246,3.0597 -2.6019,0 -4.9298,-1.1886 -6.4557,-3.0566 -2.2,0.5702 -4.3582,1.4336 -6.4227,2.6256 z"
         style="fill:#ffecd9;fill-opacity:1;stroke:none;display:inline"
         inkscape:connector-curvature="0" />
      <path
         id="path3680"
         d="m 1069.2516,1121.6491 c 3.4659,5.1874 8.7627,9.0537 14.9687,10.6563 1.5262,-1.8723 3.8634,-3.0938 6.4688,-3.0938 2.6051,0 4.9428,1.2212 6.4687,3.0938 6.2064,-1.6025 11.5028,-5.4689 14.9688,-10.6563 l -7.2813,-4.3437 c -3.1329,4.4515 -8.297,7.375 -14.1562,7.375 -5.8583,0 -11.023,-2.9235 -14.1563,-7.375 l -7.2812,4.3437 z"
         style="fill:#fff4e5;fill-opacity:1;stroke:none;display:inline"
         inkscape:connector-curvature="0" />
      <path
         id="path3682"
         d="m 1084.7516,1137.5554 c 0,3.2745 2.6629,5.9375 5.9375,5.9375 3.2735,0 5.9375,-2.663 5.9375,-5.9375 0,-3.2735 -2.664,-5.9375 -5.9375,-5.9375 -3.2746,0 -5.9375,2.664 -5.9375,5.9375 z"
         style="fill:#ffecd9;fill-opacity:1;stroke:none;display:inline"
         inkscape:connector-curvature="0" />
      <path
         id="path3684"
         d="m 1124.864,1093.4788 c -1.7104,1.0394 -2.8613,2.8954 -2.8613,5.044 0,3.2725 2.6571,5.9586 5.9298,5.9583 3.2739,6e-4 5.9428,-2.6844 5.9427,-5.9569 -10e-5,-3.2739 -2.6673,-5.9155 -5.9413,-5.9156 -1.1251,0 -2.1738,0.3258 -3.0699,0.8702 z"
         style="fill:#fff4e5;fill-opacity:1;stroke:none;display:inline"
         inkscape:connector-curvature="0" />
      <path
         id="path3686"
         d="m 1115.057,1106.43 c -3.5502,2.0497 -6.4225,4.8078 -8.55,8.0035 l 7.2755,4.3515 c 1.4042,-2.0018 3.2358,-3.7446 5.4932,-5.0479 7.8341,-4.523 17.7342,-2.2284 22.8296,5.042 l 7.2446,-4.327 c -3.6248,-5.447 -9.0388,-9.1101 -14.9899,-10.6508 -1.526,1.8642 -3.8264,3.0597 -6.4246,3.0598 -2.6019,-10e-5 -4.9298,-1.1886 -6.4557,-3.0567 -2.2,0.5702 -4.3582,1.4337 -6.4227,2.6256 z"
         style="fill:#ffdec6;fill-opacity:1;stroke:none;display:inline"
         inkscape:connector-curvature="0" />
      <path
         id="path3688"
         d="m 1143.7303,1121.6677 c 3.4659,5.1874 8.7627,9.0536 14.9687,10.6562 1.5262,-1.8723 3.8634,-3.0937 6.4688,-3.0937 2.6051,0 4.9428,1.2211 6.4687,3.0937 6.2064,-1.6025 11.5028,-5.4688 14.9688,-10.6562 l -7.2813,-4.3438 c -3.1329,4.4515 -8.297,7.375 -14.1562,7.375 -5.8583,0 -11.023,-2.9235 -14.1563,-7.375 l -7.2812,4.3438 z"
         style="fill:#ffecd9;fill-opacity:1;stroke:none;display:inline"
         inkscape:connector-curvature="0" />
      <path
         id="path3690"
         d="m 1159.2303,1137.5739 c 0,3.2746 2.6629,5.9375 5.9375,5.9375 3.2735,0 5.9375,-2.6629 5.9375,-5.9375 0,-3.2735 -2.664,-5.9375 -5.9375,-5.9375 -3.2746,0 -5.9375,2.664 -5.9375,5.9375 z"
         style="fill:#ffdec6;fill-opacity:1;stroke:none;display:inline"
         inkscape:connector-curvature="0" />
      <path
         id="path3692"
         d="m 1199.3427,1093.4974 c -1.7104,1.0394 -2.8613,2.8954 -2.8613,5.0439 0,3.2725 2.6571,5.9586 5.9298,5.9584 3.2739,5e-4 5.9428,-2.6845 5.9428,-5.957 -10e-5,-3.2738 -2.6674,-5.9155 -5.9413,-5.9156 -1.1251,0 -2.1738,0.3258 -3.0699,0.8703 z"
         style="fill:#ffecd9;fill-opacity:1;stroke:none;display:inline"
         inkscape:connector-curvature="0" />
      <path
         id="path3694"
         d="m 1189.5357,1106.4485 c -3.5502,2.0497 -6.4225,4.8079 -8.55,8.0036 l 7.2755,4.3515 c 1.4042,-2.0019 3.2358,-3.7446 5.4932,-5.048 7.8341,-4.523 17.7342,-2.2283 22.8296,5.042 l 7.2446,-4.327 c -3.6248,-5.447 -9.0388,-9.11 -14.9899,-10.6507 -1.526,1.8642 -3.8264,3.0597 -6.4246,3.0597 -2.6019,0 -4.9298,-1.1886 -6.4557,-3.0567 -2.2,0.5702 -4.3582,1.4337 -6.4227,2.6256 z"
         style="fill:#fff4e5;fill-opacity:1;stroke:none;display:inline"
         inkscape:connector-curvature="0" />
      <path
         id="path3696"
         d="m 1218.209,1121.6862 c 3.4659,5.1874 8.7627,9.0537 14.9687,10.6563 1.5262,-1.8723 3.8634,-3.0938 6.4688,-3.0938 2.6051,0 4.9428,1.2212 6.4687,3.0938 6.2064,-1.6026 11.5028,-5.4689 14.9688,-10.6563 l -7.2813,-4.3438 c -3.1329,4.4515 -8.297,7.375 -14.1562,7.3751 -5.8583,-10e-5 -11.023,-2.9236 -14.1563,-7.3751 l -7.2812,4.3438 z"
         style="fill:#ffdec6;fill-opacity:1;stroke:none;display:inline"
         inkscape:connector-curvature="0" />
      <path
         id="path3698"
         d="m 1233.709,1137.5924 c 0,3.2746 2.6629,5.9376 5.9375,5.9376 3.2735,0 5.9375,-2.663 5.9375,-5.9376 0,-3.2734 -2.664,-5.9375 -5.9375,-5.9374 -3.2746,-10e-5 -5.9375,2.664 -5.9375,5.9374 z"
         style="fill:#fff4e5;fill-opacity:1;stroke:none;display:inline"
         inkscape:connector-curvature="0" />
      <path
         inkscape:connector-curvature="0"
         style="fill:#ffdec6;fill-opacity:1;stroke:none;display:inline"
         d="m 1124.8691,1114.6646 c -1.7105,1.0394 -2.8614,2.8954 -2.8614,5.044 10e-5,3.2725 2.6571,5.9585 5.9299,5.9583 3.2739,5e-4 5.9427,-2.6844 5.9427,-5.9569 -2e-4,-3.2739 -2.6673,-5.9155 -5.9413,-5.9157 -1.1252,10e-5 -2.1739,0.3259 -3.0699,0.8703 z"
         id="path3700" />
      <path
         inkscape:connector-curvature="0"
         style="fill:#ffecd9;fill-opacity:1;stroke:none;display:inline"
         d="m 1115.062,1127.6158 c -3.5502,2.0497 -6.4225,4.8078 -8.55,8.0035 l 7.2755,4.3515 c 1.4042,-2.0019 3.2358,-3.7446 5.4933,-5.0479 7.834,-4.523 17.7341,-2.2284 22.8295,5.0419 l 7.2446,-4.327 c -3.6248,-5.4469 -9.0387,-9.11 -14.9899,-10.6507 -1.5259,1.8642 -3.8264,3.0597 -6.4246,3.0597 -2.6019,0 -4.9297,-1.1885 -6.4557,-3.0566 -2.1999,0.5702 -4.3582,1.4336 -6.4227,2.6256 z"
         id="path3702" />
      <path
         inkscape:connector-curvature="0"
         style="fill:#fff4e5;fill-opacity:1;stroke:none;display:inline"
         d="m 1143.7353,1142.8534 c 3.4659,5.1875 8.7627,9.0537 14.9687,10.6563 1.5262,-1.8723 3.8634,-3.0938 6.4688,-3.0938 2.6051,0 4.9428,1.2212 6.4687,3.0938 6.2064,-1.6025 11.5028,-5.4688 14.9688,-10.6563 l -7.2813,-4.3437 c -3.1329,4.4515 -8.297,7.375 -14.1562,7.375 -5.8583,0 -11.023,-2.9235 -14.1563,-7.375 l -7.2812,4.3437 z"
         id="path3704" />
      <path
         inkscape:connector-curvature="0"
         style="fill:#ffecd9;fill-opacity:1;stroke:none;display:inline"
         d="m 1159.2353,1158.7597 c 0,3.2745 2.6629,5.9375 5.9375,5.9375 3.2735,0 5.9375,-2.663 5.9375,-5.9375 0,-3.2735 -2.664,-5.9375 -5.9375,-5.9375 -3.2746,0 -5.9375,2.664 -5.9375,5.9375 z"
         id="path3706" />
      <path
         inkscape:connector-curvature="0"
         style="fill:#fff4e5;fill-opacity:1;stroke:none;display:inline"
         d="m 1199.3477,1114.6832 c -1.7104,1.0393 -2.8613,2.8954 -2.8613,5.0439 0,3.2725 2.6571,5.9586 5.9298,5.9583 3.2739,6e-4 5.9428,-2.6844 5.9427,-5.9569 -10e-5,-3.2739 -2.6673,-5.9155 -5.9413,-5.9156 -1.1251,0 -2.1738,0.3258 -3.0699,0.8702 z"
         id="path3708" />
      <path
         inkscape:connector-curvature="0"
         style="fill:#ffdec6;fill-opacity:1;stroke:none;display:inline"
         d="m 1189.5407,1127.6343 c -3.5502,2.0497 -6.4225,4.8078 -8.55,8.0035 l 7.2755,4.3515 c 1.4042,-2.0018 3.2358,-3.7445 5.4932,-5.0479 7.8341,-4.523 17.7342,-2.2283 22.8296,5.042 l 7.2446,-4.327 c -3.6248,-5.447 -9.0388,-9.1101 -14.9899,-10.6508 -1.526,1.8642 -3.8264,3.0598 -6.4246,3.0598 -2.6019,-10e-5 -4.9298,-1.1886 -6.4557,-3.0567 -2.2,0.5702 -4.3582,1.4337 -6.4227,2.6256 z"
         id="path3710" />
      <path
         inkscape:connector-curvature="0"
         style="fill:#ffecd9;fill-opacity:1;stroke:none;display:inline"
         d="m 1218.214,1142.872 c 3.4659,5.1874 8.7627,9.0536 14.9687,10.6562 1.5262,-1.8723 3.8634,-3.0937 6.4688,-3.0937 2.6051,0 4.9428,1.2212 6.4687,3.0937 6.2064,-1.6025 11.5028,-5.4688 14.9688,-10.6562 l -7.2813,-4.3438 c -3.1329,4.4515 -8.297,7.375 -14.1562,7.375 -5.8583,0 -11.023,-2.9235 -14.1563,-7.375 l -7.2812,4.3438 z"
         id="path3712" />
      <path
         inkscape:connector-curvature="0"
         style="fill:#ffdec6;fill-opacity:1;stroke:none;display:inline"
         d="m 1233.714,1158.7782 c 0,3.2746 2.6629,5.9375 5.9375,5.9375 3.2735,0 5.9375,-2.6629 5.9375,-5.9375 0,-3.2735 -2.664,-5.9375 -5.9375,-5.9375 -3.2746,0 -5.9375,2.664 -5.9375,5.9375 z"
         id="path3714" />
      <path
         inkscape:connector-curvature="0"
         style="fill:#ffecd9;fill-opacity:1;stroke:none;display:inline"
         d="m 1273.8264,1114.7017 c -1.7104,1.0394 -2.8613,2.8954 -2.8613,5.0439 0,3.2725 2.6571,5.9586 5.9298,5.9584 3.2739,5e-4 5.9428,-2.6845 5.9428,-5.957 -10e-5,-3.2738 -2.6674,-5.9155 -5.9413,-5.9156 -1.1251,0 -2.1738,0.3258 -3.0699,0.8703 z"
         id="path3716" />
      <path
         inkscape:connector-curvature="0"
         style="fill:#fff4e5;fill-opacity:1;stroke:none;display:inline"
         d="m 1264.0194,1127.6529 c -3.5502,2.0497 -6.4225,4.8078 -8.55,8.0035 l 7.2755,4.3515 c 1.4042,-2.0019 3.2358,-3.7446 5.4932,-5.048 7.8341,-4.523 17.7342,-2.2283 22.8296,5.042 l 7.2446,-4.327 c -3.6248,-5.447 -9.0388,-9.11 -14.9899,-10.6507 -1.526,1.8642 -3.8264,3.0597 -6.4246,3.0597 -2.6019,0 -4.9298,-1.1886 -6.4557,-3.0566 -2.2,0.5702 -4.3582,1.4336 -6.4227,2.6256 z"
         id="path3718" />
      <path
         inkscape:connector-curvature="0"
         style="fill:#ffdec6;fill-opacity:1;stroke:none;display:inline"
         d="m 1292.6927,1142.8905 c 3.4659,5.1874 8.7627,9.0537 14.9687,10.6563 1.5262,-1.8723 3.8634,-3.0938 6.4688,-3.0938 2.6051,0 4.9428,1.2212 6.4687,3.0938 6.2064,-1.6026 11.5028,-5.4689 14.9688,-10.6563 l -7.2813,-4.3437 c -3.1329,4.4515 -8.297,7.375 -14.1562,7.375 -5.8583,0 -11.023,-2.9235 -14.1563,-7.375 l -7.2812,4.3437 z"
         id="path3720" />
      <path
         inkscape:connector-curvature="0"
         style="fill:#fff4e5;fill-opacity:1;stroke:none;display:inline"
         d="m 1308.1927,1158.7968 c 0,3.2745 2.6629,5.9375 5.9375,5.9375 3.2735,0 5.9375,-2.663 5.9375,-5.9375 0,-3.2735 -2.664,-5.9375 -5.9375,-5.9375 -3.2746,0 -5.9375,2.664 -5.9375,5.9375 z"
         id="path3722" />
      <path
         id="path3740"
         d="m 901.42292,1072.3302 c -1.7104,1.0394 -2.8613,2.8954 -2.8613,5.0439 0,3.2725 2.6571,5.9585 5.9298,5.9583 3.2739,6e-4 5.9428,-2.6845 5.9428,-5.957 -10e-5,-3.2738 -2.6674,-5.9155 -5.9413,-5.9156 -1.1251,0 -2.1738,0.3258 -3.0699,0.8703 z"
         style="fill:#ffecd9;fill-opacity:1;stroke:none;display:inline"
         inkscape:connector-curvature="0" />
      <path
         id="path3742"
         d="m 891.61592,1085.2813 c -3.5502,2.0497 -6.4225,4.8079 -8.55,8.0036 l 7.2755,4.3515 c 1.4042,-2.0019 3.2358,-3.7446 5.4932,-5.048 7.8341,-4.523 17.7342,-2.2283 22.8296,5.042 l 7.2446,-4.327 c -3.6248,-5.447 -9.0388,-9.11 -14.9899,-10.6507 -1.526,1.8642 -3.8264,3.0597 -6.4246,3.0597 -2.6019,0 -4.9298,-1.1886 -6.4557,-3.0567 -2.2,0.5702 -4.3582,1.4337 -6.4227,2.6256 z"
         style="fill:#fff4e5;fill-opacity:1;stroke:none;display:inline"
         inkscape:connector-curvature="0" />
      <path
         id="path3744"
         d="m 920.28922,1100.519 c 3.4659,5.1874 8.7627,9.0536 14.9687,10.6563 1.5262,-1.8723 3.8634,-3.0938 6.4688,-3.0938 2.6051,0 4.9428,1.2212 6.4687,3.0938 6.2064,-1.6026 11.5028,-5.4689 14.9688,-10.6563 l -7.2813,-4.3438 c -3.1329,4.4515 -8.297,7.375 -14.1562,7.3751 -5.8583,-1e-4 -11.023,-2.9236 -14.1563,-7.3751 l -7.2812,4.3438 z"
         style="fill:#ffdec6;fill-opacity:1;stroke:none;display:inline"
         inkscape:connector-curvature="0" />
      <path
         id="path3746"
         d="m 935.78922,1116.4252 c 0,3.2746 2.6629,5.9375 5.9375,5.9375 3.2735,0 5.9375,-2.6629 5.9375,-5.9375 0,-3.2735 -2.664,-5.9375 -5.9375,-5.9375 -3.2746,0 -5.9375,2.664 -5.9375,5.9375 z"
         style="fill:#fff4e5;fill-opacity:1;stroke:none;display:inline"
         inkscape:connector-curvature="0" />
      <path
         inkscape:connector-curvature="0"
         style="fill:#fff4e5;fill-opacity:1;stroke:none;display:inline"
         d="m 901.42792,1093.5159 c -1.7104,1.0393 -2.8613,2.8954 -2.8613,5.044 0,3.2725 2.6571,5.9586 5.9298,5.9583 3.2739,6e-4 5.9428,-2.6844 5.9427,-5.9569 -10e-5,-3.2739 -2.6673,-5.9155 -5.9413,-5.9156 -1.1251,0 -2.1738,0.3258 -3.0699,0.8702 z"
         id="path3756" />
      <path
         inkscape:connector-curvature="0"
         style="fill:#ffdec6;fill-opacity:1;stroke:none;display:inline"
         d="m 891.62092,1106.4671 c -3.5502,2.0497 -6.4225,4.8078 -8.55,8.0035 l 7.2755,4.3515 c 1.4042,-2.0018 3.2358,-3.7446 5.4932,-5.0479 7.8341,-4.523 17.7342,-2.2284 22.8296,5.042 l 7.2446,-4.327 c -3.6248,-5.447 -9.0388,-9.1101 -14.9899,-10.6508 -1.526,1.8642 -3.8264,3.0597 -6.4246,3.0598 -2.6019,-10e-5 -4.9298,-1.1886 -6.4557,-3.0567 -2.2,0.5702 -4.3582,1.4337 -6.4227,2.6256 z"
         id="path3758" />
      <path
         inkscape:connector-curvature="0"
         style="fill:#ffecd9;fill-opacity:1;stroke:none;display:inline"
         d="m 920.29422,1121.7048 c 3.4659,5.1874 8.7627,9.0536 14.9687,10.6562 1.5262,-1.8723 3.8634,-3.0937 6.4688,-3.0937 2.6051,0 4.9428,1.2211 6.4687,3.0937 6.2064,-1.6025 11.5028,-5.4688 14.9688,-10.6562 l -7.2813,-4.3438 c -3.1329,4.4515 -8.297,7.375 -14.1562,7.375 -5.8583,0 -11.023,-2.9235 -14.1563,-7.375 l -7.2812,4.3438 z"
         id="path3760" />
      <path
         inkscape:connector-curvature="0"
         style="fill:#ffdec6;fill-opacity:1;stroke:none;display:inline"
         d="m 935.79422,1137.611 c 0,3.2746 2.6629,5.9375 5.9375,5.9375 3.2735,0 5.9375,-2.6629 5.9375,-5.9375 0,-3.2735 -2.664,-5.9375 -5.9375,-5.9375 -3.2746,0 -5.9375,2.664 -5.9375,5.9375 z"
         id="path3762" />
      <path
         inkscape:connector-curvature="0"
         style="fill:#ffecd9;fill-opacity:1;stroke:none;display:inline"
         d="m 975.90662,1093.5345 c -1.7104,1.0394 -2.8613,2.8954 -2.8613,5.0439 0,3.2725 2.6571,5.9586 5.9298,5.9584 3.2739,5e-4 5.9428,-2.6845 5.9428,-5.9571 -10e-5,-3.2737 -2.6674,-5.9155 -5.9413,-5.9156 -1.1251,0 -2.1738,0.3259 -3.0699,0.8703 z"
         id="path3764" />
      <path
         inkscape:connector-curvature="0"
         style="fill:#fff4e5;fill-opacity:1;stroke:none;display:inline"
         d="m 966.09962,1106.4856 c -3.5502,2.0497 -6.4225,4.8079 -8.55,8.0036 l 7.2755,4.3515 c 1.4042,-2.0019 3.2358,-3.7446 5.4932,-5.048 7.8341,-4.523 17.7342,-2.2283 22.8296,5.042 l 7.24458,-4.327 c -3.62478,-5.447 -9.03878,-9.11 -14.98988,-10.6507 -1.526,1.8642 -3.8264,3.0597 -6.4246,3.0597 -2.6019,0 -4.9298,-1.1886 -6.4557,-3.0567 -2.2,0.5702 -4.3582,1.4337 -6.4227,2.6256 z"
         id="path3766" />
      <path
         inkscape:connector-curvature="0"
         style="fill:#ffdec6;fill-opacity:1;stroke:none;display:inline"
         d="m 994.77292,1121.7233 c 3.46587,5.1874 8.76268,9.0537 14.96868,10.6563 1.5262,-1.8723 3.8634,-3.0938 6.4688,-3.0938 2.6051,0 4.9428,1.2212 6.4687,3.0938 6.2064,-1.6026 11.5028,-5.4689 14.9688,-10.6563 l -7.2813,-4.3438 c -3.1329,4.4514 -8.297,7.375 -14.1562,7.375 -5.8583,0 -11.023,-2.9236 -14.1563,-7.375 l -7.28118,4.3438 z"
         id="path3768" />
      <path
         inkscape:connector-curvature="0"
         style="fill:#fff4e5;fill-opacity:1;stroke:none;display:inline"
         d="m 1010.2729,1137.6295 c 0,3.2746 2.6629,5.9376 5.9375,5.9376 3.2735,0 5.9375,-2.663 5.9375,-5.9376 0,-3.2734 -2.664,-5.9375 -5.9375,-5.9374 -3.2746,-10e-5 -5.9375,2.664 -5.9375,5.9374 z"
         id="path3770" />
      <path
         id="path3772"
         d="m 901.43302,1114.7017 c -1.7105,1.0394 -2.8614,2.8954 -2.8614,5.044 10e-5,3.2725 2.6571,5.9585 5.9299,5.9583 3.2739,5e-4 5.9427,-2.6844 5.9427,-5.9569 -2e-4,-3.2739 -2.6673,-5.9155 -5.9413,-5.9157 -1.1252,10e-5 -2.1739,0.3259 -3.0699,0.8703 z"
         style="fill:#ffdec6;fill-opacity:1;stroke:none;display:inline"
         inkscape:connector-curvature="0" />
      <path
         id="path3774"
         d="m 891.62592,1127.6529 c -3.5502,2.0497 -6.4225,4.8078 -8.55,8.0035 l 7.2755,4.3515 c 1.4042,-2.0019 3.2358,-3.7446 5.4933,-5.0479 7.834,-4.523 17.7341,-2.2284 22.8295,5.0419 l 7.2446,-4.327 c -3.6248,-5.4469 -9.0387,-9.11 -14.9899,-10.6507 -1.5259,1.8642 -3.8264,3.0597 -6.4246,3.0597 -2.6019,0 -4.9297,-1.1885 -6.4557,-3.0566 -2.1999,0.5702 -4.3582,1.4336 -6.4227,2.6256 z"
         style="fill:#ffecd9;fill-opacity:1;stroke:none;display:inline"
         inkscape:connector-curvature="0" />
      <path
         id="path3784"
         d="m 920.29922,1142.8905 c 3.4659,5.1875 8.7627,9.0537 14.9687,10.6563 1.5262,-1.8723 3.8634,-3.0938 6.4688,-3.0938 2.6051,0 4.9428,1.2212 6.4687,3.0938 6.2064,-1.6025 11.5028,-5.4688 14.9688,-10.6563 l -7.2813,-4.3437 c -3.1329,4.4515 -8.297,7.375 -14.1562,7.375 -5.8583,0 -11.023,-2.9235 -14.1563,-7.375 l -7.2812,4.3437 z"
         style="fill:#fff4e5;fill-opacity:1;stroke:none;display:inline"
         inkscape:connector-curvature="0" />
      <path
         id="path3786"
         d="m 935.79922,1158.7968 c 0,3.2745 2.6629,5.9375 5.9375,5.9375 3.2735,0 5.9375,-2.663 5.9375,-5.9375 0,-3.2735 -2.664,-5.9375 -5.9375,-5.9375 -3.2746,0 -5.9375,2.664 -5.9375,5.9375 z"
         style="fill:#ffecd9;fill-opacity:1;stroke:none;display:inline"
         inkscape:connector-curvature="0" />
      <path
         id="path3788"
         d="m 975.91162,1114.7203 c -1.7104,1.0393 -2.8613,2.8954 -2.8613,5.0439 0,3.2725 2.6571,5.9586 5.9298,5.9583 3.2739,6e-4 5.9428,-2.6845 5.9427,-5.9569 -10e-5,-3.2739 -2.6673,-5.9155 -5.9413,-5.9156 -1.1251,0 -2.1738,0.3258 -3.0699,0.8702 z"
         style="fill:#fff4e5;fill-opacity:1;stroke:none;display:inline"
         inkscape:connector-curvature="0" />
      <path
         id="path3790"
         d="m 966.10462,1127.6714 c -3.5502,2.0497 -6.4225,4.8078 -8.55,8.0035 l 7.2755,4.3515 c 1.4042,-2.0018 3.2358,-3.7445 5.4932,-5.0479 7.8341,-4.523 17.7342,-2.2283 22.8296,5.042 l 7.24458,-4.327 c -3.62478,-5.447 -9.03878,-9.1102 -14.98988,-10.6508 -1.526,1.8642 -3.8264,3.0598 -6.4246,3.0598 -2.6019,-10e-5 -4.9298,-1.1886 -6.4557,-3.0567 -2.2,0.5702 -4.3582,1.4337 -6.4227,2.6256 z"
         style="fill:#ffdec6;fill-opacity:1;stroke:none;display:inline"
         inkscape:connector-curvature="0" />
      <path
         id="path3792"
         d="m 994.77792,1142.9091 c 3.46587,5.1874 8.76268,9.0536 14.96868,10.6561 1.5262,-1.8723 3.8634,-3.0936 6.4688,-3.0936 2.6051,0 4.9428,1.2212 6.4687,3.0936 6.2064,-1.6024 11.5028,-5.4688 14.9688,-10.6561 l -7.2813,-4.3439 c -3.1329,4.4515 -8.297,7.375 -14.1562,7.375 -5.8583,0 -11.023,-2.9235 -14.1563,-7.375 l -7.28118,4.3439 z"
         style="fill:#ffecd9;fill-opacity:1;stroke:none;display:inline"
         inkscape:connector-curvature="0" />
      <path
         id="path3794"
         d="m 1010.2779,1158.8153 c 0,3.2746 2.6629,5.9375 5.9375,5.9375 3.2735,0 5.9375,-2.6629 5.9375,-5.9375 0,-3.2735 -2.664,-5.9375 -5.9375,-5.9375 -3.2746,0 -5.9375,2.664 -5.9375,5.9375 z"
         style="fill:#ffdec6;fill-opacity:1;stroke:none;display:inline"
         inkscape:connector-curvature="0" />
      <path
         id="path3796"
         d="m 1050.3903,1114.7388 c -1.7104,1.0393 -2.8613,2.8954 -2.8613,5.0438 0,3.2726 2.6571,5.9586 5.9298,5.9584 3.2739,6e-4 5.9428,-2.6845 5.9428,-5.957 -10e-5,-3.2738 -2.6674,-5.9155 -5.9413,-5.9156 -1.1251,0 -2.1738,0.3258 -3.0699,0.8703 z"
         style="fill:#ffecd9;fill-opacity:1;stroke:none;display:inline"
         inkscape:connector-curvature="0" />
      <path
         id="path3798"
         d="m 1040.5833,1127.69 c -3.5502,2.0497 -6.4225,4.8078 -8.55,8.0035 l 7.2755,4.3515 c 1.4042,-2.0019 3.2358,-3.7446 5.4932,-5.048 7.8341,-4.523 17.7342,-2.2283 22.8296,5.042 l 7.2446,-4.327 c -3.6248,-5.447 -9.0388,-9.11 -14.9899,-10.6507 -1.526,1.8642 -3.8264,3.0597 -6.4246,3.0597 -2.6019,0 -4.9298,-1.1886 -6.4557,-3.0566 -2.2,0.5702 -4.3582,1.4336 -6.4227,2.6256 z"
         style="fill:#fff4e5;fill-opacity:1;stroke:none;display:inline"
         inkscape:connector-curvature="0" />
      <path
         id="path3800"
         d="m 1069.2566,1142.9276 c 3.4659,5.1874 8.7627,9.0537 14.9687,10.6563 1.5262,-1.8723 3.8634,-3.0938 6.4688,-3.0938 2.6051,0 4.9428,1.2212 6.4687,3.0938 6.2064,-1.6026 11.5028,-5.4689 14.9688,-10.6563 l -7.2813,-4.3437 c -3.1329,4.4515 -8.297,7.375 -14.1562,7.375 -5.8583,0 -11.023,-2.9235 -14.1563,-7.375 l -7.2812,4.3437 z"
         style="fill:#ffdec6;fill-opacity:1;stroke:none;display:inline"
         inkscape:connector-curvature="0" />
      <path
         id="path3802"
         d="m 1084.7566,1158.8339 c 0,3.2745 2.6629,5.9375 5.9375,5.9375 3.2735,0 5.9375,-2.663 5.9375,-5.9375 0,-3.2735 -2.664,-5.9375 -5.9375,-5.9375 -3.2746,0 -5.9375,2.664 -5.9375,5.9375 z"
         style="fill:#fff4e5;fill-opacity:1;stroke:none;display:inline"
         inkscape:connector-curvature="0" />
    </g>
    <g
       transform="matrix(-0.63442344,0,0,0.63442344,841.00228,313.74871)"
       style="fill:#fff5ec;fill-opacity:1"
       id="g18882" />
    <g
       transform="matrix(-0.63442344,0,0,0.63442344,933.30226,282.32337)"
       id="g18916"
       style="fill:#fff5ec;fill-opacity:1" />
    <text
       xml:space="preserve"
       style="font-size:37.99684143px;font-style:normal;font-variant:normal;font-weight:normal;font-stretch:normal;fill:#000000;fill-opacity:1;stroke:none;display:inline;font-family:Linux Biolinum O;-inkscape-font-specification:Linux Biolinum O"
       x="547.91986"
       y="440.15341"
       id="title"><tspan
         dx="0 -0.55877703 -0.55877703 0 -0.55877703 -1.6763312 -1.6763312 0 0 -0.55877703 -0.55877703 -1.1175541 -2.9483124e-10 -0.55877703 -0.55877703 0 0 -2.2351081 -0.55877703 -1.1175541 0 0 -2.4665613 -1.6763312 -1.6763312 -1.1175541 -1.1175541 0 -4 -2.5 -1.5 -1.5"
         sodipodi:role="line"
         id="tspan19246"
         x="547.91986"
         y="440.15341"
         style="text-align:end;text-anchor:end">Getting Started with Ubuntu .</tspan></text>
    <text
       id="team"
       y="939.80237"
       x="175.55374"
       style="font-size:19.29999924px;font-style:normal;font-variant:normal;font-weight:normal;font-stretch:normal;text-align:center;text-anchor:middle;fill:#000000;fill-opacity:1;stroke:none;display:inline;font-family:Linux Biolinum O;-inkscape-font-specification:Linux Biolinum O"
       xml:space="preserve"><tspan
         style="font-size:19.29999924px;font-style:normal;font-variant:normal;font-weight:normal;font-stretch:normal;text-align:center;text-anchor:middle;fill:#000000;fill-opacity:1;font-family:Linux Biolinum O;-inkscape-font-specification:Linux Biolinum O"
         y="939.80237"
         x="175.55374"
         id="tspan12546"
         sodipodi:role="line">The Ubuntu Manual Team</tspan></text>
    <path
       style="fill:#dd4814;fill-opacity:1;stroke:none;display:inline"
       d="m 611.03432,356.79482 c -24.86443,0 -45.03228,20.16836 -45.03228,45.03228 0,24.86405 20.16785,45.0323 45.03228,45.0323 8.9274,0 17.26462,-2.60761 24.26534,-7.09191 l 0.0315,7.44178 c 0,0.53592 0.78259,0.8402 1.14489,0.44524 l 5.62897,-6.20153 c 1.05646,2.30636 2.12114,4.59634 3.18025,6.90118 0.36788,0.80051 1.00629,1.36196 1.74919,1.59013 0.76275,0.23426 1.59369,0.17799 2.35338,-0.0956 0.7597,-0.27366 1.44898,-0.78177 1.8763,-1.52651 0.42743,-0.74475 0.65142,-1.76598 0.19081,-2.70326 l -3.43467,-7.0283 7.88701,0 c 0.52605,-0.0264 0.80225,-0.91683 0.4135,-1.27209 l -9.00007,-8.84119 c 5.48814,-7.46285 8.74565,-16.68098 8.74565,-26.65047 0,-24.86393 -20.16786,-45.03228 -45.0323,-45.03228 z m 15.32879,12.59378 c 1.06674,-0.0244 2.15688,0.22256 3.1485,0.79511 2.88544,1.66603 3.89192,5.35136 2.22617,8.23678 -1.66512,2.88421 -5.38352,3.89262 -8.26863,2.22619 -2.88451,-1.66503 -3.85955,-5.38445 -2.19443,-8.26865 1.0933,-1.8936 3.05192,-2.94374 5.08839,-2.98943 z m -15.23332,6.42409 c 2.42594,0 4.76752,0.33727 6.99654,0.95408 0.39435,2.42289 1.84118,4.65496 4.13432,5.97886 2.28988,1.32207 4.92567,1.43901 7.2191,0.57245 4.46101,4.38609 7.3686,10.36933 7.79166,17.01436 l -8.58666,0.12721 c -0.79136,-9.00035 -8.34905,-16.06028 -17.55496,-16.06028 -2.65278,0 -5.15384,0.60398 -7.41004,1.65372 l -4.19792,-7.53714 c 3.50113,-1.73392 7.43608,-2.70326 11.60796,-2.70326 z m -14.53378,4.38874 4.4206,7.41004 c -4.53021,3.18859 -7.50539,8.44459 -7.50539,14.40645 0,5.9629 2.97518,11.21818 7.50539,14.40657 l -4.4206,7.40992 c -5.2791,-3.52718 -9.21376,-8.9173 -10.84459,-15.23332 1.9057,-1.55288 3.14839,-3.93201 3.14839,-6.58317 0,-2.65145 -1.243,-5.02987 -3.14839,-6.58306 1.63094,-6.31571 5.56548,-11.70616 10.84459,-15.23343 z m -16.18741,15.77403 c 3.33137,0 6.04247,2.71007 6.04247,6.04246 0,3.33148 -2.7111,6.04247 -6.04247,6.04247 -3.33249,0 -6.04246,-2.71099 -6.04246,-6.04247 0,-3.33239 2.70997,-6.04246 6.04246,-6.04246 z m 48.27615,7.60083 8.58667,0.12721 c -0.42245,6.64535 -3.29922,12.62839 -7.75981,17.01428 -2.29345,-0.86687 -4.96139,-0.74953 -7.25095,0.57244 -2.29354,1.3243 -3.73997,3.55596 -4.13432,5.97886 -2.22933,0.61723 -4.5706,0.95408 -6.99654,0.95408 -4.17188,0 -8.10663,-0.96955 -11.60797,-2.70317 l 4.19792,-7.53723 c 2.25651,1.04983 4.75726,1.65373 7.41004,1.65373 9.20591,0 16.76371,-7.05862 17.55496,-16.0602 z m 7.88702,16.50543 17.68215,17.23694 -7.34643,0 c -0.43708,0.0255 -0.75928,0.55809 -0.57244,0.95407 l 3.84815,7.79166 c 0.31894,0.64785 0.16965,1.21388 -0.0631,1.62188 -0.23844,0.41561 -0.7021,0.73995 -1.20851,0.92232 -0.5065,0.18237 -1.06184,0.22846 -1.49476,0.0956 -0.43293,-0.133 -0.66821,-0.44329 -0.85862,-0.85871 l -3.62547,-7.88701 c -0.18155,-0.40372 -0.81323,-0.51647 -1.11315,-0.19082 l -5.15199,5.69269 -0.0956,-25.37836 z m -10.24041,2.51245 c 2.13866,-0.055 4.26143,1.03833 5.40642,3.02119 1.66575,2.88521 0.65835,6.57156 -2.22617,8.23688 -2.88541,1.66604 -6.57086,0.69101 -8.23689,-2.19442 -1.66543,-2.88421 -0.69111,-6.6029 2.19443,-8.26865 0.90135,-0.52033 1.89013,-0.76976 2.86221,-0.795 z"
       id="path9270"
       inkscape:connector-curvature="0" />
    <path
       d="m 446.74972,382.25444 c 7.42657,0 13.44791,3.75014 13.44791,8.37077 0,4.62051 -6.02134,8.37065 -13.44791,8.37065 -1.2452,0 -2.43793,-0.12597 -3.58221,-0.32308 -1.62408,2.22065 -4.13363,4.17085 -6.78259,5.46301 0.80936,-2.4373 1.43036,-4.93759 1.61487,-7.16648 -2.8681,-1.5343 -4.69796,-3.80617 -4.69796,-6.3441 0,-4.62063 6.02132,-8.37077 13.44789,-8.37077 z m 14.34375,-19.09113 c 6.55543,0 11.86242,3.25851 11.86242,7.2546 0,2.24781 -1.67828,4.25341 -4.31632,5.58054 0.44418,2.0503 1.83724,4.16347 3.05369,5.96221 -2.47138,-0.97904 -5.0359,-2.26801 -7.81035,-4.52309 -0.8935,0.13101 -1.82998,0.20566 -2.78944,0.20566 -6.55542,0 -11.86231,-3.22921 -11.86231,-7.22532 0,-3.99609 5.30689,-7.2546 11.86231,-7.2546 z"
       style="opacity:0.98999999;fill:none;stroke:#ff8351;stroke-width:1.4000001;stroke-linecap:round;stroke-linejoin:round;stroke-miterlimit:4;stroke-opacity:1;stroke-dasharray:none;display:inline"
       id="path3112"
       inkscape:connector-curvature="0" />
    <path
       sodipodi:nodetypes="cccsssccccsssccc"
       style="fill:#ff8351;fill-opacity:1;stroke:none;display:inline"
       d="m 400.33758,363.65846 -18.08729,4.34697 0,25.72889 c -1.59232,-0.70709 -3.88263,-0.51844 -5.9898,0.67557 -3.00271,1.70144 -4.4706,4.75623 -3.28857,6.84341 1.18193,2.08718 4.57279,2.40629 7.57539,0.70496 2.31039,-1.30917 3.71243,-3.42792 3.69961,-5.28675 l 0,-22.61574 16.09066,-3.84755 0,19.17925 c -1.59245,-0.7071 -3.88275,-0.51845 -5.99001,0.67556 -3.00259,1.70133 -4.47048,4.78553 -3.28846,6.87281 1.18192,2.0872 4.57279,2.3769 7.5754,0.67545 2.31423,-1.31133 3.71722,-3.42565 3.6997,-5.28677 l 0,-28.66606 -1.99663,0 z"
       id="path3114"
       inkscape:connector-curvature="0" />
    <path
       sodipodi:nodetypes="csssccscccscccccccccccccccccccccccccccccccccccccscccccccccccccccccsscccccccccccccccccccccsccccccccccccccccccscccccccccscccccccccccccccsccccccccccccccccccccccsccscc"
       id="path3116"
       d="m 524.94664,362.11636 c -11.59079,0 -21.0234,9.40552 -21.0234,20.99983 0,11.59474 9.43252,21.03128 21.0234,21.03128 11.58982,0 20.99197,-9.43643 20.99197,-21.03128 0,-11.59431 -9.40215,-20.99983 -20.99197,-20.99983 z m 0.40848,1.41463 c 4.28789,0.0877 8.22535,1.57984 11.40734,3.99257 0.1966,0.14896 0.40644,0.28381 0.59706,0.44006 -0.30265,0.27591 -0.56809,1.01969 -0.94279,0.97456 -0.47967,-0.5008 -1.37371,-1.17604 -0.1256,-0.94312 0.53409,-0.15646 0.61694,-0.33152 0.47133,-0.4715 -0.14561,-0.1401 -0.51955,-0.26114 -0.91135,-0.25153 -0.59215,-0.0717 -1.14493,-0.25625 -1.69699,-0.47163 -0.85137,0.17498 -1.71579,0.35515 -2.3882,0.94313 0.20095,0.81158 -0.85395,0.93862 -1.31994,1.38329 -0.12424,0.26083 -0.0192,1.90047 0.5343,1.19453 0.6009,-0.79832 0.87393,0.41227 1.5084,0.5345 0.4599,-0.14812 0.51869,-1.19024 0.34561,-1.66615 0.29475,-0.48563 0.75934,-1.15572 1.3827,-1.10033 -0.38658,0.59011 -0.8238,2.09456 0.40857,1.47752 0.35663,-0.0107 -0.95742,0.78452 -1.03707,1.32041 -0.49859,0.53 -1.0394,0.94503 -1.75972,0.53439 -0.34468,-0.2911 -0.53613,-1.14311 -0.75422,-0.18864 0.44771,0.75703 -1.10729,0.0471 -1.06849,1.06887 -0.33035,0.63578 -0.9138,0.89724 -1.60258,0.94312 0.24993,0.19784 1.22543,1.3927 0.25132,1.22598 -0.62356,0.0685 -1.5408,0.41098 -1.28841,1.19465 -0.28404,0.97606 0.43532,0.74077 0.87983,1.35175 0.72449,-0.20576 1.20149,-0.65706 1.31994,-1.41464 0.67797,-0.19923 0.7325,-0.95851 1.47696,-0.94311 0.74201,-0.41729 0.93862,0.76153 1.63412,0.84879 0.0727,0.42242 -0.34614,1.31047 0.47134,0.47163 0.78981,-0.57247 -0.84721,-1.30663 -0.34561,-1.44618 0.7138,0.22809 0.98522,0.90804 1.09982,1.57182 0.58166,0.99572 0.73934,0.46744 0.78564,-0.40862 0.90632,-0.40766 1.16909,1.68123 2.45118,1.16309 0.95753,0.19817 0.60754,0.85458 -0.0309,1.25753 -0.5173,0.48691 -1.3719,0.19528 -1.97986,0 -0.58336,-0.28681 -1.3537,-0.27547 -1.66544,0.3773 -0.48074,-0.22501 -0.99004,-0.938 -1.47697,-1.35185 -1.20331,-0.53107 -2.50914,-0.0739 -3.70817,0.25154 -1.02862,1.2021 -2.25971,2.29903 -2.70262,3.86668 -0.64856,0.65994 0.56212,1.03723 -0.25132,1.60326 -0.6642,0.53 0.10904,1.21391 0.25132,1.82338 0.62465,0.76889 1.66836,3.15873 2.63977,2.20062 0.54447,-0.82931 0.86752,0.63407 1.50841,-0.3144 0.51165,-0.41291 0.98426,0.48242 1.72841,0.15721 0.71668,0.44273 0.57846,1.0892 0.28276,1.76048 0.16099,0.55899 0.97111,0.93969 0.66001,1.69758 -0.28286,0.70593 0.61832,1.26835 0.43991,1.88614 -0.59395,1.18984 -0.45667,2.65623 0.0941,3.83536 0.44075,1.06706 0.69445,2.20546 0.65993,3.36375 0.76745,0.2296 1.18287,-0.75769 1.94831,-0.5345 0.74736,0.0962 1.01407,-0.85852 1.53993,-1.25741 0.58583,-0.48317 -0.0812,-1.22952 0.84838,-1.57184 0.90239,-0.43952 -1.12696,-1.05232 0.0309,-1.44617 0.48054,-0.53492 1.4402,-0.71621 1.63404,-1.41463 -0.34949,-1.07455 -0.20933,-2.23315 -0.15706,-3.3323 0.33633,-0.86988 0.75741,-1.71044 1.47698,-2.32632 0.29013,-0.95776 0.97303,-1.83426 0.91135,-2.86079 -1.70232,0.52091 -1.20052,-0.23131 -0.25144,-0.91169 0.65617,-0.4361 1.45442,-0.86322 1.75984,-1.60325 0.14914,-0.83758 -0.463,-2.20879 -1.03705,-0.94313 -0.25328,-0.48637 -1.17392,-0.71789 -1.13137,-1.35176 -0.18239,-1.30479 0.347,-0.16627 0.87992,0.094 1.0575,-0.57436 1.64022,1.43089 2.29415,0.62872 0.11834,0.87275 0.18847,1.76646 0.18847,2.67217 0,10.83362 -8.74887,19.61664 -19.57785,19.61664 -3.30866,0 -6.41066,-0.81597 -9.14461,-2.26352 0.1286,-0.11112 0.22566,-0.29388 0.25143,-0.59728 0.51838,-0.46671 0.54391,-1.22407 1.414,-1.2261 0.40388,-0.49375 0.54726,-1.28319 0.8485,-1.88612 -0.43981,-0.55641 0.15758,-1.40606 0.81706,-1.38329 0.84304,0.0632 0.8268,-0.93104 1.16268,-1.47751 -0.0106,-0.7981 -0.40313,-1.69568 0.3143,-2.29487 0.53975,-0.48924 0.48138,-1.19111 0.56562,-1.85481 -1.20983,-0.74858 -2.81358,-1.12727 -3.77101,-2.13764 -0.18977,-0.79074 -0.78275,-1.07433 -1.53972,-1.13176 -0.31977,-0.44701 -0.25861,-1.51986 -0.81708,-1.57184 -0.71946,0.13818 -1.42565,0.24834 -1.94842,-0.37729 -0.5932,-0.80152 -1.09296,0.208 -1.63402,0.56594 -0.50821,0.88526 -1.92992,-0.0407 -1.75984,-1.03744 0.4999,-1.37858 -1.71868,0.14833 -0.81705,-1.4775 0.42879,-1.77267 -0.71187,-0.39858 -1.31984,0 -0.74202,0.0107 -1.0437,-0.7377 -0.91134,-1.41474 -0.0942,-0.81362 0.49645,-1.22694 1.09992,-1.6347 0.80744,0.12447 1.02906,-0.56317 1.63402,-0.47153 0.76051,-0.0385 1.04489,0.67963 1.47698,1.16321 0.18099,-0.69042 -0.19842,-1.65835 0.56562,-2.04344 0.58284,-0.44208 1.18033,-0.90023 1.31984,-1.66616 0.13746,-0.80194 1.33906,-0.47759 1.53994,-1.28896 0.27761,-0.84804 1.53481,-0.16896 1.8226,-1.00588 0.90226,-0.84838 -0.26448,-0.57022 -0.91136,-0.59739 -1.27623,0.13121 0.11855,-0.33484 0.59717,-0.59726 0.70886,0.094 1.35979,-0.15807 2.01117,-0.40864 0.0877,0.88719 0.27003,1.35132 0.72278,0.3143 -0.8826,-0.20885 -0.13407,-1.06032 -1.00565,-1.28884 -0.68975,0.0481 9.5e-4,-1.45548 -0.84839,-1.28898 -1.10517,0.73148 -0.10584,-0.52518 -1.00563,-0.69159 -0.71017,-0.76711 -0.87149,0.48658 -1.25698,0.94312 0.25005,0.87541 -0.84198,0.69597 -1.03706,1.41462 -0.43201,1.29538 -0.23862,-0.10823 -0.75421,-0.44007 -0.63704,-0.25559 -1.40941,-0.38746 -1.41412,-1.22608 0.85394,-0.62539 2.15218,-0.99573 2.70251,-1.98046 0.2399,-0.57373 -0.045,-0.9397 -0.50277,-1.06889 0.59139,-0.43086 1.21508,-0.83082 1.85403,-1.19463 -0.0898,0.3497 -0.30915,0.61673 -0.65991,0.88023 -0.62153,0.70539 -0.0309,1.34255 0.56573,0.72303 0.0535,-0.16169 0.12498,-0.31377 0.21991,-0.4715 0.41124,-0.68335 1.14418,-1.22212 1.88545,-0.75448 0.91306,0.5007 1.81682,1.69342 2.5769,0.40863 -0.77995,-0.094 -1.07181,-0.76837 -1.44554,-1.25744 -0.41352,0.0332 -2.14608,-0.33407 -1.03697,-0.25152 0.54597,-0.17826 1.59233,-0.71244 1.97975,-0.69159 -0.97133,0.50669 0.35961,0.85362 0.75419,1.25754 0.70952,0.21034 1.05279,1.10534 0.40861,1.57183 -0.82853,0.4301 0.0492,1.13668 0.21988,1.72902 0.13256,1.03167 1.03537,0.44522 1.31983,-0.18862 0.41126,-1.15274 1.71805,-1.112 2.6712,-1.60328 1.04144,-0.53493 1.07674,-0.54242 1.57126,0.21996 0.37983,0.2187 1.61797,-0.59127 0.78553,-0.97443 -0.71241,0.0385 -1.1631,0.47525 -0.56563,-0.62882 0.14378,-0.59321 0.69862,-1.36886 0.59716,-1.85469 l -1.75984,-0.69172 0,1.2e-4 z m -9.96169,3.70959 c 0.36797,0.37653 1.60057,1.06705 1.477,0.12577 -0.14904,-0.63813 -1.06892,-0.65341 -1.477,-0.12577 z m -2.92262,0.75448 c -0.12081,0.12159 -0.22707,0.25015 -0.37705,0.34584 0.12968,-0.1126 0.2446,-0.23666 0.37705,-0.34584 z m 15.83827,0.91166 c -0.0695,0 -0.16015,0.0107 -0.25132,0.031 -0.12905,0.67952 0.59331,1.03553 0.34573,1.76048 -0.22205,0.79415 -0.30073,1.43804 0.69134,0.97457 1.02969,-0.52904 0.38091,-0.941 -0.0309,-1.63473 -0.24577,-0.40349 -0.26674,-1.1047 -0.75422,-1.13175 l -1.1e-4,0 z m -1.2884,1.16321 c -0.50768,0.1617 -0.2911,1.43304 0.15713,1.03734 0.75176,-0.1851 0.24493,-0.53449 0.12574,-1.03734 -0.10263,-0.0309 -0.21028,-0.0235 -0.28287,0 z m 10.6217,9.30524 c 0.98339,0.87274 1.31941,2.16878 1.94842,3.26951 0.93412,0.41312 0.0545,1.12654 0.47124,1.63471 0.87722,0.95318 -1.22064,0.23208 -0.9427,-0.72302 -0.20362,-1.25464 -1.08281,-2.11061 -1.50837,-3.20664 -0.0439,-0.36437 -0.41116,-0.73738 0.0309,-0.97456 l 1.1e-4,0 z m -32.30489,3.55238 c 0.38859,0.3866 0.87767,0.64625 1.38268,0.91167 0.74575,0.43334 1.84429,0.2556 2.26259,1.16321 0.46675,0.38222 0.96641,1.14162 1.63402,0.9117 0.96769,-0.0942 0.38581,0.8861 0.22001,1.38318 -0.0611,0.6273 -0.83138,1.03102 -0.53418,1.63469 -0.24942,0.68378 -0.45927,1.35699 0.0941,1.94913 0.47058,0.86795 0.85586,1.81286 1.7283,2.35774 0.6118,0.51397 1.30829,1.17305 1.06851,2.04334 -0.12745,0.70453 0.0374,1.36243 0.37701,1.98056 -0.0918,0.52049 -0.24768,1.05199 -0.34559,1.57182 -4.78596,-3.57697 -7.88776,-9.28263 -7.88776,-15.7184 0,-0.0632 -5.4e-4,-0.12532 0,-0.18864 l 1.1e-4,0 z"
       style="fill:#ff8351;fill-opacity:1;fill-rule:nonzero;stroke:none;display:inline"
       inkscape:connector-curvature="0" />
    <path
       id="path3118"
       d="m 250.7259,362.80796 0,36.93831 -2.95396,0 0,3.3952 -27.52836,0 0,-16.50432 -4.99655,-8.64518 c -1.02436,-1.7747 -1.15177,-2.4847 -0.28286,-2.98646 0.21722,-0.12544 0.40739,-0.18981 0.59705,-0.18863 0.29354,0 0.57662,0.16597 0.87992,0.50294 0.35257,-0.14095 0.76532,-0.0161 0.97421,0.34585 l 2.82823,4.90415 0,-14.33524 2.95395,0 0,-3.42662 27.52837,0 z m -1.41412,1.41474 -24.73145,0 0,2.01188 23.19161,0 0,32.09707 1.53984,0 0,-34.10895 z m -2.95395,3.39507 -24.70015,0 0,16.47299 4.02247,7.01045 1.69688,0 0,0.88013 -1.19413,0 0.31421,0.53449 c 0.38239,0.66231 0.59973,1.35143 0.78573,2.04334 l 2.38834,0 0,0.8488 -2.16843,0 c 0.0898,0.38874 0.18461,0.7793 0.28286,1.16321 l 0.12571,0.22008 c 0.15011,0.25998 0.16208,0.40446 -0.0621,0.53439 -0.22492,0.12993 -0.35278,0.0396 -0.50277,-0.22007 l -0.12573,-0.21999 c -0.99599,-0.97391 -2.10619,-1.80667 -2.85976,-3.11233 l -2.70251,-4.68404 0,12.66907 24.70012,0 0,-34.14052 z m -2.04261,2.82935 0,0.88024 -1.97985,0 0,-0.88024 1.97985,0 z m -2.2626,0 0,0.88024 -1.88546,0 0,-0.88024 1.88546,0 z m -2.1369,0 0,0.88024 -1.69698,0 0,-0.88024 1.69698,0 z m -1.94831,0 0,0.88024 -0.72287,0 0,-0.88024 0.72287,0 z m -1.00565,0 0,0.88024 -1.6341,0 0,-0.88024 1.6341,0 z m -1.88555,0 0,0.88024 -4.24236,0 0,-0.88024 4.24236,0 z m -4.49379,0 0,0.88024 -3.23671,0 0,-0.88024 3.23671,0 z m -3.48815,0 0,0.88024 -1.00553,0 0,-0.88024 1.00553,0 z m -1.25697,0 0,0.88024 -1.94841,0 0,-0.88024 1.94841,0 z m 18.47792,1.72904 0,0.84879 -3.14253,0 0,-0.84879 3.14253,0 z m -3.4254,0 0,0.84879 -1.5084,0 0,-0.84879 1.5084,0 z m -1.79115,0 0,0.84879 -0.69136,0 0,-0.84879 0.69136,0 z m -1.00566,0 0,0.84879 -1.38269,0 0,-0.84879 1.38269,0 z m -1.63401,0 0,0.84879 -1.38279,0 0,-0.84879 1.38279,0 z m -1.69698,0 0,0.84879 -2.16843,0 0,-0.84879 2.16843,0 z m -2.45119,0 0,0.84879 -2.8911,0 0,-0.84879 2.8911,0 z m -3.17396,0 0,0.84879 -1.94831,0 0,-0.84879 1.94831,0 z m -2.23118,0 0,0.84879 -0.47134,0 0,-0.84879 0.47134,0 z m 17.40953,1.72902 0,0.84881 -2.60833,0 0,-0.84881 2.60833,0 z m -2.85978,0 0,0.84881 -4.33663,0 0,-0.84881 4.33663,0 z m -4.6194,0 0,0.84881 -2.07402,0 0,-0.84881 2.07402,0 z m -2.35689,0 0,0.84881 -1.97975,0 0,-0.84881 1.97975,0 z m -2.23118,0 0,0.84881 -1.66555,0 0,-0.84881 1.66555,0 z m -1.9483,0 0,0.84881 -2.67121,0 0,-0.84881 2.67121,0 z m -2.92264,0 0,0.84881 -4.33664,0 0,-0.84881 4.33664,0 z m 16.93819,1.72904 0,0.84881 -3.6453,0 0,-0.84881 3.6453,0 z m -3.92817,0 0,0.84881 -3.89673,0 0,-0.84881 3.89673,0 z m -4.21102,0 0,0.84881 -1.53973,0 0,-0.84881 1.53973,0 z m -1.82259,0 0,0.84881 -3.67674,0 0,-0.84881 3.67674,0 z m -3.9596,0 0,0.84881 -2.54538,0 0,-0.84881 2.54538,0 z m -2.79681,0 0,0.84881 -1.00553,0 0,-0.84881 1.00553,0 z m -1.2884,0 0,0.84881 -0.56573,0 0,-0.84881 0.56573,0 z m -0.84848,0 0,0.84881 -1.57126,0 0,-0.84881 1.57126,0 z m 18.85507,1.69761 0,0.88024 -1.3827,0 0,-0.88024 1.3827,0 z m -1.75985,0 0,0.88024 -5.02798,0 0,-0.88024 5.02798,0 z m -2.45107,2.92356 c 2.3027,0 4.17947,1.87779 4.17947,4.18111 0,2.30341 -1.87677,4.18108 -4.17947,4.18108 -2.30281,0 -4.14816,-1.87767 -4.14816,-4.18108 0,-2.30332 1.84535,-4.18111 4.14816,-4.18111 z m -5.15369,0.53449 0,0.84881 -2.45121,0 0,-0.84881 2.45121,0 z m -2.70264,0 0,0.84881 -1.66555,0 0,-0.84881 1.66555,0 z m -1.9483,0 0,0.84881 -2.67121,0 0,-0.84881 2.67121,0 z m -2.92264,0 0,0.84881 -4.33664,0 0,-0.84881 4.33664,0 z m 12.72727,0.25154 c -0.89875,0 -1.7529,0.37023 -2.38833,1.00589 l 2.38833,2.38919 -3.36253,0 c 0,1.872 1.49096,3.3952 3.36253,3.3952 1.87134,0 3.39385,-1.5232 3.39385,-3.3952 0,-1.87192 -1.52251,-3.39508 -3.39385,-3.39508 z m -5.15369,1.47751 0,0.84878 -4.11676,0 0,-0.84878 4.11676,0 z m -4.36819,0 0,0.84878 -3.23671,0 0,-0.84878 3.23671,0 z m -3.48815,0 0,0.84878 -1.00553,0 0,-0.84878 1.00553,0 z m -1.25697,0 0,0.84878 -1.94841,0 0,-0.84878 1.94841,0 z m 9.11331,1.69759 0,0.88024 -3.14256,0 0,-0.88024 3.14256,0 z m -3.39399,0 0,0.88024 -2.32546,0 0,-0.88024 2.32546,0 z m -2.57679,0 0,0.88024 -0.91145,0 0,-0.88024 0.91145,0 z m -1.16278,0 0,0.88024 -0.5342,0 0,-0.88024 0.5342,0 z m -0.78564,0 0,0.88024 -1.44554,0 0,-0.88024 1.44554,0 z m 7.9192,1.72901 0,0.88025 -4.27391,0 0,-0.88025 4.27391,0 z m -4.55677,0 0,0.88025 -2.54538,0 0,-0.88025 2.54538,0 z m -2.79681,0 0,0.88025 -1.00553,0 0,-0.88025 1.00553,0 z m -1.2884,0 0,0.88025 -0.56573,0 0,-0.88025 0.56573,0 z m -0.84848,0 0,0.88025 -1.57126,0 0,-0.88025 1.57126,0 z m 9.49046,1.72906 0,0.8488 -2.32549,0 0,-0.8488 2.32549,0 z m -2.60836,0 0,0.8488 -2.85965,0 0,-0.8488 2.85965,0 z m -3.26825,0 0,0.8488 -1.94831,0 0,-0.8488 1.94831,0 z m -2.16831,0 0,0.8488 -0.47134,0 0,-0.8488 0.47134,0 z m 17.40953,3.42662 0,0.88013 -2.60833,0 0,-0.88013 2.60833,0 z m -2.85978,0 0,0.88013 -4.33663,0 0,-0.88013 4.33663,0 z m -4.6194,0 0,0.88013 -2.07402,0 0,-0.88013 2.07402,0 z m -2.35689,0 0,0.88013 -1.97975,0 0,-0.88013 1.97975,0 z m -2.23118,0 0,0.88013 -1.66555,0 0,-0.88013 1.66555,0 z m -1.9483,0 0,0.88013 -2.67121,0 0,-0.88013 2.67121,0 z m 14.01555,1.72894 0,0.88022 -3.14253,0 0,-0.88022 3.14253,0 z m -3.36254,0 0,0.88022 -1.50841,0 0,-0.88022 1.50841,0 z m -1.85401,0 0,0.88022 -0.69136,0 0,-0.88022 0.69136,0 z m -0.87993,0 0,0.88022 -1.3827,0 0,-0.88022 1.3827,0 z m -1.57128,0 0,0.88022 -1.38267,0 0,-0.88022 1.38267,0 z m -1.82257,0 0,0.88022 -2.19977,0 0,-0.88022 2.19977,0 z m -2.48264,0 0,0.88022 -2.85965,0 0,-0.88022 2.85965,0 z m -3.26825,0 0,0.88022 -1.53974,0 0,-0.88022 1.53974,0 z m 15.24122,1.72902 0,0.8488 -3.29969,0 0,-0.8488 3.29969,0 z m -3.55111,0 0,0.8488 -1.03696,0 0,-0.8488 1.03696,0 z m -1.31984,0 0,0.8488 -2.35679,0 0,-0.8488 2.35679,0 z m -2.60823,0 0,0.8488 -1.6341,0 0,-0.8488 1.6341,0 z m -1.91697,0 0,0.8488 -1.60261,0 0,-0.8488 1.60261,0 z m -1.88546,0 0,0.8488 -2.32547,0 0,-0.8488 2.32547,0 z m -2.60824,0 0,0.8488 -0.50287,0 0,-0.8488 0.50287,0 z m 13.88985,1.72904 0,0.84878 -3.20537,0 0,-0.84878 3.20537,0 z m -3.51957,0 0,0.84878 -1.50841,0 0,-0.84878 1.50841,0 z m -1.79129,0 0,0.84878 -2.07412,0 0,-0.84878 2.07412,0 z m -2.3569,0 0,0.84878 -1.91698,0 0,-0.84878 1.91698,0 z m -2.23116,0 0,0.84878 -1.63414,0 0,-0.84878 1.63414,0 z m -1.9169,0 0,0.84878 -0.69135,0 0,-0.84878 0.69135,0 z m -0.9742,0 0,0.84878 -1.66556,0 0,-0.84878 1.66556,0 z"
       style="font-size:medium;font-style:normal;font-variant:normal;font-weight:normal;font-stretch:normal;text-indent:0;text-align:start;text-decoration:none;line-height:normal;letter-spacing:normal;word-spacing:normal;text-transform:none;direction:ltr;block-progression:tb;writing-mode:lr-tb;text-anchor:start;color:#000000;fill:#ff8351;fill-opacity:1;fill-rule:nonzero;stroke:none;stroke-width:1.39999998;marker:none;visibility:visible;display:inline;overflow:visible;enable-background:accumulate;font-family:Bitstream Vera Sans;-inkscape-font-specification:Bitstream Vera Sans"
       inkscape:connector-curvature="0" />
    <g
       transform="matrix(1.0056022,0,0,1.00598,-127.03348,-1.9541261)"
       id="g3120"
       style="display:inline">
      <path
         style="font-size:medium;font-style:normal;font-variant:normal;font-weight:normal;font-stretch:normal;text-indent:0;text-align:start;text-decoration:none;line-height:normal;letter-spacing:normal;word-spacing:normal;text-transform:none;direction:ltr;block-progression:tb;writing-mode:lr-tb;text-anchor:start;color:#000000;fill:#ff8351;fill-opacity:1;fill-rule:nonzero;stroke:none;stroke-width:1.39999998;marker:none;visibility:visible;display:inline;overflow:visible;enable-background:accumulate;font-family:Bitstream Vera Sans;-inkscape-font-specification:Bitstream Vera Sans"
         d="m 418.90625,365.59375 c -0.77214,0 -1.27465,0.53723 -1.59375,1.0625 -0.21092,0.34719 -0.35967,0.71385 -0.4375,1.09375 l -0.90625,0 c -2.03768,0 -3.71875,1.64981 -3.71875,3.6875 l 0,23.71875 c 0,2.03769 1.68107,3.6875 3.71875,3.6875 l 40.5625,0 c 2.03768,0 3.6875,-1.64981 3.6875,-3.6875 l 0,-23.71875 c 0,-2.03769 -1.64982,-3.6875 -3.6875,-3.6875 l -28.21875,0 c -0.0778,-0.3799 -0.22658,-0.74656 -0.4375,-1.09375 -0.3191,-0.52527 -0.82161,-1.0625 -1.59375,-1.0625 l -7.375,0 z m 0,1.40625 7.375,0 c 0.003,0 0.21958,0.0677 0.40625,0.375 0.0489,0.0805 0.055,0.15731 0.0937,0.25 l -8.34375,0 c 0.0389,-0.0927 0.0448,-0.16949 0.0937,-0.25 0.18667,-0.30728 0.37205,-0.375 0.375,-0.375 z m -2.9375,2.15625 40.5625,0 c 1.28629,0 2.28125,0.99494 2.28125,2.28125 l 0,23.71875 c 0,1.28631 -0.99496,2.3125 -2.28125,2.3125 l -40.5625,0 c -1.28629,0 -2.3125,-1.02619 -2.3125,-2.3125 l 0,-23.71875 c 0,-1.28631 1.02621,-2.28125 2.3125,-2.28125 z"
         id="path3122"
         inkscape:connector-curvature="0" />
      <path
         sodipodi:type="arc"
         style="fill:none;stroke:#ff8351;stroke-width:1.39835584;stroke-miterlimit:4;stroke-opacity:1;stroke-dasharray:none;display:inline"
         id="path3124"
         sodipodi:cx="485.75"
         sodipodi:cy="365.61218"
         sodipodi:rx="10.25"
         sodipodi:ry="10.25"
         d="m 496,365.61218 c 0,5.66092 -4.58908,10.25 -10.25,10.25 -5.66092,0 -10.25,-4.58908 -10.25,-10.25 0,-5.66092 4.58908,-10.25 10.25,-10.25 5.66092,0 10.25,4.58908 10.25,10.25 z"
         transform="matrix(0.99544736,0,0,0.99537506,-42.934159,21.045895)" />
      <rect
         style="fill:#ff8351;fill-opacity:1;stroke:none;display:inline"
         id="rect3126"
         width="8.5647373"
         height="2.952781"
         x="448.25769"
         y="370.97174"
         rx="1.2253551"
         ry="1.224895" />
      <path
         transform="matrix(0.83986733,0,0,0.83980628,32.638844,77.923725)"
         d="m 494.49755,365.61218 c 0,4.83114 -3.91641,8.74755 -8.74755,8.74755 -4.83114,0 -8.74755,-3.91641 -8.74755,-8.74755 0,-4.83113 3.91641,-8.74754 8.74755,-8.74754 4.83114,0 8.74755,3.91641 8.74755,8.74754 z"
         sodipodi:ry="8.7475471"
         sodipodi:rx="8.7475471"
         sodipodi:cy="365.61218"
         sodipodi:cx="485.75"
         id="path3128"
         style="fill:none;stroke:#ff8351;stroke-width:1.65739226;stroke-miterlimit:4;stroke-opacity:1;stroke-dasharray:none;display:inline"
         sodipodi:type="arc" />
    </g>
  </g>
  <g
     inkscape:groupmode="layer"
     id="layer2"
     inkscape:label="second edition"
     style="display:inline">
    <text
       transform="scale(1.0000398,0.9999602)"
       id="second_edition"
       y="470.66904"
       x="545.94189"
       style="font-size:19.29999924px;font-style:normal;font-variant:normal;font-weight:normal;font-stretch:normal;text-align:end;text-anchor:end;fill:#000000;fill-opacity:1;stroke:none;display:inline;font-family:Linux Biolinum O;-inkscape-font-specification:Linux Biolinum O"
       xml:space="preserve"><tspan
         style="font-size:19.29999924px;font-style:normal;font-variant:normal;font-weight:normal;font-stretch:normal;text-align:end;text-anchor:end;fill:#000000;fill-opacity:1;font-family:Linux Biolinum O;-inkscape-font-specification:Linux Biolinum O"
         y="470.66904"
         x="545.94189"
         id="tspan19194"
         sodipodi:role="line">Second Edition</tspan></text>
  </g>
  <g
     inkscape:groupmode="layer"
     id="layer3"
     inkscape:label="layout"
     style="display:none">
    <rect
       style="fill:#000000;fill-opacity:0.32863853;stroke:none;display:inline"
       id="rect12300"
       width="20"
       height="401.97211"
       x="-744.09448"
       y="-401.97211"
       transform="scale(-1,-1)" />
    <rect
       y="-1052.3625"
       x="-744.09448"
       height="650.39087"
       width="20"
       id="rect12302"
       style="fill:#000000;fill-opacity:0.15962441;stroke:none;display:inline"
       transform="scale(-1,-1)" />
    <rect
       y="-861.74335"
       x="-19.999989"
       height="117.81147"
       width="20"
       id="rect12358"
       style="fill:#000000;fill-opacity:0.32863853;stroke:none;display:inline"
       transform="scale(-1,-1)" />
    <rect
       style="fill:#000000;fill-opacity:0.15962441;stroke:none;display:inline"
       id="rect12360"
       width="20"
       height="190.61896"
       x="-19.999989"
       y="-1052.3622"
       transform="scale(-1,-1)" />
    <rect
       style="opacity:0.7;fill:#000000;fill-opacity:0.32863853;stroke:none;display:inline"
       id="rect12364"
       width="20"
       height="72.810898"
       x="-39.999992"
       y="-934.55414"
       transform="scale(-1,-1)" />
    <rect
       y="-1052.3622"
       x="-39.999992"
       height="117.80803"
       width="20"
       id="rect12366"
       style="opacity:0.7;fill:#000000;fill-opacity:0.15962441;stroke:none;display:inline"
       transform="scale(-1,-1)" />
    <path
       style="fill:none;stroke:#1ea9ff;stroke-width:1px;stroke-linecap:butt;stroke-linejoin:miter;stroke-opacity:1;display:inline"
       d="m 744.09448,401.9721 -147.25,0"
       id="path12532"
       inkscape:connector-curvature="0" />
    <path
       id="path12534"
       d="m 175.02519,859.98087 0,62.54582"
       style="fill:none;stroke:#1ea9ff;stroke-width:1;stroke-linecap:butt;stroke-linejoin:miter;stroke-miterlimit:4;stroke-opacity:1;stroke-dasharray:none;display:inline"
       inkscape:connector-curvature="0" />
    <path
       style="fill:none;stroke:#1ea9ff;stroke-width:1;stroke-linecap:butt;stroke-linejoin:miter;stroke-miterlimit:4;stroke-opacity:1;stroke-dasharray:none;display:inline"
       d="m 221.3185,402.68749 0,345.12605"
       id="path12536"
       inkscape:connector-curvature="0" />
    <path
       id="path12538"
       d="m 59.745579,447.28414 0,330.28302"
       style="fill:none;stroke:#1ea9ff;stroke-width:0.99999988;stroke-linecap:butt;stroke-linejoin:miter;stroke-miterlimit:4;stroke-opacity:1;stroke-dasharray:none;display:inline"
       inkscape:connector-curvature="0"
       sodipodi:nodetypes="cc" />
    <path
       id="path12548"
       d="m 544.35848,323.47691 0,473.37853"
       style="fill:none;stroke:#1ea9ff;stroke-width:0.99999994;stroke-linecap:butt;stroke-linejoin:miter;stroke-miterlimit:4;stroke-opacity:1;stroke-dasharray:none;display:inline"
       inkscape:connector-curvature="0" />
    <path
       id="path12550"
       d="m 68.890248,934.55414 -48.780494,0"
       style="fill:none;stroke:#1ea9ff;stroke-width:1px;stroke-linecap:butt;stroke-linejoin:miter;stroke-opacity:1;display:inline"
       inkscape:connector-curvature="0" />
    <rect
       y="869.16156"
       x="-364.99268"
       height="183.20056"
       width="20"
       id="rect12552"
       style="opacity:0.7;fill:#000000;fill-opacity:0.32863853;stroke:none;display:inline"
       transform="scale(-1,1)" />
    <rect
       style="opacity:0.7;fill:#000000;fill-opacity:0.15962441;stroke:none;display:inline"
       id="rect12554"
       width="20"
       height="296.41849"
       x="-364.99268"
       y="442.13608"
       transform="scale(-1,1)" />
    <path
       style="fill:none;stroke:#1ea9ff;stroke-width:0.99999994;stroke-linecap:butt;stroke-linejoin:miter;stroke-miterlimit:4;stroke-opacity:1;stroke-dasharray:none;display:inline"
       d="m 636.65847,401.9721 0,395.09374"
       id="path12556"
       inkscape:connector-curvature="0" />
    <path
       style="fill:none;stroke:#1ea9ff;stroke-width:1.01089275;stroke-linecap:butt;stroke-linejoin:miter;stroke-miterlimit:4;stroke-opacity:1;stroke-dasharray:none;display:inline"
       d="m 590.49632,473.02711 0,274.85334"
       id="path3942"
       inkscape:connector-curvature="0" />
    <rect
       y="803.93213"
       x="-724.09448"
       height="248.43037"
       width="20"
       id="rect12318"
       style="opacity:0.7;fill:#000000;fill-opacity:0.32863853;stroke:none;display:inline"
       transform="scale(-1,1)" />
    <rect
       style="opacity:0.7;fill:#000000;fill-opacity:0.15962441;stroke:none;display:inline"
       id="rect12320"
       width="20"
       height="401.96036"
       x="-724.09448"
       y="401.97198"
       transform="scale(-1,1)" />
    <path
       style="fill:none;stroke:#1ea9ff;stroke-width:1;stroke-linecap:butt;stroke-linejoin:miter;stroke-miterlimit:4;stroke-opacity:1;stroke-dasharray:none;display:inline"
       d="m 63.222058,773.10335 -6.96481,8.94284"
       id="path12540"
       sodipodi:nodetypes="cc"
       inkscape:connector-curvature="0" />
    <path
       sodipodi:nodetypes="cc"
       id="path12542"
       d="m 54.243249,778.46613 11.038157,-1.80341"
       style="fill:none;stroke:#1ea9ff;stroke-width:1;stroke-linecap:butt;stroke-linejoin:miter;stroke-miterlimit:4;stroke-opacity:1;stroke-dasharray:none;display:inline"
       inkscape:connector-curvature="0" />
  </g>
</svg>
