<?xml version="1.0" encoding="UTF-8" standalone="no"?>
<!-- Created with Inkscape (http://www.inkscape.org/) -->

<svg
   xmlns:dc="http://purl.org/dc/elements/1.1/"
   xmlns:cc="http://creativecommons.org/ns#"
   xmlns:rdf="http://www.w3.org/1999/02/22-rdf-syntax-ns#"
   xmlns:svg="http://www.w3.org/2000/svg"
   xmlns="http://www.w3.org/2000/svg"
   xmlns:sodipodi="http://sodipodi.sourceforge.net/DTD/sodipodi-0.dtd"
   xmlns:inkscape="http://www.inkscape.org/namespaces/inkscape"
   width="744.09448819"
   height="1052.3622047"
   id="svg4939"
   version="1.1"
   inkscape:version="0.47+devel r9376"
   sodipodi:docname="title_page_a4_template.svg">
  <defs
     id="defs4941" />
  <sodipodi:namedview
     id="base"
     pagecolor="#ffffff"
     bordercolor="#666666"
     borderopacity="1.0"
     inkscape:pageopacity="0.0"
     inkscape:pageshadow="2"
     inkscape:zoom="0.7"
     inkscape:cx="488.18552"
     inkscape:cy="454.09801"
     inkscape:document-units="px"
     inkscape:current-layer="layer2"
     showgrid="false"
     inkscape:showpageshadow="false"
     borderlayer="true"
     inkscape:window-width="1280"
     inkscape:window-height="975"
     inkscape:window-x="0"
     inkscape:window-y="25"
     inkscape:window-maximized="1"
     showguides="false" />
  <metadata
     id="metadata4944">
    <rdf:RDF>
      <cc:Work
         rdf:about="">
        <dc:format>image/svg+xml</dc:format>
        <dc:type
           rdf:resource="http://purl.org/dc/dcmitype/StillImage" />
        <dc:title />
      </cc:Work>
    </rdf:RDF>
  </metadata>
  <g
     inkscape:label="main"
     inkscape:groupmode="layer"
     id="layer1"
     style="display:inline">
    <g
       transform="matrix(0.63442344,0,0,0.63442344,-96.907799,313.74871)"
       style="fill:#fff5ec;fill-opacity:1"
       id="g18882" />
    <g
       transform="matrix(0.63442344,0,0,0.63442344,-189.20778,282.32337)"
       id="g18916"
       style="fill:#fff5ec;fill-opacity:1" />
    <g
       transform="matrix(0.63442344,0,0,0.63442344,-96.907799,313.74871)"
       style="fill:#fef0e3;fill-opacity:1"
       id="g18986" />
    <g
       transform="matrix(0.63442344,0,0,0.63442344,-189.20778,282.32337)"
       id="g19020"
       style="fill:#fef0e3;fill-opacity:1" />
    <g
       transform="matrix(0.63442344,0,0,0.63442344,-96.907799,313.74871)"
       style="fill:#feeddc;fill-opacity:1"
       id="g19090" />
    <g
       transform="matrix(0.63442344,0,0,0.63442344,-189.20778,282.32337)"
       id="g19124"
       style="fill:#feeddc;fill-opacity:1" />
    <text
       id="team"
       y="939.80243"
       x="569.61505"
       style="font-size:19.29999924px;font-style:normal;font-variant:normal;font-weight:normal;font-stretch:normal;text-align:center;text-anchor:middle;fill:#000000;fill-opacity:1;stroke:none;display:inline;font-family:Linux Biolinum O;-inkscape-font-specification:Linux Biolinum O"
       xml:space="preserve"><tspan
         style="font-size:19.29999924px;font-style:normal;font-variant:normal;font-weight:normal;font-stretch:normal;text-align:center;text-anchor:middle;fill:#000000;fill-opacity:1;font-family:Linux Biolinum O;-inkscape-font-specification:Linux Biolinum O"
         y="939.80243"
         x="569.61505"
         id="tspan12546"
         sodipodi:role="line">The Ubuntu Manual Team</tspan></text>
    <g
       style="display:inline"
       id="g4598"
       transform="matrix(1.2393761,0,0,1.2393761,-1152.1495,-581.81879)"
       inkscape:transform-center-x="300.56332"
       inkscape:transform-center-y="0.00010199477">
      <path
         id="path17836"
         d="m 1422.7738,1072.256 c -1.7105,1.0394 -2.8614,2.8954 -2.8614,5.044 10e-5,3.2724 2.6571,5.9585 5.9299,5.9583 3.2739,5e-4 5.9427,-2.6845 5.9427,-5.957 -2e-4,-3.2738 -2.6673,-5.9154 -5.9413,-5.9156 -1.1252,10e-5 -2.1739,0.3259 -3.0699,0.8703 z"
         style="fill:#ffdec6;fill-opacity:1;stroke:none;display:inline"
         inkscape:connector-curvature="0" />
      <path
         id="path9307"
         d="m 1412.9667,1085.2072 c -3.5502,2.0497 -6.4225,4.8078 -8.55,8.0035 l 7.2755,4.3515 c 1.4042,-2.0019 3.2358,-3.7446 5.4933,-5.048 7.834,-4.523 17.7341,-2.2283 22.8295,5.042 l 7.2447,-4.327 c -3.6249,-5.4469 -9.0388,-9.11 -14.99,-10.6507 -1.5259,1.8642 -3.8264,3.0597 -6.4246,3.0597 -2.6019,0 -4.9297,-1.1886 -6.4557,-3.0566 -2.1999,0.5702 -4.3582,1.4336 -6.4227,2.6256 z"
         style="fill:#ffecd9;fill-opacity:1;stroke:none;display:inline"
         inkscape:connector-curvature="0" />
      <path
         id="path17826"
         d="m 1441.6401,1100.4448 c 3.4659,5.1874 8.7627,9.0537 14.9687,10.6563 1.5262,-1.8723 3.8634,-3.0938 6.4688,-3.0938 2.6051,0 4.9428,1.2212 6.4687,3.0938 6.2064,-1.6026 11.5028,-5.4689 14.9688,-10.6563 l -7.2813,-4.3437 c -3.1329,4.4515 -8.297,7.375 -14.1562,7.375 -5.8583,0 -11.023,-2.9235 -14.1563,-7.375 l -7.2812,4.3437 z"
         style="fill:#fff4e5;fill-opacity:1;stroke:none;display:inline"
         inkscape:connector-curvature="0" />
      <path
         id="path9320"
         d="m 1457.1401,1116.3511 c 0,3.2745 2.6629,5.9375 5.9375,5.9375 3.2735,0 5.9375,-2.663 5.9375,-5.9375 0,-3.2735 -2.664,-5.9375 -5.9375,-5.9375 -3.2746,0 -5.9375,2.664 -5.9375,5.9375 z"
         style="fill:#ffecd9;fill-opacity:1;stroke:none;display:inline"
         inkscape:connector-curvature="0" />
      <path
         id="path17822"
         d="m 1497.2525,1072.2745 c -1.7104,1.0394 -2.8613,2.8954 -2.8613,5.044 0,3.2725 2.6571,5.9586 5.9298,5.9583 3.2739,6e-4 5.9428,-2.6844 5.9427,-5.9569 -10e-5,-3.2739 -2.6673,-5.9155 -5.9413,-5.9157 -1.1251,10e-5 -2.1738,0.3259 -3.0699,0.8703 z"
         style="fill:#fff4e5;fill-opacity:1;stroke:none;display:inline"
         inkscape:connector-curvature="0" />
      <path
         id="path9322"
         d="m 1487.4455,1085.2257 c -3.5502,2.0497 -6.4225,4.8078 -8.55,8.0035 l 7.2755,4.3515 c 1.4042,-2.0018 3.2358,-3.7446 5.4932,-5.0479 7.8341,-4.523 17.7342,-2.2284 22.8296,5.042 l 7.2446,-4.327 c -3.6248,-5.447 -9.0388,-9.1101 -14.9899,-10.6508 -1.526,1.8642 -3.8264,3.0597 -6.4246,3.0597 -2.6019,0 -4.9298,-1.1885 -6.4557,-3.0566 -2.2,0.5702 -4.3582,1.4336 -6.4227,2.6256 z"
         style="fill:#ffdec6;fill-opacity:1;stroke:none;display:inline"
         inkscape:connector-curvature="0" />
      <path
         id="path17818"
         d="m 1516.1188,1100.4634 c 3.4659,5.1874 8.7627,9.0536 14.9687,10.6562 1.5262,-1.8723 3.8634,-3.0937 6.4688,-3.0937 2.6051,0 4.9428,1.2211 6.4687,3.0937 6.2064,-1.6025 11.5028,-5.4688 14.9688,-10.6562 l -7.2813,-4.3438 c -3.1329,4.4515 -8.297,7.375 -14.1562,7.375 -5.8583,0 -11.023,-2.9235 -14.1563,-7.375 l -7.2812,4.3438 z"
         style="fill:#ffecd9;fill-opacity:1;stroke:none;display:inline"
         inkscape:connector-curvature="0" />
      <path
         id="path9328"
         d="m 1531.6188,1116.3696 c 0,3.2746 2.6629,5.9375 5.9375,5.9375 3.2735,0 5.9375,-2.6629 5.9375,-5.9375 0,-3.2735 -2.664,-5.9375 -5.9375,-5.9375 -3.2746,0 -5.9375,2.664 -5.9375,5.9375 z"
         style="fill:#ffdec6;fill-opacity:1;stroke:none;display:inline"
         inkscape:connector-curvature="0" />
      <path
         id="path17814"
         d="m 1571.7312,1072.2931 c -1.7104,1.0394 -2.8613,2.8954 -2.8613,5.0439 0,3.2725 2.6571,5.9586 5.9298,5.9584 3.2739,5e-4 5.9428,-2.6845 5.9428,-5.957 -10e-5,-3.2738 -2.6674,-5.9155 -5.9413,-5.9156 -1.1251,0 -2.1738,0.3258 -3.0699,0.8703 z"
         style="fill:#ffecd9;fill-opacity:1;stroke:none;display:inline"
         inkscape:connector-curvature="0" />
      <path
         id="path9330"
         d="m 1561.9242,1085.2442 c -3.5502,2.0497 -6.4225,4.8079 -8.55,8.0036 l 7.2755,4.3515 c 1.4042,-2.0019 3.2358,-3.7446 5.4932,-5.048 7.8341,-4.523 17.7342,-2.2283 22.8296,5.042 l 7.2446,-4.327 c -3.6248,-5.447 -9.0388,-9.11 -14.9899,-10.6507 -1.526,1.8642 -3.8264,3.0597 -6.4246,3.0597 -2.6019,0 -4.9298,-1.1886 -6.4557,-3.0567 -2.2,0.5702 -4.3582,1.4337 -6.4227,2.6256 z"
         style="fill:#fff4e5;fill-opacity:1;stroke:none;display:inline"
         inkscape:connector-curvature="0" />
      <path
         inkscape:connector-curvature="0"
         style="fill:#ffdec6;fill-opacity:1;stroke:none;display:inline"
         d="m 1497.2576,1093.4603 c -1.7105,1.0394 -2.8614,2.8954 -2.8614,5.044 0,3.2724 2.6571,5.9585 5.9299,5.9583 3.2738,5e-4 5.9427,-2.6845 5.9427,-5.9569 -2e-4,-3.2739 -2.6673,-5.9155 -5.9413,-5.9157 -1.1252,0 -2.1739,0.3259 -3.0699,0.8703 z"
         id="path17918" />
      <path
         inkscape:connector-curvature="0"
         style="fill:#ffecd9;fill-opacity:1;stroke:none;display:inline"
         d="m 1487.4505,1106.4115 c -3.5502,2.0497 -6.4225,4.8078 -8.55,8.0035 l 7.2755,4.3515 c 1.4042,-2.0019 3.2358,-3.7446 5.4932,-5.0479 7.8341,-4.523 17.7342,-2.2284 22.8296,5.0419 l 7.2446,-4.327 c -3.6248,-5.4469 -9.0387,-9.11 -14.9899,-10.6507 -1.526,1.8642 -3.8264,3.0597 -6.4246,3.0597 -2.6019,0 -4.9298,-1.1886 -6.4557,-3.0566 -2.2,0.5702 -4.3582,1.4336 -6.4227,2.6256 z"
         id="path17920" />
      <path
         inkscape:connector-curvature="0"
         style="fill:#fff4e5;fill-opacity:1;stroke:none;display:inline"
         d="m 1516.1238,1121.6491 c 3.4659,5.1874 8.7627,9.0537 14.9687,10.6563 1.5262,-1.8723 3.8634,-3.0938 6.4688,-3.0938 2.6051,0 4.9428,1.2212 6.4687,3.0938 6.2064,-1.6025 11.5028,-5.4689 14.9688,-10.6563 l -7.2813,-4.3437 c -3.1329,4.4515 -8.297,7.375 -14.1562,7.375 -5.8583,0 -11.023,-2.9235 -14.1563,-7.375 l -7.2812,4.3437 z"
         id="path17924" />
      <path
         inkscape:connector-curvature="0"
         style="fill:#ffecd9;fill-opacity:1;stroke:none;display:inline"
         d="m 1531.6238,1137.5554 c 0,3.2745 2.6629,5.9375 5.9375,5.9375 3.2735,0 5.9375,-2.663 5.9375,-5.9375 0,-3.2735 -2.664,-5.9375 -5.9375,-5.9375 -3.2746,0 -5.9375,2.664 -5.9375,5.9375 z"
         id="path17926" />
      <path
         inkscape:connector-curvature="0"
         style="fill:#fff4e5;fill-opacity:1;stroke:none;display:inline"
         d="m 1571.7362,1093.4788 c -1.7104,1.0394 -2.8613,2.8954 -2.8613,5.044 0,3.2725 2.6571,5.9586 5.9298,5.9583 3.2739,6e-4 5.9428,-2.6844 5.9427,-5.9569 -10e-5,-3.2739 -2.6673,-5.9155 -5.9413,-5.9156 -1.1251,0 -2.1738,0.3258 -3.0699,0.8702 z"
         id="path17928" />
      <path
         inkscape:connector-curvature="0"
         style="fill:#ffdec6;fill-opacity:1;stroke:none;display:inline"
         d="m 1561.9292,1106.43 c -3.5502,2.0497 -6.4225,4.8078 -8.55,8.0035 l 7.2755,4.3515 c 1.4042,-2.0018 3.2358,-3.7446 5.4932,-5.0479 7.8341,-4.523 17.7342,-2.2284 22.8296,5.042 l 7.2446,-4.327 c -3.6248,-5.447 -9.0388,-9.1101 -14.9899,-10.6508 -1.526,1.8642 -3.8264,3.0597 -6.4246,3.0598 -2.6019,-10e-5 -4.9298,-1.1886 -6.4557,-3.0567 -2.2,0.5702 -4.3582,1.4337 -6.4227,2.6256 z"
         id="path17930" />
      <path
         id="path17964"
         d="m 1571.7413,1114.6646 c -1.7105,1.0394 -2.8614,2.8954 -2.8614,5.044 1e-4,3.2725 2.6571,5.9585 5.9299,5.9583 3.2739,5e-4 5.9427,-2.6844 5.9427,-5.9569 -2e-4,-3.2739 -2.6673,-5.9155 -5.9413,-5.9157 -1.1252,10e-5 -2.1739,0.3259 -3.0699,0.8703 z"
         style="fill:#ffdec6;fill-opacity:1;stroke:none;display:inline"
         inkscape:connector-curvature="0" />
      <path
         id="path17966"
         d="m 1561.9342,1127.6158 c -3.5502,2.0497 -6.4225,4.8078 -8.55,8.0035 l 7.2755,4.3515 c 1.4042,-2.0019 3.2358,-3.7446 5.4933,-5.0479 7.834,-4.523 17.7341,-2.2284 22.8295,5.0419 l 7.2446,-4.327 c -3.6248,-5.4469 -9.0387,-9.11 -14.9899,-10.6507 -1.5259,1.8642 -3.8264,3.0597 -6.4246,3.0597 -2.6019,0 -4.9297,-1.1885 -6.4557,-3.0566 -2.1999,0.5702 -4.3582,1.4336 -6.4227,2.6256 z"
         style="fill:#ffecd9;fill-opacity:1;stroke:none;display:inline"
         inkscape:connector-curvature="0" />
      <path
         inkscape:connector-curvature="0"
         style="fill:#ffdec6;fill-opacity:1;stroke:none;display:inline"
         d="m 1199.3377,1072.2931 c -1.7104,1.0393 -2.8613,2.8954 -2.8614,5.044 10e-5,3.2724 2.6572,5.9585 5.9299,5.9583 3.2739,5e-4 5.9428,-2.6845 5.9427,-5.957 -10e-5,-3.2738 -2.6673,-5.9154 -5.9413,-5.9156 -1.1251,10e-5 -2.1739,0.3259 -3.0699,0.8703 z"
         id="path3490" />
      <path
         inkscape:connector-curvature="0"
         style="fill:#ffecd9;fill-opacity:1;stroke:none;display:inline"
         d="m 1189.5307,1085.2443 c -3.5502,2.0497 -6.4225,4.8078 -8.55,8.0035 l 7.2755,4.3515 c 1.4042,-2.0019 3.2357,-3.7446 5.4932,-5.048 7.8341,-4.523 17.7342,-2.2283 22.8296,5.042 l 7.2446,-4.327 c -3.6249,-5.4469 -9.0388,-9.11 -14.9899,-10.6507 -1.526,1.8642 -3.8265,3.0597 -6.4246,3.0597 -2.6019,0 -4.9298,-1.1886 -6.4558,-3.0566 -2.1999,0.5702 -4.3581,1.4336 -6.4226,2.6256 z"
         id="path3492" />
      <path
         inkscape:connector-curvature="0"
         style="fill:#fff4e5;fill-opacity:1;stroke:none;display:inline"
         d="m 1218.204,1100.4819 c 3.4659,5.1874 8.7627,9.0537 14.9687,10.6563 1.5262,-1.8723 3.8634,-3.0938 6.4688,-3.0938 2.6051,0 4.9428,1.2212 6.4687,3.0938 6.2064,-1.6026 11.5028,-5.4689 14.9688,-10.6563 l -7.2813,-4.3437 c -3.1329,4.4515 -8.297,7.375 -14.1562,7.375 -5.8583,0 -11.023,-2.9235 -14.1563,-7.375 l -7.2812,4.3437 z"
         id="path3494" />
      <path
         inkscape:connector-curvature="0"
         style="fill:#ffecd9;fill-opacity:1;stroke:none;display:inline"
         d="m 1233.704,1116.3882 c 0,3.2745 2.6629,5.9375 5.9375,5.9375 3.2735,0 5.9375,-2.663 5.9375,-5.9375 0,-3.2735 -2.664,-5.9375 -5.9375,-5.9375 -3.2746,0 -5.9375,2.664 -5.9375,5.9375 z"
         id="path3496" />
      <path
         inkscape:connector-curvature="0"
         style="fill:#fff4e5;fill-opacity:1;stroke:none;display:inline"
         d="m 1273.8164,1072.3116 c -1.7104,1.0394 -2.8613,2.8954 -2.8613,5.044 0,3.2725 2.6571,5.9586 5.9298,5.9583 3.2739,6e-4 5.9428,-2.6844 5.9427,-5.9569 -10e-5,-3.2739 -2.6673,-5.9155 -5.9413,-5.9157 -1.1251,10e-5 -2.1738,0.3259 -3.0699,0.8703 z"
         id="path3498" />
      <path
         inkscape:connector-curvature="0"
         style="fill:#ffdec6;fill-opacity:1;stroke:none;display:inline"
         d="m 1264.0094,1085.2628 c -3.5502,2.0497 -6.4225,4.8078 -8.55,8.0035 l 7.2755,4.3515 c 1.4042,-2.0018 3.2358,-3.7446 5.4932,-5.0479 7.8341,-4.523 17.7342,-2.2284 22.8296,5.042 l 7.2446,-4.327 c -3.6248,-5.447 -9.0388,-9.1101 -14.9899,-10.6508 -1.526,1.8642 -3.8264,3.0597 -6.4246,3.0597 -2.6019,0 -4.9298,-1.1885 -6.4557,-3.0566 -2.2,0.5702 -4.3582,1.4336 -6.4227,2.6256 z"
         id="path3500" />
      <path
         inkscape:connector-curvature="0"
         style="fill:#ffecd9;fill-opacity:1;stroke:none;display:inline"
         d="m 1292.6827,1100.5005 c 3.4659,5.1874 8.7627,9.0536 14.9687,10.6562 1.5262,-1.8723 3.8634,-3.0937 6.4688,-3.0937 2.6051,0 4.9428,1.2211 6.4687,3.0937 6.2064,-1.6025 11.5028,-5.4689 14.9688,-10.6562 l -7.2813,-4.3438 c -3.1329,4.4514 -8.297,7.375 -14.1562,7.375 -5.8583,0 -11.023,-2.9236 -14.1563,-7.375 l -7.2812,4.3438 z"
         id="path3502" />
      <path
         inkscape:connector-curvature="0"
         style="fill:#ffdec6;fill-opacity:1;stroke:none;display:inline"
         d="m 1308.1827,1116.4067 c 0,3.2746 2.6629,5.9375 5.9375,5.9375 3.2735,0 5.9375,-2.6629 5.9375,-5.9375 0,-3.2735 -2.664,-5.9375 -5.9375,-5.9375 -3.2746,0 -5.9375,2.664 -5.9375,5.9375 z"
         id="path3504" />
      <path
         inkscape:connector-curvature="0"
         style="fill:#ffecd9;fill-opacity:1;stroke:none;display:inline"
         d="m 1348.2951,1072.3302 c -1.7104,1.0394 -2.8613,2.8954 -2.8613,5.0439 0,3.2725 2.6571,5.9585 5.9298,5.9583 3.2739,6e-4 5.9428,-2.6845 5.9428,-5.957 -10e-5,-3.2738 -2.6674,-5.9155 -5.9413,-5.9156 -1.1251,0 -2.1738,0.3258 -3.0699,0.8703 z"
         id="path3506" />
      <path
         inkscape:connector-curvature="0"
         style="fill:#fff4e5;fill-opacity:1;stroke:none;display:inline"
         d="m 1338.4881,1085.2813 c -3.5502,2.0497 -6.4225,4.8079 -8.55,8.0036 l 7.2755,4.3515 c 1.4042,-2.0019 3.2358,-3.7446 5.4932,-5.048 7.8341,-4.523 17.7342,-2.2283 22.8296,5.042 l 7.2446,-4.327 c -3.6248,-5.447 -9.0388,-9.11 -14.9899,-10.6507 -1.526,1.8642 -3.8264,3.0597 -6.4246,3.0597 -2.6019,0 -4.9298,-1.1886 -6.4557,-3.0567 -2.2,0.5702 -4.3582,1.4337 -6.4227,2.6256 z"
         id="path3508" />
      <path
         inkscape:connector-curvature="0"
         style="fill:#ffdec6;fill-opacity:1;stroke:none;display:inline"
         d="m 1367.1614,1100.519 c 3.4659,5.1874 8.7627,9.0536 14.9687,10.6563 1.5262,-1.8723 3.8634,-3.0938 6.4688,-3.0938 2.6051,0 4.9428,1.2212 6.4687,3.0938 6.2064,-1.6026 11.5028,-5.4689 14.9688,-10.6563 l -7.2813,-4.3438 c -3.1329,4.4515 -8.297,7.375 -14.1562,7.3751 -5.8583,-1e-4 -11.023,-2.9236 -14.1563,-7.3751 l -7.2812,4.3438 z"
         id="path3510" />
      <path
         inkscape:connector-curvature="0"
         style="fill:#fff4e5;fill-opacity:1;stroke:none;display:inline"
         d="m 1382.6614,1116.4252 c 0,3.2746 2.6629,5.9375 5.9375,5.9375 3.2735,0 5.9375,-2.6629 5.9375,-5.9375 0,-3.2735 -2.664,-5.9375 -5.9375,-5.9375 -3.2746,0 -5.9375,2.664 -5.9375,5.9375 z"
         id="path3512" />
      <path
         id="path3514"
         d="m 1273.8215,1093.4974 c -1.7105,1.0394 -2.8614,2.8954 -2.8614,5.044 0,3.2724 2.6571,5.9585 5.9299,5.9583 3.2738,5e-4 5.9427,-2.6845 5.9427,-5.9569 -2e-4,-3.2739 -2.6673,-5.9155 -5.9413,-5.9157 -1.1252,0 -2.1739,0.3259 -3.0699,0.8703 z"
         style="fill:#ffdec6;fill-opacity:1;stroke:none;display:inline"
         inkscape:connector-curvature="0" />
      <path
         id="path3516"
         d="m 1264.0144,1106.4486 c -3.5502,2.0497 -6.4225,4.8078 -8.55,8.0035 l 7.2755,4.3515 c 1.4042,-2.0019 3.2358,-3.7446 5.4932,-5.0479 7.8341,-4.523 17.7342,-2.2284 22.8296,5.0419 l 7.2446,-4.327 c -3.6248,-5.4469 -9.0387,-9.11 -14.9899,-10.6507 -1.526,1.8642 -3.8264,3.0597 -6.4246,3.0597 -2.6019,0 -4.9298,-1.1886 -6.4557,-3.0566 -2.2,0.5702 -4.3582,1.4336 -6.4227,2.6256 z"
         style="fill:#ffecd9;fill-opacity:1;stroke:none;display:inline"
         inkscape:connector-curvature="0" />
      <path
         id="path3518"
         d="m 1292.6877,1121.6862 c 3.4659,5.1874 8.7627,9.0537 14.9687,10.6563 1.5262,-1.8723 3.8634,-3.0938 6.4688,-3.0938 2.6051,0 4.9428,1.2212 6.4687,3.0938 6.2064,-1.6025 11.5028,-5.4689 14.9688,-10.6563 l -7.2813,-4.3437 c -3.1329,4.4515 -8.297,7.375 -14.1562,7.375 -5.8583,0 -11.023,-2.9235 -14.1563,-7.375 l -7.2812,4.3437 z"
         style="fill:#fff4e5;fill-opacity:1;stroke:none;display:inline"
         inkscape:connector-curvature="0" />
      <path
         id="path3520"
         d="m 1308.1877,1137.5925 c 0,3.2745 2.6629,5.9375 5.9375,5.9375 3.2735,0 5.9375,-2.663 5.9375,-5.9375 0,-3.2735 -2.664,-5.9375 -5.9375,-5.9375 -3.2746,0 -5.9375,2.664 -5.9375,5.9375 z"
         style="fill:#ffecd9;fill-opacity:1;stroke:none;display:inline"
         inkscape:connector-curvature="0" />
      <path
         id="path3522"
         d="m 1348.3001,1093.5159 c -1.7104,1.0393 -2.8613,2.8954 -2.8613,5.044 0,3.2725 2.6571,5.9586 5.9298,5.9583 3.2739,6e-4 5.9428,-2.6844 5.9427,-5.9569 -10e-5,-3.2739 -2.6673,-5.9155 -5.9413,-5.9156 -1.1251,0 -2.1738,0.3258 -3.0699,0.8702 z"
         style="fill:#fff4e5;fill-opacity:1;stroke:none;display:inline"
         inkscape:connector-curvature="0" />
      <path
         id="path3524"
         d="m 1338.4931,1106.4671 c -3.5502,2.0497 -6.4225,4.8078 -8.55,8.0035 l 7.2755,4.3515 c 1.4042,-2.0018 3.2358,-3.7446 5.4932,-5.0479 7.8341,-4.523 17.7342,-2.2284 22.8296,5.042 l 7.2446,-4.327 c -3.6248,-5.447 -9.0388,-9.1101 -14.9899,-10.6508 -1.526,1.8642 -3.8264,3.0597 -6.4246,3.0598 -2.6019,-10e-5 -4.9298,-1.1886 -6.4557,-3.0567 -2.2,0.5702 -4.3582,1.4337 -6.4227,2.6256 z"
         style="fill:#ffdec6;fill-opacity:1;stroke:none;display:inline"
         inkscape:connector-curvature="0" />
      <path
         id="path3526"
         d="m 1367.1664,1121.7048 c 3.4659,5.1874 8.7627,9.0536 14.9687,10.6562 1.5262,-1.8723 3.8634,-3.0937 6.4688,-3.0937 2.6051,0 4.9428,1.2211 6.4687,3.0937 6.2064,-1.6025 11.5028,-5.4688 14.9688,-10.6562 l -7.2813,-4.3438 c -3.1329,4.4515 -8.297,7.375 -14.1562,7.375 -5.8583,0 -11.023,-2.9235 -14.1563,-7.375 l -7.2812,4.3438 z"
         style="fill:#ffecd9;fill-opacity:1;stroke:none;display:inline"
         inkscape:connector-curvature="0" />
      <path
         id="path3528"
         d="m 1382.6664,1137.611 c 0,3.2746 2.6629,5.9375 5.9375,5.9375 3.2735,0 5.9375,-2.6629 5.9375,-5.9375 0,-3.2735 -2.664,-5.9375 -5.9375,-5.9375 -3.2746,0 -5.9375,2.664 -5.9375,5.9375 z"
         style="fill:#ffdec6;fill-opacity:1;stroke:none;display:inline"
         inkscape:connector-curvature="0" />
      <path
         id="path3530"
         d="m 1422.7788,1093.5345 c -1.7104,1.0394 -2.8613,2.8954 -2.8613,5.0439 0,3.2725 2.6571,5.9586 5.9298,5.9584 3.2739,5e-4 5.9428,-2.6845 5.9428,-5.9571 -10e-5,-3.2737 -2.6674,-5.9155 -5.9413,-5.9156 -1.1251,0 -2.1738,0.3259 -3.0699,0.8703 z"
         style="fill:#ffecd9;fill-opacity:1;stroke:none;display:inline"
         inkscape:connector-curvature="0" />
      <path
         id="path3532"
         d="m 1412.9718,1106.4856 c -3.5502,2.0497 -6.4225,4.8079 -8.55,8.0036 l 7.2755,4.3515 c 1.4042,-2.0019 3.2358,-3.7446 5.4932,-5.048 7.8341,-4.523 17.7342,-2.2283 22.8296,5.042 l 7.2446,-4.327 c -3.6248,-5.447 -9.0388,-9.11 -14.9899,-10.6507 -1.526,1.8642 -3.8264,3.0597 -6.4246,3.0597 -2.6019,0 -4.9298,-1.1886 -6.4557,-3.0567 -2.2,0.5702 -4.3582,1.4337 -6.4227,2.6256 z"
         style="fill:#fff4e5;fill-opacity:1;stroke:none;display:inline"
         inkscape:connector-curvature="0" />
      <path
         id="path3534"
         d="m 1441.6451,1121.7233 c 3.4659,5.1874 8.7627,9.0537 14.9687,10.6563 1.5262,-1.8723 3.8634,-3.0938 6.4688,-3.0938 2.6051,0 4.9428,1.2212 6.4687,3.0938 6.2064,-1.6026 11.5028,-5.4689 14.9688,-10.6563 l -7.2813,-4.3438 c -3.1329,4.4514 -8.297,7.375 -14.1562,7.375 -5.8583,0 -11.023,-2.9236 -14.1563,-7.375 l -7.2812,4.3438 z"
         style="fill:#ffdec6;fill-opacity:1;stroke:none;display:inline"
         inkscape:connector-curvature="0" />
      <path
         id="path3536"
         d="m 1457.1451,1137.6295 c 0,3.2746 2.6629,5.9376 5.9375,5.9376 3.2735,0 5.9375,-2.663 5.9375,-5.9376 0,-3.2734 -2.664,-5.9375 -5.9375,-5.9374 -3.2746,-10e-5 -5.9375,2.664 -5.9375,5.9374 z"
         style="fill:#fff4e5;fill-opacity:1;stroke:none;display:inline"
         inkscape:connector-curvature="0" />
      <path
         inkscape:connector-curvature="0"
         style="fill:#ffdec6;fill-opacity:1;stroke:none;display:inline"
         d="m 1348.3052,1114.7017 c -1.7105,1.0394 -2.8614,2.8954 -2.8614,5.044 10e-5,3.2725 2.6571,5.9585 5.9299,5.9583 3.2739,5e-4 5.9427,-2.6844 5.9427,-5.9569 -2e-4,-3.2739 -2.6673,-5.9155 -5.9413,-5.9157 -1.1252,10e-5 -2.1739,0.3259 -3.0699,0.8703 z"
         id="path3538" />
      <path
         inkscape:connector-curvature="0"
         style="fill:#ffecd9;fill-opacity:1;stroke:none;display:inline"
         d="m 1338.4981,1127.6529 c -3.5502,2.0497 -6.4225,4.8078 -8.55,8.0035 l 7.2755,4.3515 c 1.4042,-2.0019 3.2358,-3.7446 5.4933,-5.0479 7.834,-4.523 17.7341,-2.2284 22.8295,5.0419 l 7.2446,-4.327 c -3.6248,-5.4469 -9.0387,-9.11 -14.9899,-10.6507 -1.5259,1.8642 -3.8264,3.0597 -6.4246,3.0597 -2.6019,0 -4.9297,-1.1885 -6.4557,-3.0566 -2.1999,0.5702 -4.3582,1.4336 -6.4227,2.6256 z"
         id="path3540" />
      <path
         inkscape:connector-curvature="0"
         style="fill:#fff4e5;fill-opacity:1;stroke:none;display:inline"
         d="m 1367.1714,1142.8905 c 3.4659,5.1875 8.7627,9.0537 14.9687,10.6563 1.5262,-1.8723 3.8634,-3.0938 6.4688,-3.0938 2.6051,0 4.9428,1.2212 6.4687,3.0938 6.2064,-1.6025 11.5028,-5.4688 14.9688,-10.6563 l -7.2813,-4.3437 c -3.1329,4.4515 -8.297,7.375 -14.1562,7.375 -5.8583,0 -11.023,-2.9235 -14.1563,-7.375 l -7.2812,4.3437 z"
         id="path3550" />
      <path
         inkscape:connector-curvature="0"
         style="fill:#ffecd9;fill-opacity:1;stroke:none;display:inline"
         d="m 1382.6714,1158.7968 c 0,3.2745 2.6629,5.9375 5.9375,5.9375 3.2735,0 5.9375,-2.663 5.9375,-5.9375 0,-3.2735 -2.664,-5.9375 -5.9375,-5.9375 -3.2746,0 -5.9375,2.664 -5.9375,5.9375 z"
         id="path3552" />
      <path
         inkscape:connector-curvature="0"
         style="fill:#fff4e5;fill-opacity:1;stroke:none;display:inline"
         d="m 1422.7838,1114.7203 c -1.7104,1.0393 -2.8613,2.8954 -2.8613,5.0439 0,3.2725 2.6571,5.9586 5.9298,5.9583 3.2739,6e-4 5.9428,-2.6845 5.9427,-5.9569 -10e-5,-3.2739 -2.6673,-5.9155 -5.9413,-5.9156 -1.1251,0 -2.1738,0.3258 -3.0699,0.8702 z"
         id="path3554" />
      <path
         inkscape:connector-curvature="0"
         style="fill:#ffdec6;fill-opacity:1;stroke:none;display:inline"
         d="m 1412.9768,1127.6714 c -3.5502,2.0497 -6.4225,4.8078 -8.55,8.0035 l 7.2755,4.3515 c 1.4042,-2.0018 3.2358,-3.7445 5.4932,-5.0479 7.8341,-4.523 17.7342,-2.2283 22.8296,5.042 l 7.2446,-4.327 c -3.6248,-5.447 -9.0388,-9.1102 -14.9899,-10.6508 -1.526,1.8642 -3.8264,3.0598 -6.4246,3.0598 -2.6019,-10e-5 -4.9298,-1.1886 -6.4557,-3.0567 -2.2,0.5702 -4.3582,1.4337 -6.4227,2.6256 z"
         id="path3556" />
      <path
         inkscape:connector-curvature="0"
         style="fill:#ffecd9;fill-opacity:1;stroke:none;display:inline"
         d="m 1441.6501,1142.9091 c 3.4659,5.1874 8.7627,9.0536 14.9687,10.6561 1.5262,-1.8723 3.8634,-3.0936 6.4688,-3.0936 2.6051,0 4.9428,1.2212 6.4687,3.0936 6.2064,-1.6024 11.5028,-5.4688 14.9688,-10.6561 l -7.2813,-4.3439 c -3.1329,4.4515 -8.297,7.375 -14.1562,7.375 -5.8583,0 -11.023,-2.9235 -14.1563,-7.375 l -7.2812,4.3439 z"
         id="path3558" />
      <path
         inkscape:connector-curvature="0"
         style="fill:#ffdec6;fill-opacity:1;stroke:none;display:inline"
         d="m 1457.1501,1158.8153 c 0,3.2746 2.6629,5.9375 5.9375,5.9375 3.2735,0 5.9375,-2.6629 5.9375,-5.9375 0,-3.2735 -2.664,-5.9375 -5.9375,-5.9375 -3.2746,0 -5.9375,2.664 -5.9375,5.9375 z"
         id="path3560" />
      <path
         inkscape:connector-curvature="0"
         style="fill:#ffecd9;fill-opacity:1;stroke:none;display:inline"
         d="m 1497.2625,1114.7388 c -1.7104,1.0393 -2.8613,2.8954 -2.8613,5.0438 0,3.2726 2.6571,5.9586 5.9298,5.9584 3.2739,6e-4 5.9428,-2.6845 5.9428,-5.957 -10e-5,-3.2738 -2.6674,-5.9155 -5.9413,-5.9156 -1.1251,0 -2.1738,0.3258 -3.0699,0.8703 z"
         id="path3562" />
      <path
         inkscape:connector-curvature="0"
         style="fill:#fff4e5;fill-opacity:1;stroke:none;display:inline"
         d="m 1487.4555,1127.69 c -3.5502,2.0497 -6.4225,4.8078 -8.55,8.0035 l 7.2755,4.3515 c 1.4042,-2.0019 3.2358,-3.7446 5.4932,-5.048 7.8341,-4.523 17.7342,-2.2283 22.8296,5.042 l 7.2446,-4.327 c -3.6248,-5.447 -9.0388,-9.11 -14.9899,-10.6507 -1.526,1.8642 -3.8264,3.0597 -6.4246,3.0597 -2.6019,0 -4.9298,-1.1886 -6.4557,-3.0566 -2.2,0.5702 -4.3582,1.4336 -6.4227,2.6256 z"
         id="path3564" />
      <path
         inkscape:connector-curvature="0"
         style="fill:#ffdec6;fill-opacity:1;stroke:none;display:inline"
         d="m 1516.1288,1142.9276 c 3.4659,5.1874 8.7627,9.0537 14.9687,10.6563 1.5262,-1.8723 3.8634,-3.0938 6.4688,-3.0938 2.6051,0 4.9428,1.2212 6.4687,3.0938 6.2064,-1.6026 11.5028,-5.4689 14.9688,-10.6563 l -7.2813,-4.3437 c -3.1329,4.4515 -8.297,7.375 -14.1562,7.375 -5.8583,0 -11.023,-2.9235 -14.1563,-7.375 l -7.2812,4.3437 z"
         id="path3566" />
      <path
         inkscape:connector-curvature="0"
         style="fill:#fff4e5;fill-opacity:1;stroke:none;display:inline"
         d="m 1531.6288,1158.8339 c 0,3.2745 2.6629,5.9375 5.9375,5.9375 3.2735,0 5.9375,-2.663 5.9375,-5.9375 0,-3.2735 -2.664,-5.9375 -5.9375,-5.9375 -3.2746,0 -5.9375,2.664 -5.9375,5.9375 z"
         id="path3568" />
      <path
         inkscape:connector-curvature="0"
         style="fill:#ffdec6;fill-opacity:1;stroke:none;display:inline"
         d="m 975.90163,1072.256 c -1.71047,1.0394 -2.86135,2.8954 -2.86138,5.044 5e-5,3.2724 2.65712,5.9585 5.92987,5.9583 3.27389,5e-4 5.94276,-2.6845 5.94271,-5.957 -1.6e-4,-3.2738 -2.66731,-5.9154 -5.94131,-5.9156 -1.12515,10e-5 -2.17387,0.3259 -3.06989,0.8703 z"
         id="path3652" />
      <path
         inkscape:connector-curvature="0"
         style="fill:#ffecd9;fill-opacity:1;stroke:none;display:inline"
         d="m 966.09456,1085.2072 c -3.55018,2.0497 -6.4225,4.8078 -8.54998,8.0035 l 7.27548,4.3515 c 1.40421,-2.0019 3.23578,-3.7446 5.49325,-5.048 7.83407,-4.523 17.73415,-2.2283 22.82957,5.042 l 7.24462,-4.327 c -3.62485,-5.4469 -9.03877,-9.11 -14.98992,-10.6507 -1.52597,1.8642 -3.82643,3.0597 -6.42462,3.0597 -2.6019,0 -4.92974,-1.1886 -6.45572,-3.0566 -2.19994,0.5702 -4.35816,1.4336 -6.42268,2.6256 z"
         id="path3654" />
      <path
         inkscape:connector-curvature="0"
         style="fill:#fff4e5;fill-opacity:1;stroke:none;display:inline"
         d="m 994.76789,1100.4448 c 3.4659,5.1874 8.76271,9.0537 14.96871,10.6563 1.5262,-1.8723 3.8634,-3.0938 6.4688,-3.0938 2.6051,0 4.9428,1.2212 6.4687,3.0938 6.2064,-1.6026 11.5028,-5.4689 14.9688,-10.6563 l -7.2813,-4.3437 c -3.1329,4.4515 -8.297,7.375 -14.1562,7.375 -5.8583,0 -11.023,-2.9235 -14.1563,-7.375 l -7.28121,4.3437 z"
         id="path3656" />
      <path
         inkscape:connector-curvature="0"
         style="fill:#ffecd9;fill-opacity:1;stroke:none;display:inline"
         d="m 1010.2679,1116.3511 c 0,3.2745 2.6629,5.9375 5.9375,5.9375 3.2735,0 5.9375,-2.663 5.9375,-5.9375 0,-3.2735 -2.664,-5.9375 -5.9375,-5.9375 -3.2746,0 -5.9375,2.664 -5.9375,5.9375 z"
         id="path3658" />
      <path
         inkscape:connector-curvature="0"
         style="fill:#fff4e5;fill-opacity:1;stroke:none;display:inline"
         d="m 1050.3803,1072.2745 c -1.7104,1.0394 -2.8613,2.8954 -2.8613,5.044 0,3.2725 2.6571,5.9586 5.9298,5.9583 3.2739,6e-4 5.9428,-2.6844 5.9427,-5.9569 -10e-5,-3.2739 -2.6673,-5.9155 -5.9413,-5.9157 -1.1251,10e-5 -2.1738,0.3259 -3.0699,0.8703 z"
         id="path3660" />
      <path
         inkscape:connector-curvature="0"
         style="fill:#ffdec6;fill-opacity:1;stroke:none;display:inline"
         d="m 1040.5733,1085.2257 c -3.5502,2.0497 -6.4225,4.8078 -8.55,8.0035 l 7.2755,4.3515 c 1.4042,-2.0018 3.2358,-3.7446 5.4932,-5.0479 7.8341,-4.523 17.7342,-2.2284 22.8296,5.042 l 7.2446,-4.327 c -3.6248,-5.447 -9.0388,-9.1101 -14.9899,-10.6508 -1.526,1.8642 -3.8264,3.0597 -6.4246,3.0597 -2.6019,0 -4.9298,-1.1885 -6.4557,-3.0566 -2.2,0.5702 -4.3582,1.4336 -6.4227,2.6256 z"
         id="path3662" />
      <path
         inkscape:connector-curvature="0"
         style="fill:#ffecd9;fill-opacity:1;stroke:none;display:inline"
         d="m 1069.2466,1100.4634 c 3.4659,5.1874 8.7627,9.0536 14.9687,10.6562 1.5262,-1.8723 3.8634,-3.0937 6.4688,-3.0937 2.6051,0 4.9428,1.2211 6.4687,3.0937 6.2064,-1.6025 11.5028,-5.4688 14.9688,-10.6562 l -7.2813,-4.3438 c -3.1329,4.4515 -8.297,7.375 -14.1562,7.375 -5.8583,0 -11.023,-2.9235 -14.1563,-7.375 l -7.2812,4.3438 z"
         id="path3664" />
      <path
         inkscape:connector-curvature="0"
         style="fill:#ffdec6;fill-opacity:1;stroke:none;display:inline"
         d="m 1084.7466,1116.3696 c 0,3.2746 2.6629,5.9375 5.9375,5.9375 3.2735,0 5.9375,-2.6629 5.9375,-5.9375 0,-3.2735 -2.664,-5.9375 -5.9375,-5.9375 -3.2746,0 -5.9375,2.664 -5.9375,5.9375 z"
         id="path3666" />
      <path
         inkscape:connector-curvature="0"
         style="fill:#ffecd9;fill-opacity:1;stroke:none;display:inline"
         d="m 1124.859,1072.2931 c -1.7104,1.0394 -2.8613,2.8954 -2.8613,5.0439 0,3.2725 2.6571,5.9586 5.9298,5.9584 3.2739,5e-4 5.9428,-2.6845 5.9428,-5.957 -10e-5,-3.2738 -2.6674,-5.9155 -5.9413,-5.9156 -1.1251,0 -2.1738,0.3258 -3.0699,0.8703 z"
         id="path3668" />
      <path
         inkscape:connector-curvature="0"
         style="fill:#fff4e5;fill-opacity:1;stroke:none;display:inline"
         d="m 1115.052,1085.2442 c -3.5502,2.0497 -6.4225,4.8079 -8.55,8.0036 l 7.2755,4.3515 c 1.4042,-2.0019 3.2358,-3.7446 5.4932,-5.048 7.8341,-4.523 17.7342,-2.2283 22.8296,5.042 l 7.2446,-4.327 c -3.6248,-5.447 -9.0388,-9.11 -14.9899,-10.6507 -1.526,1.8642 -3.8264,3.0597 -6.4246,3.0597 -2.6019,0 -4.9298,-1.1886 -6.4557,-3.0567 -2.2,0.5702 -4.3582,1.4337 -6.4227,2.6256 z"
         id="path3670" />
      <path
         inkscape:connector-curvature="0"
         style="fill:#ffdec6;fill-opacity:1;stroke:none;display:inline"
         d="m 1143.7253,1100.4819 c 3.4659,5.1874 8.7627,9.0536 14.9687,10.6563 1.5262,-1.8723 3.8634,-3.0938 6.4688,-3.0938 2.6051,0 4.9428,1.2212 6.4687,3.0938 6.2064,-1.6026 11.5028,-5.4689 14.9688,-10.6563 l -7.2813,-4.3438 c -3.1329,4.4515 -8.297,7.375 -14.1562,7.3751 -5.8583,-1e-4 -11.023,-2.9236 -14.1563,-7.3751 l -7.2812,4.3438 z"
         id="path3672" />
      <path
         inkscape:connector-curvature="0"
         style="fill:#fff4e5;fill-opacity:1;stroke:none;display:inline"
         d="m 1159.2253,1116.3881 c 0,3.2746 2.6629,5.9375 5.9375,5.9375 3.2735,0 5.9375,-2.6629 5.9375,-5.9375 0,-3.2735 -2.664,-5.9375 -5.9375,-5.9375 -3.2746,0 -5.9375,2.664 -5.9375,5.9375 z"
         id="path3674" />
      <path
         id="path3676"
         d="m 1050.3854,1093.4603 c -1.7105,1.0394 -2.8614,2.8954 -2.8614,5.044 0,3.2724 2.6571,5.9585 5.9299,5.9583 3.2738,5e-4 5.9427,-2.6845 5.9427,-5.9569 -2e-4,-3.2739 -2.6673,-5.9155 -5.9413,-5.9157 -1.1252,0 -2.1739,0.3259 -3.0699,0.8703 z"
         style="fill:#ffdec6;fill-opacity:1;stroke:none;display:inline"
         inkscape:connector-curvature="0" />
      <path
         id="path3678"
         d="m 1040.5783,1106.4115 c -3.5502,2.0497 -6.4225,4.8078 -8.55,8.0035 l 7.2755,4.3515 c 1.4042,-2.0019 3.2358,-3.7446 5.4932,-5.0479 7.8341,-4.523 17.7342,-2.2284 22.8296,5.0419 l 7.2446,-4.327 c -3.6248,-5.4469 -9.0387,-9.11 -14.9899,-10.6507 -1.526,1.8642 -3.8264,3.0597 -6.4246,3.0597 -2.6019,0 -4.9298,-1.1886 -6.4557,-3.0566 -2.2,0.5702 -4.3582,1.4336 -6.4227,2.6256 z"
         style="fill:#ffecd9;fill-opacity:1;stroke:none;display:inline"
         inkscape:connector-curvature="0" />
      <path
         id="path3680"
         d="m 1069.2516,1121.6491 c 3.4659,5.1874 8.7627,9.0537 14.9687,10.6563 1.5262,-1.8723 3.8634,-3.0938 6.4688,-3.0938 2.6051,0 4.9428,1.2212 6.4687,3.0938 6.2064,-1.6025 11.5028,-5.4689 14.9688,-10.6563 l -7.2813,-4.3437 c -3.1329,4.4515 -8.297,7.375 -14.1562,7.375 -5.8583,0 -11.023,-2.9235 -14.1563,-7.375 l -7.2812,4.3437 z"
         style="fill:#fff4e5;fill-opacity:1;stroke:none;display:inline"
         inkscape:connector-curvature="0" />
      <path
         id="path3682"
         d="m 1084.7516,1137.5554 c 0,3.2745 2.6629,5.9375 5.9375,5.9375 3.2735,0 5.9375,-2.663 5.9375,-5.9375 0,-3.2735 -2.664,-5.9375 -5.9375,-5.9375 -3.2746,0 -5.9375,2.664 -5.9375,5.9375 z"
         style="fill:#ffecd9;fill-opacity:1;stroke:none;display:inline"
         inkscape:connector-curvature="0" />
      <path
         id="path3684"
         d="m 1124.864,1093.4788 c -1.7104,1.0394 -2.8613,2.8954 -2.8613,5.044 0,3.2725 2.6571,5.9586 5.9298,5.9583 3.2739,6e-4 5.9428,-2.6844 5.9427,-5.9569 -10e-5,-3.2739 -2.6673,-5.9155 -5.9413,-5.9156 -1.1251,0 -2.1738,0.3258 -3.0699,0.8702 z"
         style="fill:#fff4e5;fill-opacity:1;stroke:none;display:inline"
         inkscape:connector-curvature="0" />
      <path
         id="path3686"
         d="m 1115.057,1106.43 c -3.5502,2.0497 -6.4225,4.8078 -8.55,8.0035 l 7.2755,4.3515 c 1.4042,-2.0018 3.2358,-3.7446 5.4932,-5.0479 7.8341,-4.523 17.7342,-2.2284 22.8296,5.042 l 7.2446,-4.327 c -3.6248,-5.447 -9.0388,-9.1101 -14.9899,-10.6508 -1.526,1.8642 -3.8264,3.0597 -6.4246,3.0598 -2.6019,-10e-5 -4.9298,-1.1886 -6.4557,-3.0567 -2.2,0.5702 -4.3582,1.4337 -6.4227,2.6256 z"
         style="fill:#ffdec6;fill-opacity:1;stroke:none;display:inline"
         inkscape:connector-curvature="0" />
      <path
         id="path3688"
         d="m 1143.7303,1121.6677 c 3.4659,5.1874 8.7627,9.0536 14.9687,10.6562 1.5262,-1.8723 3.8634,-3.0937 6.4688,-3.0937 2.6051,0 4.9428,1.2211 6.4687,3.0937 6.2064,-1.6025 11.5028,-5.4688 14.9688,-10.6562 l -7.2813,-4.3438 c -3.1329,4.4515 -8.297,7.375 -14.1562,7.375 -5.8583,0 -11.023,-2.9235 -14.1563,-7.375 l -7.2812,4.3438 z"
         style="fill:#ffecd9;fill-opacity:1;stroke:none;display:inline"
         inkscape:connector-curvature="0" />
      <path
         id="path3690"
         d="m 1159.2303,1137.5739 c 0,3.2746 2.6629,5.9375 5.9375,5.9375 3.2735,0 5.9375,-2.6629 5.9375,-5.9375 0,-3.2735 -2.664,-5.9375 -5.9375,-5.9375 -3.2746,0 -5.9375,2.664 -5.9375,5.9375 z"
         style="fill:#ffdec6;fill-opacity:1;stroke:none;display:inline"
         inkscape:connector-curvature="0" />
      <path
         id="path3692"
         d="m 1199.3427,1093.4974 c -1.7104,1.0394 -2.8613,2.8954 -2.8613,5.0439 0,3.2725 2.6571,5.9586 5.9298,5.9584 3.2739,5e-4 5.9428,-2.6845 5.9428,-5.957 -10e-5,-3.2738 -2.6674,-5.9155 -5.9413,-5.9156 -1.1251,0 -2.1738,0.3258 -3.0699,0.8703 z"
         style="fill:#ffecd9;fill-opacity:1;stroke:none;display:inline"
         inkscape:connector-curvature="0" />
      <path
         id="path3694"
         d="m 1189.5357,1106.4485 c -3.5502,2.0497 -6.4225,4.8079 -8.55,8.0036 l 7.2755,4.3515 c 1.4042,-2.0019 3.2358,-3.7446 5.4932,-5.048 7.8341,-4.523 17.7342,-2.2283 22.8296,5.042 l 7.2446,-4.327 c -3.6248,-5.447 -9.0388,-9.11 -14.9899,-10.6507 -1.526,1.8642 -3.8264,3.0597 -6.4246,3.0597 -2.6019,0 -4.9298,-1.1886 -6.4557,-3.0567 -2.2,0.5702 -4.3582,1.4337 -6.4227,2.6256 z"
         style="fill:#fff4e5;fill-opacity:1;stroke:none;display:inline"
         inkscape:connector-curvature="0" />
      <path
         id="path3696"
         d="m 1218.209,1121.6862 c 3.4659,5.1874 8.7627,9.0537 14.9687,10.6563 1.5262,-1.8723 3.8634,-3.0938 6.4688,-3.0938 2.6051,0 4.9428,1.2212 6.4687,3.0938 6.2064,-1.6026 11.5028,-5.4689 14.9688,-10.6563 l -7.2813,-4.3438 c -3.1329,4.4515 -8.297,7.375 -14.1562,7.3751 -5.8583,-10e-5 -11.023,-2.9236 -14.1563,-7.3751 l -7.2812,4.3438 z"
         style="fill:#ffdec6;fill-opacity:1;stroke:none;display:inline"
         inkscape:connector-curvature="0" />
      <path
         id="path3698"
         d="m 1233.709,1137.5924 c 0,3.2746 2.6629,5.9376 5.9375,5.9376 3.2735,0 5.9375,-2.663 5.9375,-5.9376 0,-3.2734 -2.664,-5.9375 -5.9375,-5.9374 -3.2746,-10e-5 -5.9375,2.664 -5.9375,5.9374 z"
         style="fill:#fff4e5;fill-opacity:1;stroke:none;display:inline"
         inkscape:connector-curvature="0" />
      <path
         inkscape:connector-curvature="0"
         style="fill:#ffdec6;fill-opacity:1;stroke:none;display:inline"
         d="m 1124.8691,1114.6646 c -1.7105,1.0394 -2.8614,2.8954 -2.8614,5.044 10e-5,3.2725 2.6571,5.9585 5.9299,5.9583 3.2739,5e-4 5.9427,-2.6844 5.9427,-5.9569 -2e-4,-3.2739 -2.6673,-5.9155 -5.9413,-5.9157 -1.1252,10e-5 -2.1739,0.3259 -3.0699,0.8703 z"
         id="path3700" />
      <path
         inkscape:connector-curvature="0"
         style="fill:#ffecd9;fill-opacity:1;stroke:none;display:inline"
         d="m 1115.062,1127.6158 c -3.5502,2.0497 -6.4225,4.8078 -8.55,8.0035 l 7.2755,4.3515 c 1.4042,-2.0019 3.2358,-3.7446 5.4933,-5.0479 7.834,-4.523 17.7341,-2.2284 22.8295,5.0419 l 7.2446,-4.327 c -3.6248,-5.4469 -9.0387,-9.11 -14.9899,-10.6507 -1.5259,1.8642 -3.8264,3.0597 -6.4246,3.0597 -2.6019,0 -4.9297,-1.1885 -6.4557,-3.0566 -2.1999,0.5702 -4.3582,1.4336 -6.4227,2.6256 z"
         id="path3702" />
      <path
         inkscape:connector-curvature="0"
         style="fill:#fff4e5;fill-opacity:1;stroke:none;display:inline"
         d="m 1143.7353,1142.8534 c 3.4659,5.1875 8.7627,9.0537 14.9687,10.6563 1.5262,-1.8723 3.8634,-3.0938 6.4688,-3.0938 2.6051,0 4.9428,1.2212 6.4687,3.0938 6.2064,-1.6025 11.5028,-5.4688 14.9688,-10.6563 l -7.2813,-4.3437 c -3.1329,4.4515 -8.297,7.375 -14.1562,7.375 -5.8583,0 -11.023,-2.9235 -14.1563,-7.375 l -7.2812,4.3437 z"
         id="path3704" />
      <path
         inkscape:connector-curvature="0"
         style="fill:#ffecd9;fill-opacity:1;stroke:none;display:inline"
         d="m 1159.2353,1158.7597 c 0,3.2745 2.6629,5.9375 5.9375,5.9375 3.2735,0 5.9375,-2.663 5.9375,-5.9375 0,-3.2735 -2.664,-5.9375 -5.9375,-5.9375 -3.2746,0 -5.9375,2.664 -5.9375,5.9375 z"
         id="path3706" />
      <path
         inkscape:connector-curvature="0"
         style="fill:#fff4e5;fill-opacity:1;stroke:none;display:inline"
         d="m 1199.3477,1114.6832 c -1.7104,1.0393 -2.8613,2.8954 -2.8613,5.0439 0,3.2725 2.6571,5.9586 5.9298,5.9583 3.2739,6e-4 5.9428,-2.6844 5.9427,-5.9569 -10e-5,-3.2739 -2.6673,-5.9155 -5.9413,-5.9156 -1.1251,0 -2.1738,0.3258 -3.0699,0.8702 z"
         id="path3708" />
      <path
         inkscape:connector-curvature="0"
         style="fill:#ffdec6;fill-opacity:1;stroke:none;display:inline"
         d="m 1189.5407,1127.6343 c -3.5502,2.0497 -6.4225,4.8078 -8.55,8.0035 l 7.2755,4.3515 c 1.4042,-2.0018 3.2358,-3.7445 5.4932,-5.0479 7.8341,-4.523 17.7342,-2.2283 22.8296,5.042 l 7.2446,-4.327 c -3.6248,-5.447 -9.0388,-9.1101 -14.9899,-10.6508 -1.526,1.8642 -3.8264,3.0598 -6.4246,3.0598 -2.6019,-10e-5 -4.9298,-1.1886 -6.4557,-3.0567 -2.2,0.5702 -4.3582,1.4337 -6.4227,2.6256 z"
         id="path3710" />
      <path
         inkscape:connector-curvature="0"
         style="fill:#ffecd9;fill-opacity:1;stroke:none;display:inline"
         d="m 1218.214,1142.872 c 3.4659,5.1874 8.7627,9.0536 14.9687,10.6562 1.5262,-1.8723 3.8634,-3.0937 6.4688,-3.0937 2.6051,0 4.9428,1.2212 6.4687,3.0937 6.2064,-1.6025 11.5028,-5.4688 14.9688,-10.6562 l -7.2813,-4.3438 c -3.1329,4.4515 -8.297,7.375 -14.1562,7.375 -5.8583,0 -11.023,-2.9235 -14.1563,-7.375 l -7.2812,4.3438 z"
         id="path3712" />
      <path
         inkscape:connector-curvature="0"
         style="fill:#ffdec6;fill-opacity:1;stroke:none;display:inline"
         d="m 1233.714,1158.7782 c 0,3.2746 2.6629,5.9375 5.9375,5.9375 3.2735,0 5.9375,-2.6629 5.9375,-5.9375 0,-3.2735 -2.664,-5.9375 -5.9375,-5.9375 -3.2746,0 -5.9375,2.664 -5.9375,5.9375 z"
         id="path3714" />
      <path
         inkscape:connector-curvature="0"
         style="fill:#ffecd9;fill-opacity:1;stroke:none;display:inline"
         d="m 1273.8264,1114.7017 c -1.7104,1.0394 -2.8613,2.8954 -2.8613,5.0439 0,3.2725 2.6571,5.9586 5.9298,5.9584 3.2739,5e-4 5.9428,-2.6845 5.9428,-5.957 -10e-5,-3.2738 -2.6674,-5.9155 -5.9413,-5.9156 -1.1251,0 -2.1738,0.3258 -3.0699,0.8703 z"
         id="path3716" />
      <path
         inkscape:connector-curvature="0"
         style="fill:#fff4e5;fill-opacity:1;stroke:none;display:inline"
         d="m 1264.0194,1127.6529 c -3.5502,2.0497 -6.4225,4.8078 -8.55,8.0035 l 7.2755,4.3515 c 1.4042,-2.0019 3.2358,-3.7446 5.4932,-5.048 7.8341,-4.523 17.7342,-2.2283 22.8296,5.042 l 7.2446,-4.327 c -3.6248,-5.447 -9.0388,-9.11 -14.9899,-10.6507 -1.526,1.8642 -3.8264,3.0597 -6.4246,3.0597 -2.6019,0 -4.9298,-1.1886 -6.4557,-3.0566 -2.2,0.5702 -4.3582,1.4336 -6.4227,2.6256 z"
         id="path3718" />
      <path
         inkscape:connector-curvature="0"
         style="fill:#ffdec6;fill-opacity:1;stroke:none;display:inline"
         d="m 1292.6927,1142.8905 c 3.4659,5.1874 8.7627,9.0537 14.9687,10.6563 1.5262,-1.8723 3.8634,-3.0938 6.4688,-3.0938 2.6051,0 4.9428,1.2212 6.4687,3.0938 6.2064,-1.6026 11.5028,-5.4689 14.9688,-10.6563 l -7.2813,-4.3437 c -3.1329,4.4515 -8.297,7.375 -14.1562,7.375 -5.8583,0 -11.023,-2.9235 -14.1563,-7.375 l -7.2812,4.3437 z"
         id="path3720" />
      <path
         inkscape:connector-curvature="0"
         style="fill:#fff4e5;fill-opacity:1;stroke:none;display:inline"
         d="m 1308.1927,1158.7968 c 0,3.2745 2.6629,5.9375 5.9375,5.9375 3.2735,0 5.9375,-2.663 5.9375,-5.9375 0,-3.2735 -2.664,-5.9375 -5.9375,-5.9375 -3.2746,0 -5.9375,2.664 -5.9375,5.9375 z"
         id="path3722" />
      <path
         id="path3740"
         d="m 901.42292,1072.3302 c -1.7104,1.0394 -2.8613,2.8954 -2.8613,5.0439 0,3.2725 2.6571,5.9585 5.9298,5.9583 3.2739,6e-4 5.9428,-2.6845 5.9428,-5.957 -10e-5,-3.2738 -2.6674,-5.9155 -5.9413,-5.9156 -1.1251,0 -2.1738,0.3258 -3.0699,0.8703 z"
         style="fill:#ffecd9;fill-opacity:1;stroke:none;display:inline"
         inkscape:connector-curvature="0" />
      <path
         id="path3742"
         d="m 891.61592,1085.2813 c -3.5502,2.0497 -6.4225,4.8079 -8.55,8.0036 l 7.2755,4.3515 c 1.4042,-2.0019 3.2358,-3.7446 5.4932,-5.048 7.8341,-4.523 17.7342,-2.2283 22.8296,5.042 l 7.2446,-4.327 c -3.6248,-5.447 -9.0388,-9.11 -14.9899,-10.6507 -1.526,1.8642 -3.8264,3.0597 -6.4246,3.0597 -2.6019,0 -4.9298,-1.1886 -6.4557,-3.0567 -2.2,0.5702 -4.3582,1.4337 -6.4227,2.6256 z"
         style="fill:#fff4e5;fill-opacity:1;stroke:none;display:inline"
         inkscape:connector-curvature="0" />
      <path
         id="path3744"
         d="m 920.28922,1100.519 c 3.4659,5.1874 8.7627,9.0536 14.9687,10.6563 1.5262,-1.8723 3.8634,-3.0938 6.4688,-3.0938 2.6051,0 4.9428,1.2212 6.4687,3.0938 6.2064,-1.6026 11.5028,-5.4689 14.9688,-10.6563 l -7.2813,-4.3438 c -3.1329,4.4515 -8.297,7.375 -14.1562,7.3751 -5.8583,-1e-4 -11.023,-2.9236 -14.1563,-7.3751 l -7.2812,4.3438 z"
         style="fill:#ffdec6;fill-opacity:1;stroke:none;display:inline"
         inkscape:connector-curvature="0" />
      <path
         id="path3746"
         d="m 935.78922,1116.4252 c 0,3.2746 2.6629,5.9375 5.9375,5.9375 3.2735,0 5.9375,-2.6629 5.9375,-5.9375 0,-3.2735 -2.664,-5.9375 -5.9375,-5.9375 -3.2746,0 -5.9375,2.664 -5.9375,5.9375 z"
         style="fill:#fff4e5;fill-opacity:1;stroke:none;display:inline"
         inkscape:connector-curvature="0" />
      <path
         inkscape:connector-curvature="0"
         style="fill:#fff4e5;fill-opacity:1;stroke:none;display:inline"
         d="m 901.42792,1093.5159 c -1.7104,1.0393 -2.8613,2.8954 -2.8613,5.044 0,3.2725 2.6571,5.9586 5.9298,5.9583 3.2739,6e-4 5.9428,-2.6844 5.9427,-5.9569 -10e-5,-3.2739 -2.6673,-5.9155 -5.9413,-5.9156 -1.1251,0 -2.1738,0.3258 -3.0699,0.8702 z"
         id="path3756" />
      <path
         inkscape:connector-curvature="0"
         style="fill:#ffdec6;fill-opacity:1;stroke:none;display:inline"
         d="m 891.62092,1106.4671 c -3.5502,2.0497 -6.4225,4.8078 -8.55,8.0035 l 7.2755,4.3515 c 1.4042,-2.0018 3.2358,-3.7446 5.4932,-5.0479 7.8341,-4.523 17.7342,-2.2284 22.8296,5.042 l 7.2446,-4.327 c -3.6248,-5.447 -9.0388,-9.1101 -14.9899,-10.6508 -1.526,1.8642 -3.8264,3.0597 -6.4246,3.0598 -2.6019,-10e-5 -4.9298,-1.1886 -6.4557,-3.0567 -2.2,0.5702 -4.3582,1.4337 -6.4227,2.6256 z"
         id="path3758" />
      <path
         inkscape:connector-curvature="0"
         style="fill:#ffecd9;fill-opacity:1;stroke:none;display:inline"
         d="m 920.29422,1121.7048 c 3.4659,5.1874 8.7627,9.0536 14.9687,10.6562 1.5262,-1.8723 3.8634,-3.0937 6.4688,-3.0937 2.6051,0 4.9428,1.2211 6.4687,3.0937 6.2064,-1.6025 11.5028,-5.4688 14.9688,-10.6562 l -7.2813,-4.3438 c -3.1329,4.4515 -8.297,7.375 -14.1562,7.375 -5.8583,0 -11.023,-2.9235 -14.1563,-7.375 l -7.2812,4.3438 z"
         id="path3760" />
      <path
         inkscape:connector-curvature="0"
         style="fill:#ffdec6;fill-opacity:1;stroke:none;display:inline"
         d="m 935.79422,1137.611 c 0,3.2746 2.6629,5.9375 5.9375,5.9375 3.2735,0 5.9375,-2.6629 5.9375,-5.9375 0,-3.2735 -2.664,-5.9375 -5.9375,-5.9375 -3.2746,0 -5.9375,2.664 -5.9375,5.9375 z"
         id="path3762" />
      <path
         inkscape:connector-curvature="0"
         style="fill:#ffecd9;fill-opacity:1;stroke:none;display:inline"
         d="m 975.90662,1093.5345 c -1.7104,1.0394 -2.8613,2.8954 -2.8613,5.0439 0,3.2725 2.6571,5.9586 5.9298,5.9584 3.2739,5e-4 5.9428,-2.6845 5.9428,-5.9571 -10e-5,-3.2737 -2.6674,-5.9155 -5.9413,-5.9156 -1.1251,0 -2.1738,0.3259 -3.0699,0.8703 z"
         id="path3764" />
      <path
         inkscape:connector-curvature="0"
         style="fill:#fff4e5;fill-opacity:1;stroke:none;display:inline"
         d="m 966.09962,1106.4856 c -3.5502,2.0497 -6.4225,4.8079 -8.55,8.0036 l 7.2755,4.3515 c 1.4042,-2.0019 3.2358,-3.7446 5.4932,-5.048 7.8341,-4.523 17.7342,-2.2283 22.8296,5.042 l 7.24458,-4.327 c -3.62478,-5.447 -9.03878,-9.11 -14.98988,-10.6507 -1.526,1.8642 -3.8264,3.0597 -6.4246,3.0597 -2.6019,0 -4.9298,-1.1886 -6.4557,-3.0567 -2.2,0.5702 -4.3582,1.4337 -6.4227,2.6256 z"
         id="path3766" />
      <path
         inkscape:connector-curvature="0"
         style="fill:#ffdec6;fill-opacity:1;stroke:none;display:inline"
         d="m 994.77292,1121.7233 c 3.46587,5.1874 8.76268,9.0537 14.96868,10.6563 1.5262,-1.8723 3.8634,-3.0938 6.4688,-3.0938 2.6051,0 4.9428,1.2212 6.4687,3.0938 6.2064,-1.6026 11.5028,-5.4689 14.9688,-10.6563 l -7.2813,-4.3438 c -3.1329,4.4514 -8.297,7.375 -14.1562,7.375 -5.8583,0 -11.023,-2.9236 -14.1563,-7.375 l -7.28118,4.3438 z"
         id="path3768" />
      <path
         inkscape:connector-curvature="0"
         style="fill:#fff4e5;fill-opacity:1;stroke:none;display:inline"
         d="m 1010.2729,1137.6295 c 0,3.2746 2.6629,5.9376 5.9375,5.9376 3.2735,0 5.9375,-2.663 5.9375,-5.9376 0,-3.2734 -2.664,-5.9375 -5.9375,-5.9374 -3.2746,-10e-5 -5.9375,2.664 -5.9375,5.9374 z"
         id="path3770" />
      <path
         id="path3772"
         d="m 901.43302,1114.7017 c -1.7105,1.0394 -2.8614,2.8954 -2.8614,5.044 10e-5,3.2725 2.6571,5.9585 5.9299,5.9583 3.2739,5e-4 5.9427,-2.6844 5.9427,-5.9569 -2e-4,-3.2739 -2.6673,-5.9155 -5.9413,-5.9157 -1.1252,10e-5 -2.1739,0.3259 -3.0699,0.8703 z"
         style="fill:#ffdec6;fill-opacity:1;stroke:none;display:inline"
         inkscape:connector-curvature="0" />
      <path
         id="path3774"
         d="m 891.62592,1127.6529 c -3.5502,2.0497 -6.4225,4.8078 -8.55,8.0035 l 7.2755,4.3515 c 1.4042,-2.0019 3.2358,-3.7446 5.4933,-5.0479 7.834,-4.523 17.7341,-2.2284 22.8295,5.0419 l 7.2446,-4.327 c -3.6248,-5.4469 -9.0387,-9.11 -14.9899,-10.6507 -1.5259,1.8642 -3.8264,3.0597 -6.4246,3.0597 -2.6019,0 -4.9297,-1.1885 -6.4557,-3.0566 -2.1999,0.5702 -4.3582,1.4336 -6.4227,2.6256 z"
         style="fill:#ffecd9;fill-opacity:1;stroke:none;display:inline"
         inkscape:connector-curvature="0" />
      <path
         id="path3784"
         d="m 920.29922,1142.8905 c 3.4659,5.1875 8.7627,9.0537 14.9687,10.6563 1.5262,-1.8723 3.8634,-3.0938 6.4688,-3.0938 2.6051,0 4.9428,1.2212 6.4687,3.0938 6.2064,-1.6025 11.5028,-5.4688 14.9688,-10.6563 l -7.2813,-4.3437 c -3.1329,4.4515 -8.297,7.375 -14.1562,7.375 -5.8583,0 -11.023,-2.9235 -14.1563,-7.375 l -7.2812,4.3437 z"
         style="fill:#fff4e5;fill-opacity:1;stroke:none;display:inline"
         inkscape:connector-curvature="0" />
      <path
         id="path3786"
         d="m 935.79922,1158.7968 c 0,3.2745 2.6629,5.9375 5.9375,5.9375 3.2735,0 5.9375,-2.663 5.9375,-5.9375 0,-3.2735 -2.664,-5.9375 -5.9375,-5.9375 -3.2746,0 -5.9375,2.664 -5.9375,5.9375 z"
         style="fill:#ffecd9;fill-opacity:1;stroke:none;display:inline"
         inkscape:connector-curvature="0" />
      <path
         id="path3788"
         d="m 975.91162,1114.7203 c -1.7104,1.0393 -2.8613,2.8954 -2.8613,5.0439 0,3.2725 2.6571,5.9586 5.9298,5.9583 3.2739,6e-4 5.9428,-2.6845 5.9427,-5.9569 -10e-5,-3.2739 -2.6673,-5.9155 -5.9413,-5.9156 -1.1251,0 -2.1738,0.3258 -3.0699,0.8702 z"
         style="fill:#fff4e5;fill-opacity:1;stroke:none;display:inline"
         inkscape:connector-curvature="0" />
      <path
         id="path3790"
         d="m 966.10462,1127.6714 c -3.5502,2.0497 -6.4225,4.8078 -8.55,8.0035 l 7.2755,4.3515 c 1.4042,-2.0018 3.2358,-3.7445 5.4932,-5.0479 7.8341,-4.523 17.7342,-2.2283 22.8296,5.042 l 7.24458,-4.327 c -3.62478,-5.447 -9.03878,-9.1102 -14.98988,-10.6508 -1.526,1.8642 -3.8264,3.0598 -6.4246,3.0598 -2.6019,-10e-5 -4.9298,-1.1886 -6.4557,-3.0567 -2.2,0.5702 -4.3582,1.4337 -6.4227,2.6256 z"
         style="fill:#ffdec6;fill-opacity:1;stroke:none;display:inline"
         inkscape:connector-curvature="0" />
      <path
         id="path3792"
         d="m 994.77792,1142.9091 c 3.46587,5.1874 8.76268,9.0536 14.96868,10.6561 1.5262,-1.8723 3.8634,-3.0936 6.4688,-3.0936 2.6051,0 4.9428,1.2212 6.4687,3.0936 6.2064,-1.6024 11.5028,-5.4688 14.9688,-10.6561 l -7.2813,-4.3439 c -3.1329,4.4515 -8.297,7.375 -14.1562,7.375 -5.8583,0 -11.023,-2.9235 -14.1563,-7.375 l -7.28118,4.3439 z"
         style="fill:#ffecd9;fill-opacity:1;stroke:none;display:inline"
         inkscape:connector-curvature="0" />
      <path
         id="path3794"
         d="m 1010.2779,1158.8153 c 0,3.2746 2.6629,5.9375 5.9375,5.9375 3.2735,0 5.9375,-2.6629 5.9375,-5.9375 0,-3.2735 -2.664,-5.9375 -5.9375,-5.9375 -3.2746,0 -5.9375,2.664 -5.9375,5.9375 z"
         style="fill:#ffdec6;fill-opacity:1;stroke:none;display:inline"
         inkscape:connector-curvature="0" />
      <path
         id="path3796"
         d="m 1050.3903,1114.7388 c -1.7104,1.0393 -2.8613,2.8954 -2.8613,5.0438 0,3.2726 2.6571,5.9586 5.9298,5.9584 3.2739,6e-4 5.9428,-2.6845 5.9428,-5.957 -10e-5,-3.2738 -2.6674,-5.9155 -5.9413,-5.9156 -1.1251,0 -2.1738,0.3258 -3.0699,0.8703 z"
         style="fill:#ffecd9;fill-opacity:1;stroke:none;display:inline"
         inkscape:connector-curvature="0" />
      <path
         id="path3798"
         d="m 1040.5833,1127.69 c -3.5502,2.0497 -6.4225,4.8078 -8.55,8.0035 l 7.2755,4.3515 c 1.4042,-2.0019 3.2358,-3.7446 5.4932,-5.048 7.8341,-4.523 17.7342,-2.2283 22.8296,5.042 l 7.2446,-4.327 c -3.6248,-5.447 -9.0388,-9.11 -14.9899,-10.6507 -1.526,1.8642 -3.8264,3.0597 -6.4246,3.0597 -2.6019,0 -4.9298,-1.1886 -6.4557,-3.0566 -2.2,0.5702 -4.3582,1.4336 -6.4227,2.6256 z"
         style="fill:#fff4e5;fill-opacity:1;stroke:none;display:inline"
         inkscape:connector-curvature="0" />
      <path
         id="path3800"
         d="m 1069.2566,1142.9276 c 3.4659,5.1874 8.7627,9.0537 14.9687,10.6563 1.5262,-1.8723 3.8634,-3.0938 6.4688,-3.0938 2.6051,0 4.9428,1.2212 6.4687,3.0938 6.2064,-1.6026 11.5028,-5.4689 14.9688,-10.6563 l -7.2813,-4.3437 c -3.1329,4.4515 -8.297,7.375 -14.1562,7.375 -5.8583,0 -11.023,-2.9235 -14.1563,-7.375 l -7.2812,4.3437 z"
         style="fill:#ffdec6;fill-opacity:1;stroke:none;display:inline"
         inkscape:connector-curvature="0" />
      <path
         id="path3802"
         d="m 1084.7566,1158.8339 c 0,3.2745 2.6629,5.9375 5.9375,5.9375 3.2735,0 5.9375,-2.663 5.9375,-5.9375 0,-3.2735 -2.664,-5.9375 -5.9375,-5.9375 -3.2746,0 -5.9375,2.664 -5.9375,5.9375 z"
         style="fill:#fff4e5;fill-opacity:1;stroke:none;display:inline"
         inkscape:connector-curvature="0" />
    </g>
    <g
       transform="translate(4.0274879e-6,2.6171874e-6)"
       style="display:inline"
       id="g5041">
      <path
         inkscape:connector-curvature="0"
         id="path9270"
         d="m 137.90639,356.933 c -24.86443,0 -45.032279,20.16836 -45.032279,45.03228 0,24.86405 20.167849,45.0323 45.032279,45.0323 8.9274,0 17.26462,-2.60761 24.26534,-7.09191 l 0.0315,7.44178 c 0,0.53592 0.78259,0.8402 1.14489,0.44524 l 5.62897,-6.20153 c 1.05646,2.30636 2.12115,4.59634 3.18025,6.90118 0.36788,0.80051 1.00629,1.36196 1.74919,1.59013 0.76275,0.23426 1.59369,0.17799 2.35338,-0.0956 0.7597,-0.27366 1.44898,-0.78177 1.8763,-1.52651 0.42743,-0.74475 0.65142,-1.76598 0.19081,-2.70326 l -3.43467,-7.0283 7.88701,0 c 0.52605,-0.0264 0.80225,-0.91683 0.4135,-1.27209 l -9.00007,-8.84119 c 5.48814,-7.46285 8.74565,-16.68098 8.74565,-26.65047 0,-24.86393 -20.16786,-45.03228 -45.0323,-45.03228 z m 15.32879,12.59378 c 1.06674,-0.0244 2.15687,0.22256 3.1485,0.79511 2.88543,1.66603 3.89191,5.35136 2.22616,8.23678 -1.66512,2.88421 -5.38352,3.89262 -8.26863,2.22619 -2.88451,-1.66503 -3.85954,-5.38445 -2.19442,-8.26865 1.09329,-1.8936 3.05192,-2.94374 5.08839,-2.98943 z m -15.23332,6.42409 c 2.42594,0 4.76752,0.33727 6.99654,0.95408 0.39435,2.42289 1.84118,4.65496 4.13432,5.97886 2.28988,1.32207 4.92567,1.43901 7.2191,0.57245 4.46101,4.38609 7.3686,10.36933 7.79166,17.01436 l -8.58666,0.12721 c -0.79136,-9.00035 -8.34905,-16.06028 -17.55496,-16.06028 -2.65278,0 -5.15384,0.60398 -7.41004,1.65372 l -4.19792,-7.53714 c 3.50113,-1.73392 7.43608,-2.70326 11.60796,-2.70326 z m -14.53378,4.38874 4.4206,7.41004 c -4.53021,3.18859 -7.50539,8.44459 -7.50539,14.40645 0,5.9629 2.97518,11.21818 7.50539,14.40657 l -4.4206,7.40992 c -5.27911,-3.52718 -9.21376,-8.9173 -10.84459,-15.23332 1.9057,-1.55288 3.14839,-3.93201 3.14839,-6.58317 0,-2.65145 -1.243,-5.02987 -3.14839,-6.58306 1.63094,-6.31571 5.56548,-11.70616 10.84459,-15.23343 z m -16.18741,15.77403 c 3.33137,0 6.04247,2.71007 6.04247,6.04246 0,3.33148 -2.7111,6.04247 -6.04247,6.04247 -3.33249,0 -6.04246,-2.71099 -6.04246,-6.04247 0,-3.33239 2.70997,-6.04246 6.04246,-6.04246 z m 48.27615,7.60083 8.58666,0.12721 c -0.42245,6.64535 -3.29922,12.62839 -7.7598,17.01428 -2.29345,-0.86687 -4.96139,-0.74953 -7.25096,0.57244 -2.29354,1.3243 -3.73997,3.55596 -4.13432,5.97886 -2.22933,0.61723 -4.5706,0.95408 -6.99654,0.95408 -4.17188,0 -8.10663,-0.96955 -11.60796,-2.70317 l 4.19792,-7.53723 c 2.25651,1.04983 4.75726,1.65373 7.41004,1.65373 9.20591,0 16.76371,-7.05862 17.55496,-16.0602 z m 7.88701,16.50543 17.68216,17.23694 -7.34643,0 c -0.43708,0.0255 -0.75928,0.55809 -0.57244,0.95407 l 3.84815,7.79166 c 0.31894,0.64785 0.16965,1.21388 -0.0631,1.62188 -0.23845,0.41561 -0.70211,0.73995 -1.20851,0.92232 -0.5065,0.18237 -1.06184,0.22846 -1.49476,0.0956 -0.43293,-0.133 -0.66821,-0.44329 -0.85862,-0.85871 l -3.62547,-7.88701 c -0.18155,-0.40372 -0.81323,-0.51647 -1.11315,-0.19082 l -5.15199,5.69269 -0.0956,-25.37836 z m -10.2404,2.51245 c 2.13866,-0.055 4.26142,1.03833 5.40641,3.02119 1.66575,2.88521 0.65835,6.57156 -2.22616,8.23688 -2.88542,1.66604 -6.57086,0.69101 -8.23689,-2.19442 -1.66543,-2.88421 -0.69111,-6.6029 2.19442,-8.26865 0.90136,-0.52033 1.89014,-0.76976 2.86222,-0.795 z"
         style="fill:#dd4814;fill-opacity:1;stroke:none;display:inline" />
      <path
         inkscape:connector-curvature="0"
         id="path3112"
         style="opacity:0.98999999;fill:none;stroke:#ff8351;stroke-width:1.4000001;stroke-linecap:round;stroke-linejoin:round;stroke-miterlimit:4;stroke-opacity:1;stroke-dasharray:none;display:inline"
         d="m 298.84645,382.40218 c -7.37034,0 -13.34608,3.7209 -13.34608,8.30551 0,4.58449 5.97574,8.30539 13.34608,8.30539 1.23577,0 2.41946,-0.12499 3.55508,-0.32056 1.61178,2.20334 4.10233,4.13833 6.73123,5.42042 -0.80323,-2.4183 -1.41953,-4.8991 -1.60264,-7.11061 2.84638,-1.52234 4.66238,-3.7765 4.66238,-6.29464 0,-4.58461 -5.97572,-8.30551 -13.34605,-8.30551 z m -14.23515,-18.9423 c -6.50578,0 -11.77259,3.23311 -11.77259,7.19805 0,2.23028 1.66557,4.22025 4.28364,5.53703 -0.44082,2.03432 -1.82332,4.13101 -3.03057,5.91573 2.45268,-0.97141 4.99777,-2.25033 7.75121,-4.48783 0.88673,0.12999 1.81612,0.20406 2.76831,0.20406 6.50579,0 11.77249,-3.20404 11.77249,-7.16899 0,-3.96494 -5.2667,-7.19805 -11.77249,-7.19805 z" />
      <path
         inkscape:connector-curvature="0"
         id="path3114"
         d="m 370.48958,363.95116 -17.95033,4.31308 0,25.52831 c -1.58026,-0.70158 -3.85323,-0.5144 -5.94444,0.6703 -2.97997,1.68818 -4.43674,4.71915 -3.26367,6.79006 1.17298,2.07091 4.53817,2.38753 7.51803,0.69946 2.29289,-1.29896 3.68432,-3.40119 3.67159,-5.24553 l 0,-22.43943 15.96882,-3.81755 0,19.02973 c -1.58039,-0.70159 -3.85335,-0.51441 -5.94465,0.67029 -2.97986,1.68807 -4.43663,4.74822 -3.26356,6.81923 1.17297,2.07093 4.53817,2.35837 7.51803,0.67018 2.29671,-1.3011 3.68907,-3.39894 3.67169,-5.24555 l 0,-28.44258 -1.98151,0 z"
         style="fill:#ff8351;fill-opacity:1;stroke:none;display:inline"
         sodipodi:nodetypes="cccsssccccsssccc" />
      <path
         inkscape:connector-curvature="0"
         style="fill:#ff8351;fill-opacity:1;fill-rule:nonzero;stroke:none;display:inline"
         d="m 221.27287,362.42108 c -11.50302,0 -20.86421,9.3322 -20.86421,20.83612 0,11.50434 9.3611,20.86732 20.86421,20.86732 11.50206,0 20.83301,-9.36287 20.83301,-20.86732 0,-11.50392 -9.33095,-20.83612 -20.83301,-20.83612 z m 0.40539,1.4036 c 4.25542,0.087 8.16306,1.56753 11.32095,3.96145 0.19511,0.1478 0.40336,0.2816 0.59253,0.43663 -0.30035,0.27376 -0.56378,1.01174 -0.93564,0.96696 -0.47603,-0.4969 -1.36331,-1.16687 -0.12466,-0.93577 0.53005,-0.15524 0.61227,-0.32893 0.46777,-0.46782 -0.14451,-0.13901 -0.51562,-0.25911 -0.90445,-0.24957 -0.58766,-0.0711 -1.13626,-0.25425 -1.68414,-0.46795 -0.84493,0.17361 -1.7028,0.35238 -2.37012,0.93577 0.19943,0.80526 -0.84748,0.93131 -1.30994,1.37251 -0.1233,0.2588 -0.0191,1.88565 0.53025,1.18522 0.59635,-0.7921 0.86731,0.40905 1.49698,0.53033 0.45642,-0.14697 0.51476,-1.18096 0.34299,-1.65316 0.29252,-0.48184 0.75359,-1.14671 1.37223,-1.09175 -0.38365,0.58551 -0.81756,2.07823 0.40548,1.466 0.35394,-0.0106 -0.95017,0.7784 -1.02922,1.31011 -0.4948,0.52587 -1.03153,0.93767 -1.74638,0.53023 -0.34207,-0.28883 -0.53207,-1.1342 -0.74851,-0.18717 0.44432,0.75113 -1.09891,0.0467 -1.0604,1.06054 -0.32785,0.63082 -0.90689,0.89024 -1.59045,0.93576 0.24804,0.1963 1.21615,1.38185 0.24942,1.21643 -0.61884,0.068 -1.52913,0.40777 -1.27865,1.18533 -0.28189,0.96845 0.43202,0.735 0.87316,1.34121 0.719,-0.20415 1.19239,-0.65193 1.30995,-1.40361 0.67284,-0.19767 0.72695,-0.95104 1.46578,-0.93576 0.73639,-0.41403 0.93151,0.7556 1.62174,0.84218 0.0721,0.41912 -0.34352,1.30025 0.46777,0.46795 0.78383,-0.56801 -0.84079,-1.29644 -0.34299,-1.4349 0.70839,0.22631 0.97776,0.90096 1.09149,1.55956 0.57726,0.98796 0.73374,0.4638 0.77969,-0.40543 0.89946,-0.40448 1.16024,1.66812 2.43262,1.15402 0.95027,0.19662 0.60294,0.84792 -0.0307,1.24773 -0.51338,0.48311 -1.36151,0.19375 -1.96486,0 -0.57895,-0.28458 -1.34345,-0.27333 -1.65283,0.37435 -0.4771,-0.22325 -0.98255,-0.93068 -1.46579,-1.34131 -1.1942,-0.52693 -2.49014,-0.0733 -3.68009,0.24958 -1.02083,1.19273 -2.2426,2.28111 -2.68216,3.83654 -0.64365,0.65479 0.55786,1.02914 -0.24942,1.59076 -0.65916,0.52587 0.10822,1.20444 0.24942,1.80916 0.61992,0.7629 1.65572,3.13411 2.61978,2.18347 0.54036,-0.82285 0.86096,0.62912 1.49699,-0.31195 0.50777,-0.40969 0.9768,0.47866 1.71533,0.15598 0.71125,0.43928 0.57407,1.08071 0.28062,1.74676 0.15977,0.55463 0.96374,0.93236 0.65501,1.68434 -0.28072,0.70043 0.61364,1.25846 0.43658,1.87144 -0.58946,1.18056 -0.45322,2.63552 0.0934,3.80546 0.43742,1.05874 0.68919,2.18826 0.65493,3.33752 0.76164,0.22781 1.17392,-0.75178 1.93356,-0.53033 0.7417,0.0955 1.00639,-0.85183 1.52827,-1.24761 0.58139,-0.4794 -0.0806,-1.21993 0.84196,-1.55958 0.89555,-0.4361 -1.11843,-1.04412 0.0307,-1.4349 0.4769,-0.53075 1.4293,-0.71062 1.62167,-1.4036 -0.34684,-1.06617 -0.20775,-2.21574 -0.15587,-3.30632 0.33378,-0.8631 0.75167,-1.69711 1.46579,-2.30818 0.28794,-0.9503 0.96567,-1.81996 0.90445,-2.83849 -1.68943,0.51685 -1.19143,-0.22951 -0.24953,-0.90458 0.6512,-0.4327 1.4434,-0.85649 1.74651,-1.59075 0.14801,-0.83105 -0.45949,-2.19157 -1.0292,-0.93578 -0.25136,-0.48258 -1.16503,-0.7123 -1.1228,-1.34122 -0.18101,-1.29462 0.34437,-0.16498 0.87326,0.0933 1.04949,-0.56988 1.6278,1.41974 2.27678,0.62382 0.11744,0.86595 0.18704,1.75269 0.18704,2.65134 0,10.74916 -8.68262,19.46371 -19.4296,19.46371 -3.2836,0 -6.36211,-0.80961 -9.07536,-2.24588 0.12763,-0.11025 0.22395,-0.29159 0.24953,-0.59262 0.51445,-0.46307 0.53979,-1.21453 1.40329,-1.21654 0.40082,-0.4899 0.54311,-1.27319 0.84207,-1.87142 -0.43648,-0.55207 0.15639,-1.3951 0.81088,-1.3725 0.83665,0.0627 0.82054,-0.92378 1.15387,-1.46599 -0.0105,-0.79188 -0.40008,-1.68246 0.31192,-2.27698 0.53566,-0.48543 0.47774,-1.18183 0.56134,-1.84035 -1.20067,-0.74275 -2.79228,-1.11848 -3.74246,-2.12098 -0.18833,-0.78457 -0.77682,-1.06595 -1.52806,-1.12293 -0.31734,-0.44353 -0.25665,-1.50802 -0.81089,-1.55959 -0.71401,0.1371 -1.41485,0.2464 -1.93366,-0.37435 -0.58871,-0.79527 -1.08469,0.20638 -1.62165,0.56153 -0.50436,0.87836 -1.91531,-0.0404 -1.74651,-1.02935 0.49611,-1.36784 -1.70567,0.14717 -0.81087,-1.46598 0.42555,-1.75885 -0.70648,-0.39548 -1.30984,0 -0.7364,0.0106 -1.0358,-0.73195 -0.90444,-1.40372 -0.0935,-0.80727 0.49269,-1.21737 1.09159,-1.62195 0.80133,0.1235 1.02127,-0.55878 1.62165,-0.46785 0.75475,-0.0382 1.03697,0.67433 1.46579,1.15414 0.17962,-0.68504 -0.19692,-1.64542 0.56134,-2.02751 0.57842,-0.43864 1.17139,-0.89321 1.30984,-1.65317 0.13642,-0.79569 1.32892,-0.47387 1.52828,-1.27891 0.27551,-0.84143 1.52319,-0.16765 1.8088,-0.99804 0.89543,-0.84177 -0.26248,-0.56578 -0.90446,-0.59273 -1.26656,0.13018 0.11765,-0.33223 0.59265,-0.59261 0.70349,0.0933 1.34949,-0.15684 1.99594,-0.40545 0.087,0.88027 0.26799,1.34078 0.71731,0.31185 -0.87592,-0.20722 -0.13306,-1.05206 -0.99804,-1.2788 -0.68452,0.0477 9.5e-4,-1.44413 -0.84196,-1.27893 -1.0968,0.72578 -0.10504,-0.52108 -0.99802,-0.68619 -0.70479,-0.76113 -0.86489,0.48278 -1.24746,0.93576 0.24816,0.86859 -0.8356,0.69055 -1.02921,1.40359 -0.42873,1.28529 -0.23681,-0.10738 -0.74849,-0.43663 -0.63222,-0.2536 -1.39874,-0.38444 -1.40342,-1.21653 0.84748,-0.62051 2.13589,-0.98796 2.68205,-1.96502 0.23808,-0.56925 -0.0447,-0.93237 -0.49896,-1.06055 0.58691,-0.4275 1.20587,-0.82435 1.83999,-1.18532 -0.0891,0.34697 -0.30681,0.61192 -0.65492,0.87337 -0.61682,0.69989 -0.0307,1.33208 0.56145,0.71739 0.0531,-0.16043 0.12403,-0.31132 0.21824,-0.46782 0.40813,-0.67803 1.13552,-1.2126 1.87118,-0.7486 0.90614,0.4968 1.80306,1.68022 2.55738,0.40544 -0.77404,-0.0933 -1.06369,-0.76238 -1.43459,-1.24763 -0.41039,0.0329 -2.12983,-0.33147 -1.02912,-0.24956 0.54184,-0.17687 1.58027,-0.70689 1.96476,-0.6862 -0.96397,0.50274 0.35689,0.84696 0.74848,1.24773 0.70415,0.20871 1.04482,1.09673 0.40551,1.55958 -0.82225,0.42675 0.0488,1.12782 0.21822,1.71554 0.13156,1.02363 1.02753,0.44175 1.30984,-0.18715 0.40814,-1.14375 1.70504,-1.10333 2.65097,-1.59078 1.03355,-0.53076 1.06858,-0.53819 1.55936,0.21825 0.37695,0.21699 1.60572,-0.58666 0.77958,-0.96684 -0.70701,0.0382 -1.15429,0.47155 -0.56135,-0.62391 0.1427,-0.58859 0.69333,-1.35819 0.59264,-1.84024 l -1.74651,-0.68632 0,1.2e-4 z m -9.88626,3.68067 c 0.36519,0.3736 1.58845,1.05874 1.46581,0.12479 -0.1479,-0.63315 -1.06083,-0.64831 -1.46581,-0.12479 z m -2.90049,0.7486 c -0.11989,0.12064 -0.22535,0.2482 -0.37419,0.34315 0.1287,-0.11173 0.24275,-0.23482 0.37419,-0.34315 z m 15.71833,0.90456 c -0.069,0 -0.15893,0.0106 -0.24942,0.0307 -0.12807,0.67423 0.58882,1.02746 0.34311,1.74676 -0.22036,0.78796 -0.29845,1.42683 0.68611,0.96697 1.02189,-0.52491 0.37802,-0.93366 -0.0307,-1.62198 -0.24391,-0.40035 -0.26471,-1.09609 -0.7485,-1.12293 l -1.1e-4,0 z m -1.27864,1.15414 c -0.50384,0.16044 -0.28889,1.42186 0.15595,1.02925 0.74606,-0.18366 0.24307,-0.53032 0.12477,-1.02925 -0.10184,-0.0307 -0.20868,-0.0233 -0.28072,0 z m 10.54126,9.23269 c 0.97596,0.86594 1.30942,2.15187 1.93367,3.24402 0.92704,0.4099 0.0541,1.11776 0.46768,1.62197 0.87058,0.94575 -1.2114,0.23027 -0.93556,-0.71738 -0.20208,-1.24486 -1.07461,-2.09416 -1.49696,-3.18165 -0.0436,-0.36152 -0.40804,-0.73163 0.0307,-0.96696 l 1.1e-4,0 z m -32.06026,3.52469 c 0.38565,0.38358 0.87103,0.64121 1.37221,0.90456 0.7401,0.42996 1.83033,0.25361 2.24547,1.15414 0.4632,0.37924 0.95909,1.13272 1.62164,0.90459 0.96037,-0.0935 0.38289,0.8792 0.21835,1.3724 -0.0606,0.62241 -0.82509,1.02298 -0.53014,1.62195 -0.24753,0.67845 -0.4558,1.34641 0.0934,1.93393 0.46702,0.86118 0.84938,1.79873 1.71521,2.33936 0.60717,0.50996 1.29839,1.1639 1.06042,2.02741 -0.12648,0.69904 0.0371,1.35181 0.37416,1.96512 -0.0911,0.51643 -0.24581,1.04379 -0.34298,1.55957 -4.74971,-3.54909 -7.82803,-9.21027 -7.82803,-15.59586 0,-0.0627 -5.3e-4,-0.12435 0,-0.18717 l 1.1e-4,0 z"
         id="path3116"
         sodipodi:nodetypes="csssccscccscccccccccccccccccccccccccccccccccccccscccccccccccccccccsscccccccccccccccccccccsccccccccccccccccccscccccccccscccccccccccccccsccccccccccccccccccccccsccscc" />
      <path
         inkscape:connector-curvature="0"
         style="font-size:medium;font-style:normal;font-variant:normal;font-weight:normal;font-stretch:normal;text-indent:0;text-align:start;text-decoration:none;line-height:normal;letter-spacing:normal;word-spacing:normal;text-transform:none;direction:ltr;block-progression:tb;writing-mode:lr-tb;text-anchor:start;color:#000000;fill:#ff8351;fill-opacity:1;fill-rule:nonzero;stroke:none;stroke-width:1.39999998;marker:none;visibility:visible;display:inline;overflow:visible;enable-background:accumulate;font-family:Bitstream Vera Sans;-inkscape-font-specification:Bitstream Vera Sans"
         d="m 493.38587,363.10729 0,36.65034 2.93159,0 0,3.36873 27.31991,0 0,-16.37565 4.95871,-8.57778 c 1.0166,-1.76087 1.14305,-2.46533 0.28072,-2.96318 -0.21558,-0.12446 -0.40431,-0.18833 -0.59253,-0.18716 -0.29132,0 -0.57226,0.16468 -0.87326,0.49902 -0.3499,-0.13985 -0.75952,-0.016 -0.96683,0.34315 l -2.80681,4.86592 0,-14.22348 -2.93159,0 0,-3.39991 -27.31991,0 z m 1.40342,1.40371 24.54417,0 0,1.9962 -23.016,0 0,31.84684 -1.52817,0 0,-33.84304 z m 2.93158,3.3686 24.51309,0 0,16.34457 -3.992,6.9558 -1.68403,0 0,0.87326 1.18508,0 -0.31182,0.53033 c -0.37949,0.65714 -0.59519,1.34089 -0.77979,2.02741 l -2.37024,0 0,0.84218 2.15201,0 c -0.0891,0.38571 -0.18322,0.77322 -0.28072,1.15414 l -0.12476,0.21837 c -0.14897,0.25795 -0.16085,0.4013 0.0616,0.53022 0.22322,0.12892 0.35011,0.0393 0.49896,-0.21836 l 0.12477,-0.21827 c 0.98846,-0.96632 2.09025,-1.79259 2.8381,-3.08807 l 2.68206,-4.64752 0,12.5703 -24.51308,0 0,-33.87436 z m 2.02714,2.8073 0,0.87337 1.96486,0 0,-0.87337 -1.96486,0 z m 2.24547,0 0,0.87337 1.87118,0 0,-0.87337 -1.87118,0 z m 2.12071,0 0,0.87337 1.68413,0 0,-0.87337 -1.68413,0 z m 1.93356,0 0,0.87337 0.7174,0 0,-0.87337 -0.7174,0 z m 0.99803,0 0,0.87337 1.62173,0 0,-0.87337 -1.62173,0 z m 1.87128,0 0,0.87337 4.21023,0 0,-0.87337 -4.21023,0 z m 4.45976,0 0,0.87337 3.2122,0 0,-0.87337 -3.2122,0 z m 3.46173,0 0,0.87337 0.99792,0 0,-0.87337 -0.99792,0 z m 1.24745,0 0,0.87337 1.93366,0 0,-0.87337 -1.93366,0 z m -18.33799,1.71556 0,0.84217 3.11873,0 0,-0.84217 -3.11873,0 z m 3.39946,0 0,0.84217 1.49698,0 0,-0.84217 -1.49698,0 z m 1.77759,0 0,0.84217 0.68612,0 0,-0.84217 -0.68612,0 z m 0.99804,0 0,0.84217 1.37222,0 0,-0.84217 -1.37222,0 z m 1.62164,0 0,0.84217 1.37232,0 0,-0.84217 -1.37232,0 z m 1.68413,0 0,0.84217 2.15201,0 0,-0.84217 -2.15201,0 z m 2.43263,0 0,0.84217 2.8692,0 0,-0.84217 -2.8692,0 z m 3.14992,0 0,0.84217 1.93356,0 0,-0.84217 -1.93356,0 z m 2.21428,0 0,0.84217 0.46778,0 0,-0.84217 -0.46778,0 z m -17.27769,1.71554 0,0.84219 2.58858,0 0,-0.84219 -2.58858,0 z m 2.83812,0 0,0.84219 4.30379,0 0,-0.84219 -4.30379,0 z m 4.58442,0 0,0.84219 2.05832,0 0,-0.84219 -2.05832,0 z m 2.33904,0 0,0.84219 1.96476,0 0,-0.84219 -1.96476,0 z m 2.21429,0 0,0.84219 1.65294,0 0,-0.84219 -1.65294,0 z m 1.93355,0 0,0.84219 2.65098,0 0,-0.84219 -2.65098,0 z m 2.9005,0 0,0.84219 4.3038,0 0,-0.84219 -4.3038,0 z m -16.80992,1.71556 0,0.84219 3.61769,0 0,-0.84219 -3.61769,0 z m 3.89842,0 0,0.84219 3.86722,0 0,-0.84219 -3.86722,0 z m 4.17913,0 0,0.84219 1.52807,0 0,-0.84219 -1.52807,0 z m 1.80879,0 0,0.84219 3.6489,0 0,-0.84219 -3.6489,0 z m 3.92962,0 0,0.84219 2.5261,0 0,-0.84219 -2.5261,0 z m 2.77563,0 0,0.84219 0.99792,0 0,-0.84219 -0.99792,0 z m 1.27864,0 0,0.84219 0.56145,0 0,-0.84219 -0.56145,0 z m 0.84206,0 0,0.84219 1.55936,0 0,-0.84219 -1.55936,0 z m -18.71229,1.68437 0,0.87338 1.37223,0 0,-0.87338 -1.37223,0 z m 1.74652,0 0,0.87338 4.98991,0 0,-0.87338 -4.98991,0 z m 2.43251,2.90077 c -2.28526,0 -4.14782,1.86315 -4.14782,4.14851 0,2.28546 1.86256,4.14849 4.14782,4.14849 2.28537,0 4.11675,-1.86303 4.11675,-4.14849 0,-2.28536 -1.83138,-4.14851 -4.11675,-4.14851 z m 5.11467,0.53032 0,0.8422 2.43264,0 0,-0.8422 -2.43264,0 z m 2.68217,0 0,0.8422 1.65294,0 0,-0.8422 -1.65294,0 z m 1.93355,0 0,0.8422 2.65098,0 0,-0.8422 -2.65098,0 z m 2.9005,0 0,0.8422 4.3038,0 0,-0.8422 -4.3038,0 z m -12.63089,0.24958 c 0.89195,0 1.73963,0.36735 2.37025,0.99805 l -2.37025,2.37056 3.33707,0 c 0,1.85741 -1.47967,3.36873 -3.33707,3.36873 -1.85717,0 -3.36815,-1.51132 -3.36815,-3.36873 0,-1.85732 1.51098,-3.36861 3.36815,-3.36861 z m 5.11467,1.46599 0,0.84217 4.08558,0 0,-0.84217 -4.08558,0 z m 4.33511,0 0,0.84217 3.2122,0 0,-0.84217 -3.2122,0 z m 3.46173,0 0,0.84217 0.99792,0 0,-0.84217 -0.99792,0 z m 1.24745,0 0,0.84217 1.93366,0 0,-0.84217 -1.93366,0 z m -9.04429,1.68436 0,0.87338 3.11876,0 0,-0.87338 -3.11876,0 z m 3.36828,0 0,0.87338 2.30785,0 0,-0.87338 -2.30785,0 z m 2.55728,0 0,0.87338 0.90455,0 0,-0.87338 -0.90455,0 z m 1.15398,0 0,0.87338 0.53015,0 0,-0.87338 -0.53015,0 z m 0.77969,0 0,0.87338 1.43459,0 0,-0.87338 -1.43459,0 z m -7.85923,1.71553 0,0.87339 4.24154,0 0,-0.87339 -4.24154,0 z m 4.52226,0 0,0.87339 2.5261,0 0,-0.87339 -2.5261,0 z m 2.77563,0 0,0.87339 0.99792,0 0,-0.87339 -0.99792,0 z m 1.27864,0 0,0.87339 0.56145,0 0,-0.87339 -0.56145,0 z m 0.84206,0 0,0.87339 1.55936,0 0,-0.87339 -1.55936,0 z m -9.41859,1.71558 0,0.84218 2.30788,0 0,-0.84218 -2.30788,0 z m 2.5886,0 0,0.84218 2.838,0 0,-0.84218 -2.838,0 z m 3.2435,0 0,0.84218 1.93356,0 0,-0.84218 -1.93356,0 z m 2.15189,0 0,0.84218 0.46778,0 0,-0.84218 -0.46778,0 z m -17.27769,3.39991 0,0.87326 2.58858,0 0,-0.87326 -2.58858,0 z m 2.83812,0 0,0.87326 4.30379,0 0,-0.87326 -4.30379,0 z m 4.58442,0 0,0.87326 2.05832,0 0,-0.87326 -2.05832,0 z m 2.33904,0 0,0.87326 1.96476,0 0,-0.87326 -1.96476,0 z m 2.21429,0 0,0.87326 1.65294,0 0,-0.87326 -1.65294,0 z m 1.93355,0 0,0.87326 2.65098,0 0,-0.87326 -2.65098,0 z m -13.90942,1.71546 0,0.87335 3.11873,0 0,-0.87335 -3.11873,0 z m 3.33708,0 0,0.87335 1.49698,0 0,-0.87335 -1.49698,0 z m 1.83997,0 0,0.87335 0.68612,0 0,-0.87335 -0.68612,0 z m 0.87326,0 0,0.87335 1.37223,0 0,-0.87335 -1.37223,0 z m 1.55938,0 0,0.87335 1.3722,0 0,-0.87335 -1.3722,0 z m 1.80877,0 0,0.87335 2.18312,0 0,-0.87335 -2.18312,0 z m 2.46384,0 0,0.87335 2.838,0 0,-0.87335 -2.838,0 z m 3.2435,0 0,0.87335 1.52808,0 0,-0.87335 -1.52808,0 z m -15.1258,1.71554 0,0.84218 3.2747,0 0,-0.84218 -3.2747,0 z m 3.52422,0 0,0.84218 1.02911,0 0,-0.84218 -1.02911,0 z m 1.30984,0 0,0.84218 2.33895,0 0,-0.84218 -2.33895,0 z m 2.58848,0 0,0.84218 1.62173,0 0,-0.84218 -1.62173,0 z m 1.90246,0 0,0.84218 1.59047,0 0,-0.84218 -1.59047,0 z m 1.87118,0 0,0.84218 2.30786,0 0,-0.84218 -2.30786,0 z m 2.58849,0 0,0.84218 0.49906,0 0,-0.84218 -0.49906,0 z m -13.78467,1.71556 0,0.84216 3.1811,0 0,-0.84216 -3.1811,0 z m 3.49292,0 0,0.84216 1.49698,0 0,-0.84216 -1.49698,0 z m 1.77772,0 0,0.84216 2.05842,0 0,-0.84216 -2.05842,0 z m 2.33905,0 0,0.84216 1.90247,0 0,-0.84216 -1.90247,0 z m 2.21427,0 0,0.84216 1.62176,0 0,-0.84216 -1.62176,0 z m 1.90238,0 0,0.84216 0.68612,0 0,-0.84216 -0.68612,0 z m 0.96683,0 0,0.84216 1.65294,0 0,-0.84216 -1.65294,0 z"
         id="path3118" />
      <g
         style="display:inline"
         id="g3120"
         transform="matrix(0.99798727,0,0,0.99813732,-2.4280518,1.1889245)">
        <path
           inkscape:connector-curvature="0"
           id="path3122"
           d="m 418.90625,365.59375 c -0.77214,0 -1.27465,0.53723 -1.59375,1.0625 -0.21092,0.34719 -0.35967,0.71385 -0.4375,1.09375 l -0.90625,0 c -2.03768,0 -3.71875,1.64981 -3.71875,3.6875 l 0,23.71875 c 0,2.03769 1.68107,3.6875 3.71875,3.6875 l 40.5625,0 c 2.03768,0 3.6875,-1.64981 3.6875,-3.6875 l 0,-23.71875 c 0,-2.03769 -1.64982,-3.6875 -3.6875,-3.6875 l -28.21875,0 c -0.0778,-0.3799 -0.22658,-0.74656 -0.4375,-1.09375 -0.3191,-0.52527 -0.82161,-1.0625 -1.59375,-1.0625 l -7.375,0 z m 0,1.40625 7.375,0 c 0.003,0 0.21958,0.0677 0.40625,0.375 0.0489,0.0805 0.055,0.15731 0.0937,0.25 l -8.34375,0 c 0.0389,-0.0927 0.0448,-0.16949 0.0937,-0.25 0.18667,-0.30728 0.37205,-0.375 0.375,-0.375 z m -2.9375,2.15625 40.5625,0 c 1.28629,0 2.28125,0.99494 2.28125,2.28125 l 0,23.71875 c 0,1.28631 -0.99496,2.3125 -2.28125,2.3125 l -40.5625,0 c -1.28629,0 -2.3125,-1.02619 -2.3125,-2.3125 l 0,-23.71875 c 0,-1.28631 1.02621,-2.28125 2.3125,-2.28125 z"
           style="font-size:medium;font-style:normal;font-variant:normal;font-weight:normal;font-stretch:normal;text-indent:0;text-align:start;text-decoration:none;line-height:normal;letter-spacing:normal;word-spacing:normal;text-transform:none;direction:ltr;block-progression:tb;writing-mode:lr-tb;text-anchor:start;color:#000000;fill:#ff8351;fill-opacity:1;fill-rule:nonzero;stroke:none;stroke-width:1.39999998;marker:none;visibility:visible;display:inline;overflow:visible;enable-background:accumulate;font-family:Bitstream Vera Sans;-inkscape-font-specification:Bitstream Vera Sans" />
        <path
           transform="matrix(0.99544736,0,0,0.99537506,-42.934159,21.045895)"
           d="m 496,365.61218 c 0,5.66092 -4.58908,10.25 -10.25,10.25 -5.66092,0 -10.25,-4.58908 -10.25,-10.25 0,-5.66092 4.58908,-10.25 10.25,-10.25 5.66092,0 10.25,4.58908 10.25,10.25 z"
           sodipodi:ry="10.25"
           sodipodi:rx="10.25"
           sodipodi:cy="365.61218"
           sodipodi:cx="485.75"
           id="path3124"
           style="fill:none;stroke:#ff8351;stroke-width:1.40918446;stroke-miterlimit:4;stroke-opacity:1;stroke-dasharray:none;display:inline"
           sodipodi:type="arc" />
        <rect
           ry="1.2345194"
           rx="1.234705"
           y="370.97174"
           x="448.25769"
           height="2.952781"
           width="8.5647373"
           id="rect3126"
           style="fill:#ff8351;fill-opacity:1;stroke:none;display:inline" />
        <path
           sodipodi:type="arc"
           style="fill:none;stroke:#ff8351;stroke-width:1.67022681;stroke-miterlimit:4;stroke-opacity:1;stroke-dasharray:none;display:inline"
           id="path3128"
           sodipodi:cx="485.75"
           sodipodi:cy="365.61218"
           sodipodi:rx="8.7475471"
           sodipodi:ry="8.7475471"
           d="m 494.49755,365.61218 c 0,4.83114 -3.91641,8.74755 -8.74755,8.74755 -4.83114,0 -8.74755,-3.91641 -8.74755,-8.74755 0,-4.83113 3.91641,-8.74754 8.74755,-8.74754 4.83114,0 8.74755,3.91641 8.74755,8.74754 z"
           transform="matrix(0.83986733,0,0,0.83980628,32.638844,77.923725)" />
      </g>
    </g>
    <text
       xml:space="preserve"
       style="font-size:37.91466141px;font-style:normal;font-variant:normal;font-weight:normal;font-stretch:normal;fill:#000000;fill-opacity:1;stroke:none;display:inline;font-family:Linux Biolinum O;-inkscape-font-specification:Linux Biolinum O"
       x="199.42546"
       y="440.00293"
       id="title-3"
       transform="scale(1.0000515,0.99994851)"><tspan
         dx="0 -0.55756855 -0.55756855 0 -0.55756855 -1.6727055 -1.6727055 0 0 -0.55756855 -0.55756855 -1.1151371 -2.9419356e-10 -0.55756855 -0.55756855 0 0 -2.2302742 -0.55756855 -1.1151371 0 0 -2.4612267 -1.6727055 -1.6727055 -1.1151371 -1.1151371 0 -7.0710673 -2.7779193 -2.0636337 -2.0636337 -0.50507629"
         sodipodi:role="line"
         id="tspan19246-6"
         x="199.42546"
         y="440.00293">Getting Started with Ubuntu 10.04</tspan></text>
  </g>
  <g
     inkscape:groupmode="layer"
     id="layer2"
     inkscape:label="second edition"
     style="display:inline">
    <text
       transform="scale(1.0000913,0.99990871)"
       id="second_edition-1"
       y="470.14032"
       x="201.9713"
       style="font-size:19.10467529px;font-style:normal;font-variant:normal;font-weight:normal;font-stretch:normal;fill:#000000;fill-opacity:1;stroke:none;display:inline;font-family:Linux Biolinum O;-inkscape-font-specification:Linux Biolinum O"
       xml:space="preserve"><tspan
         style="font-size:19.10467529px;font-style:normal;font-variant:normal;font-weight:normal;font-stretch:normal;fill:#000000;fill-opacity:1;font-family:Linux Biolinum O;-inkscape-font-specification:Linux Biolinum O"
         y="470.14032"
         x="201.9713"
         id="tspan19194-0"
         sodipodi:role="line">Second Edition</tspan></text>
  </g>
  <g
     inkscape:groupmode="layer"
     id="layer3"
     inkscape:label="layout"
     style="display:none">
    <rect
       style="fill:#000000;fill-opacity:0.32863853;stroke:none;display:inline"
       id="rect12300"
       width="20"
       height="401.97211"
       x="8.3274181e-06"
       y="-401.97208"
       transform="scale(1,-1)" />
    <rect
       y="-1052.3625"
       x="8.3274181e-06"
       height="650.39087"
       width="20"
       id="rect12302"
       style="fill:#000000;fill-opacity:0.15962441;stroke:none;display:inline"
       transform="scale(1,-1)" />
    <rect
       y="-861.74341"
       x="724.09448"
       height="117.81147"
       width="20"
       id="rect12358"
       style="fill:#000000;fill-opacity:0.32863853;stroke:none;display:inline"
       transform="scale(1,-1)" />
    <rect
       style="fill:#000000;fill-opacity:0.15962441;stroke:none;display:inline"
       id="rect12360"
       width="20"
       height="190.61896"
       x="724.09448"
       y="-1052.3622"
       transform="scale(1,-1)" />
    <rect
       style="opacity:0.7;fill:#000000;fill-opacity:0.32863853;stroke:none;display:inline"
       id="rect12364"
       width="20"
       height="72.810898"
       x="704.09448"
       y="-934.5542"
       transform="scale(1,-1)" />
    <rect
       y="-1052.3622"
       x="704.09448"
       height="117.80803"
       width="20"
       id="rect12366"
       style="opacity:0.7;fill:#000000;fill-opacity:0.15962441;stroke:none;display:inline"
       transform="scale(1,-1)" />
    <path
       style="fill:none;stroke:#1ea9ff;stroke-width:1px;stroke-linecap:butt;stroke-linejoin:miter;stroke-opacity:1;display:inline"
       d="M 4e-7,401.9721 147.25,401.9721"
       id="path12532"
       inkscape:connector-curvature="0" />
    <path
       id="path12534"
       d="m 569.06929,859.98087 0,62.54582"
       style="fill:none;stroke:#1ea9ff;stroke-width:1;stroke-linecap:butt;stroke-linejoin:miter;stroke-miterlimit:4;stroke-opacity:1;stroke-dasharray:none;display:inline"
       inkscape:connector-curvature="0" />
    <path
       style="fill:none;stroke:#1ea9ff;stroke-width:1;stroke-linecap:butt;stroke-linejoin:miter;stroke-miterlimit:4;stroke-opacity:1;stroke-dasharray:none;display:inline"
       d="m 522.77598,402.68749 0,345.12605"
       id="path12536"
       inkscape:connector-curvature="0" />
    <path
       id="path12548"
       d="m 199.736,483.36222 0,313.75127"
       style="fill:none;stroke:#1ea9ff;stroke-width:0.99999994;stroke-linecap:butt;stroke-linejoin:miter;stroke-miterlimit:4;stroke-opacity:1;stroke-dasharray:none;display:inline"
       inkscape:connector-curvature="0" />
    <path
       id="path12550"
       d="m 675.20423,934.55414 48.78049,0"
       style="fill:none;stroke:#1ea9ff;stroke-width:1px;stroke-linecap:butt;stroke-linejoin:miter;stroke-opacity:1;display:inline"
       inkscape:connector-curvature="0" />
    <rect
       y="869.16162"
       x="379.10181"
       height="183.20056"
       width="20"
       id="rect12552"
       style="opacity:0.7;fill:#000000;fill-opacity:0.32863853;stroke:none;display:inline" />
    <rect
       style="opacity:0.7;fill:#000000;fill-opacity:0.15962441;stroke:none;display:inline"
       id="rect12554"
       width="20"
       height="296.41849"
       x="379.10181"
       y="442.13605" />
    <path
       style="fill:none;stroke:#1ea9ff;stroke-width:0.99999994;stroke-linecap:butt;stroke-linejoin:miter;stroke-miterlimit:4;stroke-opacity:1;stroke-dasharray:none;display:inline"
       d="m 107.43601,401.9721 0,395.09374"
       id="path12556"
       inkscape:connector-curvature="0" />
    <path
       style="fill:none;stroke:#1ea9ff;stroke-width:1.01089263;stroke-linecap:butt;stroke-linejoin:miter;stroke-miterlimit:4;stroke-opacity:1;stroke-dasharray:none;display:inline"
       d="m 153.59816,427.18608 0,320.62366"
       id="path3942"
       inkscape:connector-curvature="0" />
    <rect
       y="803.93219"
       x="20.000008"
       height="248.43037"
       width="20"
       id="rect12318"
       style="opacity:0.7;fill:#000000;fill-opacity:0.32863853;stroke:none;display:inline" />
    <rect
       style="opacity:0.7;fill:#000000;fill-opacity:0.15962441;stroke:none;display:inline"
       id="rect12320"
       width="20"
       height="401.96036"
       x="20.000008"
       y="401.97195" />
    <path
       id="path12538"
       d="m 684.24064,449.03857 0,328.52078"
       style="fill:none;stroke:#1ea9ff;stroke-width:0.99999994;stroke-linecap:butt;stroke-linejoin:miter;stroke-miterlimit:4;stroke-opacity:1;stroke-dasharray:none;display:inline"
       inkscape:connector-curvature="0"
       sodipodi:nodetypes="cc" />
    <path
       style="fill:none;stroke:#1ea9ff;stroke-width:1;stroke-linecap:butt;stroke-linejoin:miter;stroke-miterlimit:4;stroke-opacity:1;stroke-dasharray:none;display:inline"
       d="m 680.75824,773.10335 6.9648,8.94284"
       id="path12540"
       sodipodi:nodetypes="cc"
       inkscape:connector-curvature="0" />
    <path
       sodipodi:nodetypes="cc"
       id="path12542"
       d="m 689.77532,778.4965 -11.07655,-1.83378"
       style="fill:none;stroke:#1ea9ff;stroke-width:1;stroke-linecap:butt;stroke-linejoin:miter;stroke-miterlimit:4;stroke-opacity:1;stroke-dasharray:none;display:inline"
       inkscape:connector-curvature="0" />
  </g>
</svg>
